<svg xmlns="http://www.w3.org/2000/svg" width="14" height="15" viewBox="0 0 14 15" fill="none">
    <g clip-path="url(#clip0_6883_33948)">
        <path
            d="M7.90138 2.17512L8.00265 2.24719M7.90138 2.17512L7.96319 2.36856L8.00272 2.25014L8.00317 2.24877L8.00315 2.24869L8.00265 2.24719M7.90138 2.17512L8.00265 2.24719M7.90138 2.17512L8.00396 2.24641L7.96319 2.12881L8.00265 2.24719M7.3908 7.81766L7.39086 7.81784C7.53965 8.26409 7.79033 8.66954 8.12304 9.00207C8.45575 9.3346 8.86135 9.58506 9.30767 9.73361L10.4784 10.1236L9.30672 10.5138L9.30654 10.5139C8.86029 10.6626 8.45484 10.9133 8.12231 11.246C7.78978 11.5788 7.53932 11.9843 7.39077 12.4307L7.00073 13.6014L6.61058 12.4297L6.61054 12.4296C6.46186 11.9835 6.21133 11.5781 5.87881 11.2456C5.54629 10.913 5.14091 10.6625 4.69478 10.5138L4.69466 10.5138L3.52312 10.1237L4.69466 9.73358L4.69478 9.73354C5.14091 9.58486 5.54629 9.33433 5.87881 9.00181C6.21133 8.66929 6.46186 8.26391 6.61054 7.81778L6.61058 7.81766L7.00069 6.64612L7.3908 7.81766ZM3.54518 2.67793L3.54531 2.67833C3.74648 3.28066 4.21872 3.7529 4.82105 3.95407L4.82145 3.9542L4.95504 3.99869L4.82145 4.04318L4.82139 4.0432C4.52419 4.14222 4.25413 4.3091 4.03261 4.53061C3.8111 4.75213 3.64422 5.02219 3.5452 5.3194L3.54518 5.31945L3.50069 5.45304L3.4562 5.31945L3.45618 5.3194C3.35716 5.02219 3.19028 4.75213 2.96876 4.53061C2.74725 4.3091 2.47719 4.14222 2.17998 4.0432L2.17993 4.04318L2.04634 3.99869L2.17993 3.9542L2.17998 3.95418C2.47719 3.85516 2.74725 3.68828 2.96876 3.46677C3.19028 3.24525 3.35716 2.97519 3.45618 2.67798L3.4562 2.67793L3.50069 2.54434L3.54518 2.67793ZM9.38907 2.48531C9.2972 2.39343 9.19418 2.3141 9.08273 2.249C9.30759 2.11792 9.49484 1.93086 9.62613 1.70614C9.75733 1.93071 9.94442 2.11768 10.1691 2.24874C10.0575 2.3139 9.9543 2.39331 9.86231 2.48531C9.77029 2.57733 9.69085 2.68053 9.62569 2.79217C9.56052 2.68053 9.48109 2.57733 9.38907 2.48531L9.03552 2.83886L9.38907 2.48531ZM9.65527 0.585315L9.65464 0.58619L9.65527 0.585315Z"
            fill="currentColor" stroke="currentColor" />
    </g>
    <defs>
        <clipPath id="clip0_6883_33948">
            <rect width="14" height="14" fill="white" transform="translate(0 0.5)" />
        </clipPath>
    </defs>
</svg>