<svg width="17" height="17" viewBox="0 0 17 17" fill="none" xmlns="http://www.w3.org/2000/svg">
<path d="M3.47396 3.16602C3.10729 3.16602 2.80729 3.28602 2.53396 3.54602C2.27396 3.80602 2.14062 4.12602 2.14062 4.49935V12.4993C2.14062 12.8727 2.27396 13.1927 2.53396 13.4527C2.80729 13.7127 3.10729 13.8327 3.47396 13.8327H12.8073C13.1406 13.8327 13.474 13.706 13.734 13.4393C14.0073 13.166 14.1406 12.8527 14.1406 12.4993V4.49935C14.1406 4.14602 14.0073 3.83268 13.734 3.55935C13.474 3.29268 13.1406 3.16602 12.8073 3.16602H3.47396ZM3.14062 4.16602H13.1406V12.8327H3.14062V4.16602ZM4.80729 6.49935C4.60729 6.49935 4.45396 6.55935 4.32729 6.68602C4.20063 6.81268 4.14062 6.96602 4.14062 7.16602V9.83268C4.14062 10.0327 4.20063 10.186 4.32729 10.3127C4.45396 10.4393 4.60729 10.4993 4.80729 10.4993H6.80729C6.98729 10.4993 7.14062 10.4393 7.28063 10.3127C7.41396 10.186 7.47396 10.0327 7.47396 9.83268V9.16602H6.47396V9.49935H5.14062V7.49935H6.47396V7.83268H7.47396V7.16602C7.47396 6.96602 7.41396 6.81268 7.28063 6.68602C7.14062 6.55935 6.98729 6.49935 6.80729 6.49935H4.80729ZM9.47396 6.49935C9.29396 6.49935 9.14062 6.55935 9.00063 6.68602C8.86729 6.81268 8.80729 6.96602 8.80729 7.16602V9.83268C8.80729 10.0327 8.86729 10.186 9.00063 10.3127C9.14062 10.4393 9.29396 10.4993 9.47396 10.4993H11.474C11.674 10.4993 11.8273 10.4393 11.954 10.3127C12.0806 10.186 12.1406 10.0327 12.1406 9.83268V9.16602H11.1406V9.49935H9.80729V7.49935H11.1406V7.83268H12.1406V7.16602C12.1406 6.96602 12.0806 6.81268 11.954 6.68602C11.8273 6.55935 11.674 6.49935 11.474 6.49935H9.47396Z" fill="#1F2937"/>
</svg>
