<svg width="77" height="88" viewBox="0 0 77 88" fill="none" xmlns="http://www.w3.org/2000/svg">
    <path d="M52.2434 52.5622L46.5806 47.1016" stroke="#D1D5DB" stroke-width="3" stroke-linecap="round" />
    <path
        d="M48.7466 12.2134C52.2188 16.6819 54.2861 22.2961 54.2861 28.393C54.2861 42.9695 42.4695 54.786 27.8931 54.786C13.3166 54.786 1.5 42.9695 1.5 28.393C1.5 13.8166 13.3166 2 27.8931 2C33.2231 2 38.1842 3.58001 42.3334 6.29722"
        stroke="#D1D5DB" stroke-width="3" stroke-linecap="round" />
    <path
        d="M70.8983 59.4245L61.084 50.9352C57.9904 48.2592 53.3131 48.5978 50.6371 51.6915L50.637 51.6915C47.961 54.7852 48.2996 59.4625 51.3933 62.1385L61.2075 70.6277C64.3012 73.3038 68.9785 72.9652 71.6545 69.8715L71.6545 69.8715C74.3306 66.7778 73.992 62.1005 70.8983 59.4245Z"
        fill="#D1D5DB" />
    <path
        d="M27.691 87.7516C41.2622 87.7516 52.2638 85.6237 52.2638 82.9989C52.2638 80.374 41.2622 78.2461 27.691 78.2461C14.1198 78.2461 3.11816 80.374 3.11816 82.9989C3.11816 85.6237 14.1198 87.7516 27.691 87.7516Z"
        fill="#D1D5DB" />
    <path d="M23.3423 39.4162C25.2335 37.0238 29.3231 35.9262 32.4433 39.4162" stroke="#D1D5DB" stroke-width="3"
        stroke-linecap="round" />
    <path
        d="M20.3085 27.2797C21.3138 27.2797 22.1287 26.1931 22.1287 24.8527C22.1287 23.5124 21.3138 22.4258 20.3085 22.4258C19.3032 22.4258 18.4883 23.5124 18.4883 24.8527C18.4883 26.1931 19.3032 27.2797 20.3085 27.2797Z"
        fill="#D1D5DB" />
    <path
        d="M35.6801 27.4828C36.6853 27.4828 37.5003 26.3962 37.5003 25.0559C37.5003 23.7155 36.6853 22.6289 35.6801 22.6289C34.6748 22.6289 33.8599 23.7155 33.8599 25.0559C33.8599 26.3962 34.6748 27.4828 35.6801 27.4828Z"
        fill="#D1D5DB" />
    <path
        d="M40.0743 31.0653C39.1051 31.3238 39.0176 30.1372 39.1417 29.1339C39.1802 28.823 39.5483 28.7132 39.7527 28.9505C40.4345 29.7425 41.0503 30.805 40.0743 31.0653Z"
        fill="#D1D5DB" />
</svg>