<svg width="15" height="15" viewBox="0 0 15 15" fill="none" xmlns="http://www.w3.org/2000/svg">
    <g clip-path="url(#clip0_5049_46506)">
        <path
            d="M0 7.49998V14.9702H5.37598H10.752V14.3303V13.6905H12.7119H14.6689L14.7656 13.625C14.9326 13.5089 14.9854 13.4107 14.9854 13.2143C14.9854 13.0833 14.9707 13.0178 14.9238 12.9553C14.8271 12.8244 14.6895 12.744 14.5225 12.7232C14.4375 12.7143 12.9902 12.7083 11.3057 12.7143L8.24414 12.7232L8.12402 12.8035C7.85156 12.9881 7.83398 13.4196 8.09766 13.6101C8.18555 13.6726 8.2207 13.6756 8.97949 13.6905L9.77051 13.7053L9.7793 13.8482L9.78809 13.9881H5.37891H0.966797V7.49998V1.01188H5.37598H9.78516V2.40474V3.79462L9.67969 3.94343C9.54199 4.13986 9.42481 4.37795 9.33984 4.63093C9.28125 4.80652 9.27246 4.89581 9.27539 5.23807C9.27539 5.68152 9.25488 5.58629 9.63867 6.83033C9.89356 7.65176 10.1074 8.80355 10.1074 9.34521V9.52379H9.73242C9.49219 9.52379 9.2959 9.53867 9.1875 9.56843C8.74805 9.6845 8.31445 10.0327 8.10938 10.4315C7.94238 10.7589 7.91016 10.9315 7.91016 11.5238C7.91016 12.0149 7.91309 12.0506 7.97754 12.1428C8.0127 12.1964 8.08008 12.2708 8.12402 12.3035C8.20606 12.366 8.21192 12.366 11.4199 12.372L14.6338 12.3809L14.751 12.3125C14.8271 12.2708 14.8916 12.1994 14.9355 12.1131C15 11.9851 15.0029 11.9583 14.9912 11.4434C14.9795 10.8571 14.9561 10.753 14.7627 10.3869C14.6396 10.1518 14.3057 9.82736 14.0566 9.70533C13.7637 9.5595 13.5967 9.52379 13.1602 9.52379H12.7676L12.7881 9.29164C12.8701 8.28271 13.0137 7.59819 13.4004 6.35414C13.6201 5.65176 13.6641 5.4345 13.6436 5.1339C13.6201 4.80652 13.5586 4.58629 13.3975 4.25593C13.2832 4.01783 13.2217 3.93152 12.9961 3.70533C12.7002 3.40771 12.4395 3.247 12.041 3.122C11.7627 3.03271 11.1885 3.02379 10.9219 3.10117L10.752 3.14879V1.58926V0.0297375H5.37598H0V7.49998ZM11.8857 4.10117C12.1025 4.1845 12.3164 4.35117 12.4512 4.54462C12.6123 4.77379 12.6709 4.96426 12.668 5.25295C12.668 5.46426 12.6445 5.56545 12.4688 6.11605C12.0645 7.39879 11.8975 8.19938 11.8213 9.26486L11.8008 9.52676L11.4463 9.51783L11.0889 9.5089L11.0801 9.34521C11.0684 9.03867 10.9834 8.34819 10.9102 7.9464C10.8164 7.41962 10.6816 6.90771 10.4443 6.16069C10.2188 5.45533 10.1836 5.21724 10.2686 4.9226C10.3857 4.5089 10.708 4.1845 11.1328 4.0595C11.3145 4.00593 11.6953 4.02676 11.8857 4.10117ZM13.6172 10.5833C13.875 10.7143 14.0332 10.9762 14.0332 11.2708V11.3988H11.4551H8.87695V11.2619C8.87695 11.1845 8.8916 11.0714 8.91211 11.0059C8.95606 10.8541 9.1377 10.6488 9.29297 10.5714C9.41602 10.5089 9.45703 10.5089 11.4434 10.5059H13.4648L13.6172 10.5833Z"
            fill="#545454" />
        <path d="M3.71875 2.72328V3.21436H5.35938H7V2.72328V2.23221H5.35938H3.71875V2.72328Z" fill="#545454" />
        <path d="M2.07812 4.53871V5.02979H5.37402H8.66992V4.53871V4.04764H5.37402H2.07812V4.53871Z" fill="#545454" />
        <path d="M2.07812 6.35414V6.84521H5.37402H8.66992V6.35414V5.86307H5.37402H2.07812V6.35414Z" fill="#545454" />
        <path d="M2.07812 8.13979V8.63086H5.37402H8.66992V8.13979V7.64872H5.37402H2.07812V8.13979Z" fill="#545454" />
        <path
            d="M3.2994 9.8364C2.90389 9.94949 2.51424 10.265 2.32967 10.6221C1.98983 11.2799 2.09529 12.012 2.60506 12.5299C3.21736 13.1519 4.16365 13.1697 4.7994 12.5715C5.01619 12.3691 5.15682 12.14 5.24178 11.8513C5.32674 11.5685 5.31502 11.1221 5.21834 10.8483C5.05721 10.4019 4.69979 10.0388 4.25447 9.87509C4.04061 9.79473 3.51326 9.7739 3.2994 9.8364ZM4.07283 10.8781C4.26033 11.012 4.33944 11.1876 4.32772 11.4316C4.316 11.6757 4.21932 11.8304 4.01424 11.9465C3.69783 12.1191 3.32869 11.9941 3.15584 11.6549C3.06795 11.4793 3.09139 11.2054 3.20565 11.0358C3.33748 10.8483 3.51033 10.7679 3.7535 10.7799C3.91463 10.7888 3.97322 10.8066 4.07283 10.8781Z"
            fill="#545454" />
    </g>
    <defs>
        <clipPath id="clip0_5049_46506">
            <rect width="15" height="15" fill="white" />
        </clipPath>
    </defs>
</svg>