<svg width="15" height="15" viewBox="0 0 15 15" fill="none" xmlns="http://www.w3.org/2000/svg">
<path d="M8.79688 7.32812C9.55729 6.76563 10.151 6.14854 10.5781 5.47687C11.0052 4.80521 11.2188 4.13583 11.2188 3.46875C11.2188 3.13542 11.164 2.89062 11.0544 2.73438C10.9448 2.57812 10.7967 2.5 10.61 2.5C10.12 2.5 9.6875 2.91417 9.3125 3.7425C8.9375 4.57083 8.75 5.50563 8.75 6.54688C8.75 6.69271 8.75271 6.83083 8.75812 6.96125C8.76354 7.09167 8.77646 7.21396 8.79688 7.32812ZM1.875 13.125V11.875H3.125V13.125H1.875ZM4.375 13.125V11.875H5.625V13.125H4.375ZM6.875 13.125V11.875H8.125V13.125H6.875ZM9.375 13.125V11.875H10.625V13.125H9.375ZM11.875 13.125V11.875H13.125V13.125H11.875ZM2.125 10.625L1.25 9.75L2.25 8.75L1.25 7.75L2.125 6.875L3.125 7.875L4.125 6.875L5 7.75L4 8.75L5 9.75L4.125 10.625L3.125 9.625L2.125 10.625ZM9.65625 10C9.34375 10 9.05729 9.94 8.79688 9.82C8.53646 9.7 8.3125 9.505 8.125 9.235C7.86458 9.38083 7.59625 9.51104 7.32 9.62562C7.04375 9.74021 6.76 9.85479 6.46875 9.96938L6.03125 8.7975C6.32292 8.69333 6.60167 8.58146 6.8675 8.46187C7.13333 8.34229 7.39104 8.21458 7.64062 8.07875C7.58854 7.84958 7.54958 7.59958 7.52375 7.32875C7.49792 7.05792 7.48479 6.76625 7.48438 6.45375C7.48438 4.95375 7.78125 3.71167 8.375 2.7275C8.96875 1.74333 9.71354 1.25083 10.6094 1.25C11.151 1.25 11.5938 1.45063 11.9375 1.85188C12.2812 2.25313 12.4531 2.81292 12.4531 3.53125C12.4531 4.42708 12.1692 5.3125 11.6012 6.1875C11.0333 7.0625 10.2444 7.84896 9.23438 8.54688C9.30729 8.61979 9.38292 8.67458 9.46125 8.71125C9.53958 8.74792 9.62021 8.76604 9.70312 8.76562C9.97396 8.76562 10.2892 8.59375 10.6488 8.25C11.0083 7.90625 11.3337 7.45312 11.625 6.89062L12.7656 7.42188C12.6927 7.59896 12.6354 7.8125 12.5938 8.0625C12.5521 8.3125 12.5573 8.53125 12.6094 8.71875C12.7135 8.66667 12.836 8.57812 12.9769 8.45312C13.1177 8.32812 13.2608 8.17188 13.4062 7.98438L14.3906 8.75C14.1198 9.125 13.8073 9.42708 13.4531 9.65625C13.099 9.88542 12.7708 10 12.4688 10C12.25 10 12.0546 9.93479 11.8825 9.80437C11.7104 9.67396 11.5673 9.47354 11.4531 9.20312C11.1615 9.46354 10.8646 9.66146 10.5625 9.79688C10.2604 9.93229 9.95833 10 9.65625 10Z" fill="#343A40"/>
</svg>
