<svg width="13" height="22" viewBox="0 0 13 22" fill="none" xmlns="http://www.w3.org/2000/svg">
    <path
        d="M12.9939 20.1294C13.0233 20.4326 12.9363 20.7355 12.7506 20.9769C12.565 21.2183 12.2944 21.3801 11.9939 21.4294H1.49389C1.19336 21.3801 0.922825 21.2183 0.737134 20.9769C0.551443 20.7355 0.464487 20.4326 0.49389 20.1294V1.72944C0.464487 1.42631 0.551443 1.12334 0.737134 0.88194C0.922825 0.640542 1.19336 0.47878 1.49389 0.429443H11.9939C12.2944 0.47878 12.565 0.640542 12.7506 0.88194C12.9363 1.12334 13.0233 1.42631 12.9939 1.72944V20.1294Z"
        fill="#00A9DE" />
    <path
        d="M12.193 17.7292C12.2068 17.8607 12.1944 17.9936 12.1565 18.1202C12.1187 18.2468 12.0561 18.3647 11.9724 18.467C11.8887 18.5693 11.7856 18.6539 11.669 18.7161C11.5523 18.7783 11.4245 18.8168 11.293 18.8292H2.09297C1.9614 18.8168 1.83361 18.7783 1.71699 18.7161C1.60037 18.6539 1.49723 18.5693 1.41354 18.467C1.32985 18.3647 1.26727 18.2468 1.22941 18.1202C1.19155 17.9936 1.17916 17.8607 1.19297 17.7292V2.32925C1.17916 2.19781 1.19155 2.06493 1.22941 1.93831C1.26727 1.81169 1.32985 1.69382 1.41354 1.59153C1.49723 1.48924 1.60037 1.40456 1.71699 1.34238C1.83361 1.28019 1.9614 1.24174 2.09297 1.22925H11.193C11.3245 1.24174 11.4523 1.28019 11.569 1.34238C11.6856 1.40456 11.7887 1.48924 11.8724 1.59153C11.9561 1.69382 12.0187 1.81169 12.0565 1.93831C12.0944 2.06493 12.1068 2.19781 12.093 2.32925L12.193 17.7292Z"
        fill="#F1F1F2" />
    <path
        d="M6.69375 20.8296C7.02512 20.8296 7.29375 20.561 7.29375 20.2296C7.29375 19.8983 7.02512 19.6296 6.69375 19.6296C6.36238 19.6296 6.09375 19.8983 6.09375 20.2296C6.09375 20.561 6.36238 20.8296 6.69375 20.8296Z"
        fill="#F1F1F2" />
    <path
        d="M2.59453 14.1292V12.8292H2.39453V14.1292C2.39453 14.4209 2.51042 14.7007 2.71671 14.907C2.923 15.1133 3.20279 15.2292 3.49453 15.2292H4.89453V15.0292H3.49453C3.25583 15.0292 3.02692 14.9344 2.85814 14.7656C2.68935 14.5968 2.59453 14.3679 2.59453 14.1292ZM3.49453 6.5292C3.20279 6.5292 2.923 6.64509 2.71671 6.85138C2.51042 7.05767 2.39453 7.33746 2.39453 7.6292V9.3292H2.69453V7.7292C2.69453 7.4905 2.78935 7.26158 2.95813 7.0928C3.12692 6.92402 3.35583 6.8292 3.59453 6.8292H4.99453V6.5292H3.49453ZM10.8945 14.1292C10.8945 14.3679 10.7997 14.5968 10.6309 14.7656C10.4621 14.9344 10.2332 15.0292 9.99453 15.0292H8.39453V15.3292H9.89453C10.1863 15.3292 10.4661 15.2133 10.6723 15.007C10.8786 14.8007 10.9945 14.5209 10.9945 14.2292V12.8292H10.7945L10.8945 14.1292ZM9.99453 6.5292H8.39453V6.8292H9.89453C10.1332 6.8292 10.3621 6.92402 10.5309 7.0928C10.6997 7.26158 10.7945 7.4905 10.7945 7.7292V9.3292H11.0945V7.7292C11.11 7.56776 11.0896 7.4049 11.0348 7.25227C10.98 7.09964 10.8921 6.96103 10.7774 6.84635C10.6627 6.73168 10.5241 6.64378 10.3715 6.58895C10.2188 6.53411 10.056 6.51371 9.89453 6.5292H9.99453Z"
        fill="#00B4EA" />
    <path
        d="M6.69375 11.2294C6.97475 11.2287 7.24904 11.1435 7.48093 10.9847C7.71281 10.826 7.89158 10.6012 7.99396 10.3395C8.09634 10.0778 8.11759 9.79137 8.05496 9.51743C7.99234 9.2435 7.84873 8.99474 7.64281 8.80353C7.43689 8.61232 7.17819 8.48751 6.90038 8.44531C6.62256 8.40312 6.33847 8.44551 6.08507 8.56697C5.83167 8.68842 5.62068 8.88332 5.47955 9.12632C5.33842 9.36931 5.27368 9.64915 5.29375 9.92944C5.31908 10.2831 5.47768 10.6141 5.73754 10.8554C5.9974 11.0967 6.33914 11.2303 6.69375 11.2294ZM7.49375 11.2294L6.69375 11.4294L5.89375 11.2294C5.51559 11.3852 5.19113 11.6479 4.96019 11.9854C4.72925 12.3229 4.60189 12.7206 4.59375 13.1294H8.79375C8.78561 12.7206 8.65825 12.3229 8.42731 11.9854C8.19638 11.6479 7.87191 11.3852 7.49375 11.2294Z"
        fill="#F0BC61" />
</svg>