<svg width="30" height="30" viewBox="0 0 30 30" fill="none" xmlns="http://www.w3.org/2000/svg">
    <path
        d="M15 3C16.1016 3 17.1641 3.14062 18.1875 3.42188C19.2109 3.70312 20.1641 4.10938 21.0469 4.64062C21.9297 5.17188 22.7383 5.79688 23.4727 6.51562C24.207 7.23438 24.8359 8.04297 25.3594 8.94141C25.8828 9.83984 26.2852 10.7969 26.5664 11.8125C26.8477 12.8281 26.9922 13.8906 27 15C27 16.1016 26.8594 17.1641 26.5781 18.1875C26.2969 19.2109 25.8906 20.1641 25.3594 21.0469C24.8281 21.9297 24.2031 22.7383 23.4844 23.4727C22.7656 24.207 21.957 24.8359 21.0586 25.3594C20.1602 25.8828 19.2031 26.2852 18.1875 26.5664C17.1719 26.8477 16.1094 26.9922 15 27C13.8984 27 12.8359 26.8594 11.8125 26.5781C10.7891 26.2969 9.83594 25.8906 8.95312 25.3594C8.07031 24.8281 7.26172 24.2031 6.52734 23.4844C5.79297 22.7656 5.16406 21.957 4.64062 21.0586C4.11719 20.1602 3.71484 19.2031 3.43359 18.1875C3.15234 17.1719 3.00781 16.1094 3 15C3 13.8984 3.14062 12.8359 3.42188 11.8125C3.70312 10.7891 4.10938 9.83594 4.64062 8.95312C5.17188 8.07031 5.79688 7.26172 6.51562 6.52734C7.23438 5.79297 8.04297 5.16406 8.94141 4.64062C9.83984 4.11719 10.7969 3.71484 11.8125 3.43359C12.8281 3.15234 13.8906 3.00781 15 3ZM16.3242 15L20.332 10.9922L19.0078 9.66797L15 13.6758L10.9922 9.66797L9.66797 10.9922L13.6758 15L9.66797 19.0078L10.9922 20.332L15 16.3242L19.0078 20.332L20.332 19.0078L16.3242 15Z"
        fill="#EF4444" />
    <path
        d="M15 1.5V1.49996L14.9894 1.50004C13.7553 1.50873 12.5613 1.66978 11.4122 1.988C10.2741 2.30317 9.1976 2.75536 8.1863 3.34455C7.17304 3.93488 6.25758 4.64649 5.44362 5.47815C4.6431 6.29608 3.94659 7.19727 3.35539 8.17971C2.7514 9.1834 2.29194 10.2635 1.9755 11.415C1.65733 12.5728 1.5 13.7692 1.5 15H1.49996L1.50004 15.0106C1.50873 16.2447 1.66978 17.4387 1.988 18.5878C2.30317 19.7259 2.75536 20.8024 3.34455 21.8137C3.93488 22.827 4.64649 23.7424 5.47815 24.5564C6.29608 25.3569 7.19727 26.0534 8.17971 26.6446C9.1834 27.2486 10.2635 27.7081 11.415 28.0245C12.5728 28.3427 13.7692 28.5 15 28.5V28.5L15.0106 28.5C16.2447 28.4913 17.4387 28.3302 18.5878 28.012C19.7259 27.6968 20.8024 27.2446 21.8137 26.6555C22.827 26.0651 23.7424 25.3535 24.5564 24.5219C25.3569 23.7039 26.0534 22.8027 26.6446 21.8203C27.2486 20.8166 27.7081 19.7365 28.0245 18.585C28.3427 17.4272 28.5 16.2308 28.5 15H28.5L28.5 14.9894C28.4913 13.7553 28.3302 12.5613 28.012 11.4122C27.6968 10.2741 27.2446 9.1976 26.6555 8.1863C26.0651 7.17304 25.3535 6.25758 24.5219 5.44362C23.7039 4.6431 22.8027 3.94659 21.8203 3.35539C20.8166 2.7514 19.7365 2.29194 18.585 1.9755C17.4272 1.65733 16.2308 1.5 15 1.5Z"
        stroke="#EF4444" stroke-opacity="0.2" stroke-width="3" />
</svg>