<svg width="24" height="30" viewBox="0 0 24 30" fill="none" xmlns="http://www.w3.org/2000/svg">
    <rect width="24" height="30" />
    <path
        d="M13 12C13.6426 12 14.2624 12.082 14.8594 12.2461C15.4564 12.4102 16.0124 12.6471 16.5273 12.957C17.0423 13.2669 17.514 13.6315 17.9424 14.0508C18.3708 14.4701 18.7376 14.9417 19.043 15.4658C19.3483 15.9899 19.583 16.5482 19.7471 17.1406C19.9111 17.7331 19.9954 18.3529 20 19C20 19.6426 19.918 20.2624 19.7539 20.8594C19.5898 21.4564 19.3529 22.0124 19.043 22.5273C18.7331 23.0423 18.3685 23.514 17.9492 23.9424C17.5299 24.3708 17.0583 24.7376 16.5342 25.043C16.0101 25.3483 15.4518 25.583 14.8594 25.7471C14.2669 25.9111 13.6471 25.9954 13 26C12.3574 26 11.7376 25.918 11.1406 25.7539C10.5436 25.5898 9.98763 25.3529 9.47266 25.043C8.95768 24.7331 8.486 24.3685 8.05762 23.9492C7.62923 23.5299 7.26237 23.0583 6.95703 22.5342C6.65169 22.0101 6.41699 21.4518 6.25293 20.8594C6.08887 20.2669 6.00456 19.6471 6 19C6 18.3574 6.08203 17.7376 6.24609 17.1406C6.41016 16.5436 6.64714 15.9876 6.95703 15.4727C7.26693 14.9577 7.63151 14.486 8.05078 14.0576C8.47005 13.6292 8.94173 13.2624 9.46582 12.957C9.98991 12.6517 10.5482 12.417 11.1406 12.2529C11.7331 12.0889 12.3529 12.0046 13 12ZM13.7725 19L16.1104 16.6621L15.3379 15.8896L13 18.2275L10.6621 15.8896L9.88965 16.6621L12.2275 19L9.88965 21.3379L10.6621 22.1104L13 19.7725L15.3379 22.1104L16.1104 21.3379L13.7725 19Z"
        fill="#EF4444" />
    <path
        d="M13 10.5V10.5L12.9894 10.5C12.2175 10.5055 11.4662 10.6063 10.7403 10.8073C10.0254 11.0053 9.34766 11.2899 8.71071 11.661C8.0718 12.0332 7.49326 12.4828 6.97878 13.0084C6.47773 13.5204 6.04165 14.0846 5.6718 14.6992C5.28916 15.3351 4.99897 16.0181 4.79972 16.7431C4.59874 17.4745 4.5 18.2282 4.5 19H4.49996L4.50004 19.0106C4.50547 19.7825 4.60631 20.5338 4.80733 21.2597C5.00532 21.9746 5.28986 22.6523 5.66095 23.2893C6.03319 23.9282 6.48276 24.5067 7.00842 25.0212C7.52036 25.5223 8.08464 25.9584 8.69924 26.3282C9.33509 26.7108 10.0181 27.001 10.7431 27.2003C11.4745 27.4013 12.2282 27.5 13 27.5V27.5L13.0106 27.5C13.7825 27.4945 14.5338 27.3937 15.2597 27.1927C15.9746 26.9947 16.6523 26.7101 17.2893 26.339C17.9282 25.9668 18.5067 25.5172 19.0212 24.9916C19.5223 24.4796 19.9584 23.9154 20.3282 23.3008C20.7108 22.6649 21.001 21.9819 21.2003 21.2569C21.4013 20.5255 21.5 19.7718 21.5 19H21.5L21.5 18.9894C21.4945 18.2175 21.3937 17.4662 21.1927 16.7403C20.9947 16.0254 20.7101 15.3477 20.339 14.7107C19.9668 14.0718 19.5172 13.4933 18.9916 12.9788C18.4796 12.4777 17.9154 12.0416 17.3008 11.6718C16.6649 11.2892 15.9819 10.999 15.2569 10.7997C14.5255 10.5987 13.7718 10.5 13 10.5Z"
        stroke="#EF4444" stroke-opacity="0.2" stroke-width="3" />
    <path fill-rule="evenodd" clip-rule="evenodd"
        d="M7.55912 0C7.27269 8.53845e-05 6.99802 0.114606 6.79553 0.318375L0.316192 6.83577C0.215929 6.93665 0.136401 7.05639 0.0821485 7.18818C0.0278961 7.31997 -1.81238e-05 7.46121 8.82831e-09 7.60385V20.6386C8.82831e-09 21.5029 0.341321 22.3318 0.948877 22.9429C1.55643 23.554 2.38046 23.8973 3.23967 23.8973H4.31945C4.46285 23.8998 4.6053 23.8736 4.7385 23.8201C4.8717 23.7667 4.99298 23.687 5.09526 23.5859C5.19755 23.4848 5.27879 23.3642 5.33424 23.2312C5.3897 23.0981 5.41826 22.9553 5.41826 22.8111C5.41826 22.6668 5.3897 22.524 5.33424 22.391C5.27879 22.2579 5.19755 22.1373 5.09526 22.0362C4.99298 21.9351 4.8717 21.8555 4.7385 21.802C4.6053 21.7485 4.46285 21.7223 4.31945 21.7248H3.23967C2.95329 21.7248 2.67865 21.6103 2.47615 21.4067C2.27365 21.203 2.15989 20.9267 2.15989 20.6386V8.68997H7.55912C7.84553 8.68997 8.12021 8.57555 8.32276 8.37188C8.52531 8.1682 8.63914 7.89194 8.63923 7.60385V2.17258H16.1983C16.4847 2.17258 16.7594 2.28701 16.9619 2.49069C17.1644 2.69438 17.2781 2.97064 17.2781 3.2587V10.8626C17.283 11.1474 17.399 11.4189 17.601 11.6186C17.803 11.8183 18.0748 11.9302 18.3581 11.9302C18.6413 11.9302 18.9132 11.8183 19.1152 11.6186C19.3172 11.4189 19.4331 11.1474 19.438 10.8626V3.2587C19.438 2.39444 19.0967 1.56558 18.4891 0.954451C17.8816 0.343326 17.0576 0 16.1983 0H7.55912ZM6.47934 6.5174H3.68707L6.47934 3.70873V6.5174ZM9.58488 24C9.58694 23.9972 9.58933 23.9947 9.59201 23.9925C9.58979 23.9951 9.58741 23.9976 9.58488 24ZM14.1042 12.3664C14.1042 12.3648 14.1042 12.3642 14.1042 12.3642C14.1042 12.3642 14.1042 12.3658 14.1042 12.3697C14.1045 12.3681 14.1042 12.3668 14.1042 12.3661V12.3664Z"
        fill="black" />
</svg>