<svg width="25" height="24" viewBox="0 0 25 24" fill="none" xmlns="http://www.w3.org/2000/svg">
<g id="Frame">
<path id="Vector" d="M17.2362 8.29921C17.2756 8.46982 17.2428 8.6273 17.1378 8.77165C17.0328 8.91601 16.895 9.00131 16.7244 9.02756C16.5538 9.05381 16.3963 9.01772 16.252 8.91929C16.1076 8.82087 16.0223 8.68635 15.9961 8.51575C15.7205 7.01968 14.9888 5.76969 13.8012 4.76575C12.6135 3.76181 11.1864 3.25984 9.51968 3.25984C7.85302 3.25984 6.39304 3.88648 5.13976 5.13976C3.88648 6.39304 3.25984 7.85958 3.25984 9.53937C3.25984 11.2192 3.76837 12.6562 4.78543 13.8504C5.80249 15.0446 7.07874 15.7664 8.61417 16.0157C8.85039 16.0682 9.00787 16.206 9.08661 16.4291C9.20472 16.731 9.13255 16.9738 8.87008 17.1575C8.72572 17.2625 8.56824 17.3018 8.39764 17.2756C6.56037 16.9606 5.03478 16.0912 3.82087 14.6673C2.60696 13.2434 2 11.5801 2 9.67717C2 8.28609 2.34777 6.99344 3.04331 5.79921C3.38451 5.23491 3.84711 4.65748 4.4311 4.06693C5.01509 3.47638 5.77625 2.98425 6.71457 2.59055C7.65289 2.19685 8.64042 2 9.67717 2C11.5538 2 13.2008 2.59711 14.6181 3.79134C16.0354 4.98556 16.9081 6.48819 17.2362 8.29921ZM13.0039 6.03543L8.73228 10.2874L6.56693 8.53543C6.44882 8.44357 6.3832 8.32218 6.37008 8.17126C6.35696 8.02034 6.39961 7.88583 6.49803 7.76772C6.59646 7.64961 6.72113 7.58071 6.87205 7.56102C7.02297 7.54134 7.15748 7.57743 7.27559 7.66929L8.65354 8.81102L12.2165 5.24803C12.3215 5.14304 12.4528 5.09055 12.6102 5.09055C12.7677 5.09055 12.8989 5.14633 13.0039 5.25787C13.1089 5.36942 13.1614 5.50066 13.1614 5.65157C13.1614 5.80249 13.1089 5.93045 13.0039 6.03543ZM12.3937 9.30315C12.4987 9.18504 12.6266 9.12598 12.7776 9.12598C12.9285 9.12598 13.0597 9.18176 13.1713 9.29331C13.2828 9.40486 13.3386 9.53609 13.3386 9.68701C13.3386 9.83793 13.2861 9.96588 13.1811 10.0709L8.92913 14.3425L6.74409 12.5709C6.62598 12.479 6.56037 12.3576 6.54724 12.2067C6.53412 12.0558 6.57677 11.9213 6.6752 11.8031C6.77362 11.685 6.89829 11.6194 7.04921 11.6063C7.20013 11.5932 7.33465 11.6325 7.45276 11.7244L8.85039 12.8661L12.3937 9.30315ZM16.7047 14.7756C17.2034 14.7756 17.6299 14.9528 17.9843 15.3071C18.3386 15.6614 18.5157 16.0748 18.5157 16.5472C18.5157 17.0197 18.3451 17.4429 18.0039 17.8169C17.6627 18.1909 17.2362 18.378 16.7244 18.378C16.2126 18.378 15.7762 18.2073 15.4154 17.8661C15.0545 17.5249 14.874 17.0919 14.874 16.5669C14.874 16.042 15.0479 15.6056 15.3957 15.2579C15.7434 14.9101 16.1798 14.7362 16.7047 14.7362V14.7756ZM17.5906 17.4429C17.8399 17.187 17.9613 16.895 17.9547 16.5669C17.9482 16.2388 17.8268 15.9501 17.5906 15.7008C17.3543 15.4514 17.0656 15.3268 16.7244 15.3268C16.3832 15.3268 16.0846 15.4482 15.8287 15.6909C15.5728 15.9337 15.4449 16.2257 15.4449 16.5669C15.4449 16.9081 15.5696 17.2034 15.8189 17.4528C16.0682 17.7021 16.3635 17.8268 16.7047 17.8268C17.0459 17.8268 17.3412 17.6988 17.5906 17.4429ZM21.9409 16.1339L22 17.0394C22 17.1837 21.9475 17.3117 21.8425 17.4232C21.7375 17.5348 21.6129 17.6168 21.4685 17.6693L20.4646 17.8661C20.4252 17.9711 20.3727 18.1155 20.3071 18.2992L20.8583 19.1457C21.042 19.4606 21.0092 19.7428 20.7598 19.9921L20.1496 20.622C20.0052 20.7533 19.8576 20.8189 19.7067 20.8189C19.5558 20.8189 19.4213 20.7795 19.3032 20.7008L18.4567 20.1299C18.2992 20.1955 18.1549 20.248 18.0236 20.2874L17.8268 21.311C17.748 21.6654 17.5381 21.8425 17.1969 21.8425H16.2913C15.9501 21.8425 15.7402 21.6654 15.6614 21.311L15.4646 20.2874C15.3465 20.2612 15.2021 20.2087 15.0315 20.1299L14.1654 20.6811C14.0735 20.773 13.9455 20.8189 13.7815 20.8189C13.6175 20.8189 13.4698 20.7467 13.3386 20.6024L12.7283 19.9921C12.4659 19.7297 12.4331 19.4475 12.6299 19.1457L13.1811 18.2992C13.1155 18.1286 13.063 17.9843 13.0236 17.8661L12.0197 17.6496C11.6654 17.5709 11.4882 17.3609 11.4882 17.0197V16.1339C11.4882 15.9764 11.5374 15.8419 11.6358 15.7303C11.7343 15.6188 11.8622 15.5433 12.0197 15.5039L13.0039 15.2874C13.0433 15.1824 13.0958 15.0446 13.1614 14.874L12.6102 14.0079C12.4265 13.6929 12.4593 13.4108 12.7087 13.1614L13.3189 12.5512C13.4633 12.4068 13.6142 12.3346 13.7717 12.3346C13.9291 12.3346 14.0604 12.3806 14.1654 12.4724L15.0118 13.0236C15.0774 12.9711 15.2218 12.9186 15.4449 12.8661L15.6417 11.8425C15.7205 11.4882 15.9304 11.311 16.2717 11.311H17.1181C17.4331 11.311 17.643 11.4882 17.748 11.8425L17.9646 12.8661C18.1877 12.9318 18.3255 12.9843 18.378 13.0236L19.2441 12.4724C19.3622 12.3806 19.4967 12.3346 19.6476 12.3346C19.7986 12.3346 19.9396 12.4068 20.0709 12.5512L20.7008 13.1614C20.9501 13.4239 20.9764 13.706 20.7795 14.0079L20.2283 14.874C20.294 14.9659 20.3465 15.1037 20.3858 15.2874L21.4094 15.5039C21.5407 15.5302 21.6621 15.5991 21.7736 15.7106C21.8852 15.8222 21.9409 15.9633 21.9409 16.1339ZM20.0315 17.1772L20.9173 17V16.1732L19.9724 15.9764C19.7493 15.937 19.6115 15.8484 19.5591 15.7106C19.5066 15.5728 19.4442 15.4219 19.372 15.2579C19.2999 15.0938 19.3163 14.9068 19.4213 14.6969L19.9724 13.8898L19.4016 13.2992L18.5945 13.8504C18.5026 13.916 18.4042 13.9488 18.2992 13.9488C18.1942 13.9488 18.086 13.9259 17.9744 13.8799C17.8629 13.834 17.7382 13.7848 17.6004 13.7323C17.4626 13.6798 17.3675 13.542 17.315 13.3189L17.1181 12.3937H16.311L16.1142 13.3189C16.0748 13.542 15.9829 13.6798 15.8386 13.7323C15.6942 13.7848 15.5663 13.834 15.4547 13.8799C15.3432 13.9259 15.2415 13.9488 15.1496 13.9488C15.0577 13.9488 14.9528 13.916 14.8346 13.8504L14.0276 13.2992L13.437 13.8898L13.9882 14.6969C14.1194 14.8806 14.1325 15.0709 14.0276 15.2677C14.0013 15.3071 13.9488 15.4252 13.8701 15.622C13.7913 15.8189 13.6404 15.937 13.4173 15.9764L12.4921 16.1732V17L13.437 17.1772C13.6601 17.2297 13.811 17.3543 13.8898 17.5512C13.9554 17.7218 14.021 17.876 14.0866 18.0138C14.1522 18.1516 14.126 18.3058 14.0079 18.4764L13.4567 19.2835L14.0276 19.874L14.8346 19.3228C14.9396 19.2572 15.0479 19.2244 15.1594 19.2244C15.271 19.2244 15.3465 19.2343 15.3858 19.2539C15.4252 19.2736 15.5564 19.3228 15.7795 19.4016C15.9764 19.4934 16.1011 19.6509 16.1535 19.874L16.3307 20.7992H17.1575L17.3543 19.874C17.3937 19.6509 17.5118 19.4934 17.7087 19.4016C17.8661 19.3491 17.981 19.3064 18.0532 19.2736C18.1253 19.2408 18.2172 19.2244 18.3287 19.2244C18.4403 19.2244 18.5354 19.2572 18.6142 19.3228L19.4213 19.874L20.0118 19.2835L19.4606 18.4764C19.3425 18.2795 19.3228 18.0958 19.4016 17.9252C19.4803 17.7546 19.5328 17.6299 19.5591 17.5512C19.6509 17.3543 19.8084 17.2297 20.0315 17.1772Z" fill="#3B82F6"/>
</g>
</svg>
