<svg width="16" height="16" viewBox="0 0 16 16" fill="none" xmlns="http://www.w3.org/2000/svg">
    <path
        d="M14.875 2.80769H11.75V2.23077C11.75 1.77174 11.5525 1.33151 11.2008 1.00693C10.8492 0.682348 10.3723 0.5 9.875 0.5H6.125C5.62772 0.5 5.15081 0.682348 4.79917 1.00693C4.44754 1.33151 4.25 1.77174 4.25 2.23077V2.80769H1.125C0.95924 2.80769 0.800269 2.86848 0.683058 2.97667C0.565848 3.08486 0.5 3.23161 0.5 3.38462C0.5 3.53762 0.565848 3.68437 0.683058 3.79256C0.800269 3.90076 0.95924 3.96154 1.125 3.96154H1.75V14.3462C1.75 14.6522 1.8817 14.9457 2.11612 15.162C2.35054 15.3784 2.66848 15.5 3 15.5H13C13.3315 15.5 13.6495 15.3784 13.8839 15.162C14.1183 14.9457 14.25 14.6522 14.25 14.3462V3.96154H14.875C15.0408 3.96154 15.1997 3.90076 15.3169 3.79256C15.4342 3.68437 15.5 3.53762 15.5 3.38462C15.5 3.23161 15.4342 3.08486 15.3169 2.97667C15.1997 2.86848 15.0408 2.80769 14.875 2.80769ZM5.5 2.23077C5.5 2.07776 5.56585 1.93102 5.68306 1.82282C5.80027 1.71463 5.95924 1.65385 6.125 1.65385H9.875C10.0408 1.65385 10.1997 1.71463 10.3169 1.82282C10.4342 1.93102 10.5 2.07776 10.5 2.23077V2.80769H5.5V2.23077ZM13 14.3462H3V3.96154H13V14.3462ZM6.75 6.84615V11.4615C6.75 11.6145 6.68415 11.7613 6.56694 11.8695C6.44973 11.9777 6.29076 12.0385 6.125 12.0385C5.95924 12.0385 5.80027 11.9777 5.68306 11.8695C5.56585 11.7613 5.5 11.6145 5.5 11.4615V6.84615C5.5 6.69314 5.56585 6.5464 5.68306 6.43821C5.80027 6.33001 5.95924 6.26923 6.125 6.26923C6.29076 6.26923 6.44973 6.33001 6.56694 6.43821C6.68415 6.5464 6.75 6.69314 6.75 6.84615ZM10.5 6.84615V11.4615C10.5 11.6145 10.4342 11.7613 10.3169 11.8695C10.1997 11.9777 10.0408 12.0385 9.875 12.0385C9.70924 12.0385 9.55027 11.9777 9.43306 11.8695C9.31585 11.7613 9.25 11.6145 9.25 11.4615V6.84615C9.25 6.69314 9.31585 6.5464 9.43306 6.43821C9.55027 6.33001 9.70924 6.26923 9.875 6.26923C10.0408 6.26923 10.1997 6.33001 10.3169 6.43821C10.4342 6.5464 10.5 6.69314 10.5 6.84615Z"
        fill="#545454" />
</svg>