<svg width="21" height="21" viewBox="0 0 21 21" fill="none" xmlns="http://www.w3.org/2000/svg" color="#33B843">
    <path
        d="M10.5 3.5C14.3661 3.5 17.5 6.6339 17.5 10.5C17.5 14.3661 14.3661 17.5 10.5 17.5C6.6339 17.5 3.5 14.3661 3.5 10.5C3.5 6.6339 6.6339 3.5 10.5 3.5ZM12.9745 7.9667L9.5095 11.4317L8.0255 9.947C7.96051 9.88196 7.88334 9.83036 7.79841 9.79515C7.71348 9.75993 7.62244 9.74179 7.5305 9.74176C7.34481 9.74169 7.1667 9.81539 7.03535 9.94665C6.904 10.0779 6.83017 10.256 6.83011 10.4417C6.83004 10.6273 6.90374 10.8055 7.035 10.9368L8.9656 12.8674C9.03711 12.9389 9.12201 12.9957 9.21545 13.0344C9.30889 13.0731 9.40905 13.0931 9.5102 13.0931C9.61135 13.0931 9.71151 13.0731 9.80495 13.0344C9.89839 12.9957 9.98329 12.9389 10.0548 12.8674L13.965 8.9572C14.0963 8.82585 14.1701 8.64771 14.1701 8.46195C14.1701 8.2762 14.0963 8.09805 13.965 7.9667C13.8337 7.83535 13.6555 7.76156 13.4698 7.76156C13.284 7.76156 13.1058 7.83535 12.9745 7.9667Z"
        fill="currentColor" />
    <path
        d="M19 10.5C19 5.80547 15.1945 2 10.5 2C5.80547 2 2 5.80547 2 10.5C2 15.1945 5.80547 19 10.5 19C15.1945 19 19 15.1945 19 10.5Z"
        stroke="currentColor" stroke-opacity="0.2" stroke-width="3" />
</svg>