<svg xmlns="http://www.w3.org/2000/svg" width="70" height="52" viewBox="0 0 70 52" fill="none">
    <path
        d="M6.05172 8.745L17.2131 6.88477V40.7372L12.3018 41.7712C9.01306 42.4636 5.79705 40.3199 5.17081 37.0179L1.14319 15.7814C0.515988 12.4743 2.73148 9.29837 6.05172 8.745Z"
        fill="white" stroke="#3B82F6" stroke-width="2" />
    <path
        d="M63.9483 8.745L52.7869 6.88477V40.7372L57.6982 41.7712C60.9869 42.4636 64.203 40.3199 64.8292 37.0179L68.8568 15.7814C69.484 12.4743 67.2685 9.29837 63.9483 8.745Z"
        fill="white" stroke="#3B82F6" stroke-width="2" />
    <g filter="url(#filter0_dd_5981_24373)">
        <rect x="16.0664" width="37.8689" height="44.7541" rx="6" fill="white" />
        <rect x="17.0664" y="1" width="35.8689" height="42.7541" rx="5" stroke="#3B82F6" stroke-width="2" />
    </g>
    <path
        d="M47.9353 43.7546H22.0664C19.305 43.7546 17.0664 41.516 17.0664 38.7546L17.0664 35.2935L29.4732 22.1457L38.9834 33.0896C39.7841 34.011 41.2162 34.0064 42.011 33.0799L47.2464 26.977L52.9353 33.0984V38.7546C52.9353 41.516 50.6967 43.7546 47.9353 43.7546Z"
        fill="#EFF6FF" stroke="#3B82F6" stroke-width="2" />
    <circle cx="39.5897" cy="14.3436" r="4.16393" fill="#EFF6FF" stroke="#3B82F6" stroke-width="2" />
    <defs>
        <filter id="filter0_dd_5981_24373" x="13.0664" y="0" width="43.8691" height="51.7539"
            filterUnits="userSpaceOnUse" color-interpolation-filters="sRGB">
            <feFlood flood-opacity="0" result="BackgroundImageFix" />
            <feColorMatrix in="SourceAlpha" type="matrix" values="0 0 0 0 0 0 0 0 0 0 0 0 0 0 0 0 0 0 127 0"
                result="hardAlpha" />
            <feOffset dy="2" />
            <feGaussianBlur stdDeviation="1" />
            <feComposite in2="hardAlpha" operator="out" />
            <feColorMatrix type="matrix" values="0 0 0 0 0 0 0 0 0 0 0 0 0 0 0 0 0 0 0.06 0" />
            <feBlend mode="normal" in2="BackgroundImageFix" result="effect1_dropShadow_5981_24373" />
            <feColorMatrix in="SourceAlpha" type="matrix" values="0 0 0 0 0 0 0 0 0 0 0 0 0 0 0 0 0 0 127 0"
                result="hardAlpha" />
            <feOffset dy="4" />
            <feGaussianBlur stdDeviation="1.5" />
            <feComposite in2="hardAlpha" operator="out" />
            <feColorMatrix type="matrix" values="0 0 0 0 0 0 0 0 0 0 0 0 0 0 0 0 0 0 0.07 0" />
            <feBlend mode="normal" in2="effect1_dropShadow_5981_24373" result="effect2_dropShadow_5981_24373" />
            <feBlend mode="normal" in="SourceGraphic" in2="effect2_dropShadow_5981_24373" result="shape" />
        </filter>
    </defs>
</svg>