<?xml version="1.0" encoding="UTF-8"?>
<!DOCTYPE svg PUBLIC "-//W3C//DTD SVG 1.1//EN" "http://www.w3.org/Graphics/SVG/1.1/DTD/svg11.dtd">
<svg xmlns="http://www.w3.org/2000/svg" version="1.1" width="512px" height="512px" viewBox="0 0 512 512"
    viewport="0 0 26 26"
    style="shape-rendering:geometricPrecision; text-rendering:geometricPrecision; image-rendering:optimizeQuality; fill-rule:evenodd; clip-rule:evenodd"
    xmlns:xlink="http://www.w3.org/1999/xlink">
    <g>
        <path style="opacity:0.934" fill="#0079ff"
            d="M 236.5,71.5 C 300.221,67.1167 353.387,88.45 396,135.5C 441.378,193.44 451.378,257.106 426,326.5C 396.126,391.544 345.626,429.044 274.5,439C 210.76,443.875 157.594,422.708 115,375.5C 69.6225,317.56 59.6225,253.894 85,184.5C 115.097,119.53 165.597,81.8629 236.5,71.5 Z M 237.5,88.5 C 309.711,84.6826 364.544,113.349 402,174.5C 424.396,216.689 428.73,260.689 415,306.5C 390.643,372.85 343.476,411.35 273.5,422C 201.264,426.304 146.431,397.804 109,336.5C 86.6038,294.311 82.2704,250.311 96,204.5C 120.523,138.138 167.69,99.4716 237.5,88.5 Z" />
    </g>
    <g>
        <path style="opacity:0.963" fill="#027aff"
            d="M 239.5,119.5 C 298.016,115.84 342.85,138.506 374,187.5C 392.7,221.841 396.7,257.841 386,295.5C 366.982,350.177 328.815,382.01 271.5,391C 212.961,395.148 168.128,372.648 137,323.5C 118.3,289.159 114.3,253.159 125,215.5C 144.185,160.811 182.352,128.811 239.5,119.5 Z" />
    </g>
    <g>
        <path style="opacity:1" fill="#cbe3ff"
            d="M 241.5,135.5 C 292.17,132.751 331.337,152.418 359,194.5C 383.585,241.441 380.585,286.441 350,329.5C 321.8,363.353 285.633,378.52 241.5,375C 190.585,366.137 156.751,337.303 140,288.5C 127.029,230.39 145.195,184.89 194.5,152C 209.342,143.777 225.008,138.277 241.5,135.5 Z" />
    </g>
    <g>
        <path style="opacity:1" fill="#097cff"
            d="M 204.5,199.5 C 207.893,199.062 210.893,199.895 213.5,202C 227.347,216.014 241.347,229.847 255.5,243.5C 269.653,229.847 283.653,216.014 297.5,202C 304.685,197.473 309.351,199.307 311.5,207.5C 311.378,209.791 310.545,211.791 309,213.5C 294.986,227.347 281.153,241.347 267.5,255.5C 281.153,269.653 294.986,283.653 309,297.5C 313.527,304.685 311.693,309.351 303.5,311.5C 301.209,311.378 299.209,310.545 297.5,309C 283.653,294.986 269.653,281.153 255.5,267.5C 241.347,281.153 227.347,294.986 213.5,309C 206.315,313.527 201.649,311.693 199.5,303.5C 199.622,301.209 200.455,299.209 202,297.5C 216.014,283.653 229.847,269.653 243.5,255.5C 228.818,240.652 214.318,225.652 200,210.5C 199.333,208.5 199.333,206.5 200,204.5C 201.366,202.638 202.866,200.972 204.5,199.5 Z" />
    </g>
</svg>