<svg width="22" height="14" viewBox="0 0 22 14" fill="none" xmlns="http://www.w3.org/2000/svg">
    <path
        d="M22 12.3293V1.5293C22 0.977012 21.5523 0.529297 21 0.529297L1.78 0.529297C1.22771 0.529297 0.779999 0.977012 0.779999 1.5293V12.3293C0.779999 12.8816 1.22771 13.3293 1.78 13.3293L21 13.3293C21.5523 13.3293 22 12.8816 22 12.3293Z"
        fill="#00B4EA" />
    <path
        d="M21.1992 0.529321H1.49922C1.28704 0.529321 1.08356 0.613607 0.933533 0.763636C0.783504 0.913665 0.699219 1.11715 0.699219 1.32932V4.32932H21.9992V1.22932C21.9747 1.03492 21.8798 0.856262 21.7323 0.727236C21.5848 0.598209 21.3951 0.527785 21.1992 0.529321Z"
        fill="#F0BC61" />
    <path
        d="M6.56206 1.47057V2.96875H6.38064V1.47057H6.56206ZM7.38814 2.96875H6.92582V1.47057H7.40863C7.55396 1.47057 7.67832 1.50056 7.78171 1.56055C7.8851 1.62004 7.96435 1.70563 8.01946 1.81732C8.07457 1.92851 8.10212 2.06165 8.10212 2.21673C8.10212 2.37279 8.07432 2.50715 8.01873 2.61981C7.96313 2.73198 7.88217 2.8183 7.77586 2.87877C7.66954 2.93876 7.5403 2.96875 7.38814 2.96875ZM7.10724 2.80781H7.37644C7.50031 2.80781 7.60297 2.78392 7.68442 2.73612C7.76586 2.68833 7.82658 2.6203 7.86657 2.53202C7.90656 2.44375 7.92655 2.33866 7.92655 2.21673C7.92655 2.09579 7.9068 1.99166 7.8673 1.90437C7.8278 1.81658 7.76879 1.74928 7.69027 1.70246C7.61175 1.65516 7.51397 1.63151 7.39692 1.63151H7.10724V2.80781ZM10.1914 1.93875H10.01C9.99923 1.88657 9.98046 1.84072 9.95363 1.80122C9.9273 1.76172 9.89511 1.72856 9.85707 1.70173C9.81952 1.67442 9.77782 1.65394 9.73198 1.64028C9.68614 1.62663 9.63834 1.6198 9.5886 1.6198C9.49789 1.6198 9.41571 1.64272 9.34207 1.68857C9.26892 1.73441 9.21064 1.80195 9.16724 1.8912C9.12432 1.98045 9.10286 2.08993 9.10286 2.21966C9.10286 2.34938 9.12432 2.45887 9.16724 2.54812C9.21064 2.63737 9.26892 2.70491 9.34207 2.75075C9.41571 2.7966 9.49789 2.81952 9.5886 2.81952C9.63834 2.81952 9.68614 2.81269 9.73198 2.79903C9.77782 2.78538 9.81952 2.76514 9.85707 2.73832C9.89511 2.71101 9.9273 2.6776 9.95363 2.6381C9.98046 2.59811 9.99923 2.55226 10.01 2.50057H10.1914C10.1777 2.57714 10.1529 2.64566 10.1168 2.70613C10.0807 2.7666 10.0358 2.81805 9.98216 2.86048C9.92852 2.90242 9.86829 2.93437 9.80148 2.95631C9.73515 2.97826 9.66419 2.98923 9.5886 2.98923C9.46082 2.98923 9.34719 2.95802 9.2477 2.8956C9.14822 2.83317 9.06994 2.74441 9.01288 2.62932C8.95582 2.51422 8.92729 2.37767 8.92729 2.21966C8.92729 2.06165 8.95582 1.92509 9.01288 1.81C9.06994 1.69491 9.14822 1.60615 9.2477 1.54372C9.34719 1.4813 9.46082 1.45009 9.5886 1.45009C9.66419 1.45009 9.73515 1.46106 9.80148 1.483C9.86829 1.50495 9.92852 1.53714 9.98216 1.57957C10.0358 1.62151 10.0807 1.67272 10.1168 1.73319C10.1529 1.79317 10.1777 1.8617 10.1914 1.93875ZM10.546 2.96875H10.3558L10.9059 1.47057H11.0932L11.6433 2.96875H11.4531L11.0054 1.70759H10.9937L10.546 2.96875ZM10.6162 2.38352H11.3829V2.54446H10.6162V2.38352ZM11.8767 2.96875V1.47057H12.3829C12.4999 1.47057 12.596 1.49056 12.6711 1.53055C12.7462 1.57006 12.8018 1.62443 12.8379 1.69369C12.874 1.76294 12.892 1.8417 12.892 1.92997C12.892 2.01824 12.874 2.09652 12.8379 2.16479C12.8018 2.23307 12.7464 2.28672 12.6718 2.32573C12.5972 2.36426 12.5019 2.38352 12.3858 2.38352H11.9761V2.21966H12.38C12.4599 2.21966 12.5243 2.20795 12.5731 2.18455C12.6223 2.16114 12.6579 2.12797 12.6799 2.08506C12.7023 2.04165 12.7135 1.98996 12.7135 1.92997C12.7135 1.86999 12.7023 1.81756 12.6799 1.77269C12.6574 1.72782 12.6216 1.6932 12.5723 1.66881C12.5231 1.64394 12.458 1.63151 12.377 1.63151H12.0581V2.96875H11.8767ZM12.5819 2.29574L12.9505 2.96875H12.7399L12.377 2.29574H12.5819ZM13.6567 2.96875H13.1943V1.47057H13.6771C13.8225 1.47057 13.9468 1.50056 14.0502 1.56055C14.1536 1.62004 14.2329 1.70563 14.288 1.81732C14.3431 1.92851 14.3706 2.06165 14.3706 2.21673C14.3706 2.37279 14.3428 2.50715 14.2872 2.61981C14.2316 2.73198 14.1507 2.8183 14.0444 2.87877C13.9381 2.93876 13.8088 2.96875 13.6567 2.96875ZM13.3758 2.80781H13.645C13.7688 2.80781 13.8715 2.78392 13.9529 2.73612C14.0344 2.68833 14.0951 2.6203 14.1351 2.53202C14.1751 2.44375 14.1951 2.33866 14.1951 2.21673C14.1951 2.09579 14.1753 1.99166 14.1358 1.90437C14.0963 1.81658 14.0373 1.74928 13.9588 1.70246C13.8803 1.65516 13.7825 1.63151 13.6654 1.63151H13.3758V2.80781Z"
        fill="#F9F8F7" />
    <path
        d="M16.7985 10.3305C16.8051 9.95339 16.6783 9.58601 16.4405 9.29326C16.2026 9.00051 15.869 8.8012 15.4985 8.73054C15.6131 8.01217 15.4628 7.27662 15.0755 6.6608C14.6883 6.04499 14.0905 5.59086 13.3933 5.38295C12.6962 5.17504 11.9473 5.22751 11.286 5.5306C10.6247 5.83369 10.096 6.36674 9.79845 7.03054L9.09845 6.83054C8.64758 6.83054 8.21518 7.00964 7.89637 7.32845C7.57756 7.64727 7.39845 8.07967 7.39845 8.53054C7.05429 8.61866 6.74924 8.81882 6.53139 9.09946C6.31355 9.3801 6.19531 9.72527 6.19531 10.0805C6.19531 10.4358 6.31355 10.781 6.53139 11.0616C6.74924 11.3423 7.05429 11.5424 7.39845 11.6305H15.4985C15.8225 11.5738 16.1212 11.4185 16.3538 11.1859C16.5864 10.9533 16.7417 10.6546 16.7985 10.3305Z"
        fill="white" />
    <path
        d="M15.5992 11.4293H15.8992C15.9992 11.3293 16.2992 11.1293 16.1992 11.0293L15.6992 10.5293H15.5992L15.3992 10.8293H15.1992L15.3992 11.1293L15.5992 11.4293Z"
        fill="#737B7F" />
    <path
        d="M15.0017 10.3297C14.9929 10.3449 14.9883 10.3621 14.9883 10.3797C14.9883 10.3972 14.9929 10.4145 15.0017 10.4297H15.4017L15.6017 10.1297V9.92969H15.4017C15.4017 9.92969 15.5017 10.0297 15.3017 10.1297C15.1017 10.2297 15.0017 10.3297 15.0017 10.3297Z"
        fill="#737B7F" />
    <path
        d="M14.5 9.23047L14.9 9.73047H15V9.83047H14.9L14.5 9.33047C14.5808 9.48401 14.6156 9.65765 14.6 9.83047L15.1 10.3305H15.3C15.4 10.2305 15.4 10.1305 15.4 10.1305L15 9.53047H14.9L14.6 9.33047"
        fill="#D2BA42" />
    <path d="M8.8 9.62891H8V9.92891H8.8V9.62891Z" fill="#00A4CF" />
    <path d="M8.90078 9.33008H8.30078V9.47008H8.90078V9.33008Z" fill="#00A4CF" />
    <path
        d="M10.3498 9.60938H9.13986V9.32743H10.3498C10.5007 9.32743 10.5851 9.24307 10.5851 9.11653C10.5851 8.97889 10.5007 8.90785 10.3498 8.90785H9.60828C9.30414 8.90785 9.11544 8.71471 9.11544 8.44831C9.11544 8.18857 9.29082 7.99543 9.61272 7.99543H10.7716V8.27737H9.61272C9.48396 8.27737 9.40848 8.35285 9.40848 8.47495C9.40848 8.59705 9.48618 8.67031 9.6105 8.67031H10.3498C10.6761 8.67031 10.8515 8.82349 10.8515 9.13651C10.8515 9.40735 10.6872 9.60938 10.3498 9.60938Z"
        fill="#00A7D7" />
    <path d="M11.1545 10.5293H10.9894V9.5842H11.1545V10.5293Z" fill="#00A7D7" />
    <path
        d="M12.4826 10.5293H11.9119C11.648 10.5293 11.453 10.3213 11.453 10.047C11.453 9.7688 11.648 9.5842 11.9119 9.5842H12.4241V9.7493H11.9119C11.7429 9.7493 11.6181 9.8754 11.6181 10.0548C11.6181 10.2329 11.7416 10.3642 11.9119 10.3642H12.3162V10.1185H11.8898V9.9794H12.4826V10.5293Z"
        fill="#00A7D7" />
    <path
        d="M13.5988 10.5059L12.9345 9.8377V10.5293H12.7772V9.6713C12.7772 9.6102 12.8097 9.5725 12.8617 9.5725C12.8864 9.5725 12.9072 9.5816 12.9319 9.6063L13.5988 10.268V9.5764H13.7561V10.4422C13.7561 10.5046 13.7223 10.541 13.6742 10.541C13.6469 10.541 13.6222 10.5293 13.5988 10.5059Z"
        fill="#00A7D7" />
</svg>