<svg width="16" height="17" viewBox="0 0 16 17" fill="none" xmlns="http://www.w3.org/2000/svg">
<path d="M3.9974 15.168C3.63073 15.168 3.31673 15.0373 3.0554 14.776C2.79406 14.5146 2.66362 14.2009 2.66406 13.8346V7.16797C2.66406 6.8013 2.79473 6.4873 3.05606 6.22597C3.3174 5.96464 3.63117 5.83419 3.9974 5.83464H4.66406V4.5013C4.66406 3.57908 4.98917 2.79286 5.6394 2.14264C6.28962 1.49241 7.07562 1.16752 7.9974 1.16797C8.91962 1.16797 9.70584 1.49308 10.3561 2.1433C11.0063 2.79352 11.3312 3.57952 11.3307 4.5013V5.83464H11.9974C12.3641 5.83464 12.6781 5.9653 12.9394 6.22664C13.2007 6.48797 13.3312 6.80175 13.3307 7.16797V13.8346C13.3307 14.2013 13.2001 14.5153 12.9387 14.7766C12.6774 15.038 12.3636 15.1684 11.9974 15.168H3.9974ZM7.9974 11.8346C8.36406 11.8346 8.67806 11.704 8.9394 11.4426C9.20073 11.1813 9.33117 10.8675 9.33073 10.5013C9.33073 10.1346 9.20006 9.82064 8.93873 9.5593C8.6774 9.29797 8.36362 9.16752 7.9974 9.16797C7.63073 9.16797 7.31673 9.29864 7.0554 9.55997C6.79406 9.8213 6.66362 10.1351 6.66406 10.5013C6.66406 10.868 6.79473 11.182 7.05606 11.4433C7.3174 11.7046 7.63117 11.8351 7.9974 11.8346ZM5.9974 5.83464H9.9974V4.5013C9.9974 3.94575 9.80295 3.47352 9.41406 3.08464C9.02517 2.69575 8.55295 2.5013 7.9974 2.5013C7.44184 2.5013 6.96962 2.69575 6.58073 3.08464C6.19184 3.47352 5.9974 3.94575 5.9974 4.5013V5.83464Z" fill="currentColor"/>
</svg>
