<svg width="16" height="16" viewBox="0 0 16 16" fill="none" xmlns="http://www.w3.org/2000/svg">
<g id="material-symbols:info">
<path id="Vector" d="M7.33398 11.334H8.66732V7.33398H7.33398V11.334ZM8.00065 6.00065C8.18954 6.00065 8.34798 5.93665 8.47598 5.80865C8.60398 5.68065 8.66776 5.52243 8.66732 5.33398C8.66732 5.1451 8.60332 4.98687 8.47532 4.85932C8.34732 4.73176 8.1891 4.66776 8.00065 4.66732C7.81176 4.66732 7.65354 4.73132 7.52598 4.85932C7.39843 4.98732 7.33443 5.14554 7.33398 5.33398C7.33398 5.52287 7.39798 5.68132 7.52598 5.80932C7.65398 5.93732 7.81221 6.0011 8.00065 6.00065ZM8.00065 14.6673C7.07843 14.6673 6.21176 14.4922 5.40065 14.142C4.58954 13.7918 3.88398 13.3169 3.28398 12.7173C2.68398 12.1173 2.2091 11.4118 1.85932 10.6007C1.50954 9.78954 1.33443 8.92287 1.33398 8.00065C1.33398 7.07843 1.5091 6.21176 1.85932 5.40065C2.20954 4.58954 2.68443 3.88398 3.28398 3.28398C3.88398 2.68398 4.58954 2.2091 5.40065 1.85932C6.21176 1.50954 7.07843 1.33443 8.00065 1.33398C8.92287 1.33398 9.78954 1.5091 10.6007 1.85932C11.4118 2.20954 12.1173 2.68443 12.7173 3.28398C13.3173 3.88398 13.7924 4.58954 14.1427 5.40065C14.4929 6.21176 14.6678 7.07843 14.6673 8.00065C14.6673 8.92287 14.4922 9.78954 14.142 10.6007C13.7918 11.4118 13.3169 12.1173 12.7173 12.7173C12.1173 13.3173 11.4118 13.7924 10.6007 14.1427C9.78954 14.4929 8.92287 14.6678 8.00065 14.6673Z" fill="#9E9C9C"/>
</g>
</svg>
