<svg width="25" height="24" viewBox="0 0 25 24" fill="none" xmlns="http://www.w3.org/2000/svg">
<g id="material-symbols:comment-outline">
<path id="Vector" d="M6.14062 14H18.1406V12H6.14062V14ZM6.14062 11H18.1406V9H6.14062V11ZM6.14062 8H18.1406V6H6.14062V8ZM22.1406 22L18.1406 18H4.14062C3.59063 18 3.11996 17.8043 2.72863 17.413C2.33729 17.0217 2.14129 16.5507 2.14062 16V4C2.14062 3.45 2.33663 2.97933 2.72863 2.588C3.12063 2.19667 3.59129 2.00067 4.14062 2H20.1406C20.6906 2 21.1616 2.196 21.5536 2.588C21.9456 2.98 22.1413 3.45067 22.1406 4V22ZM4.14062 16H18.9906L20.1406 17.125V4H4.14062V16Z" fill="#3B82F6"/>
</g>
</svg>
