<svg width="25" height="24" viewBox="0 0 25 24" fill="none" xmlns="http://www.w3.org/2000/svg">
<g id="material-symbols:csv">
<path id="Vector" d="M5.89062 15H8.89062V13.5H6.39062V10.5H8.89062V9H5.89062C5.60729 9 5.36996 9.096 5.17863 9.288C4.98729 9.48 4.89129 9.71733 4.89062 10V14C4.89062 14.2833 4.98663 14.521 5.17863 14.713C5.37063 14.905 5.60796 15.0007 5.89062 15ZM9.79062 15H12.7906C13.074 15 13.3116 14.904 13.5036 14.712C13.6956 14.52 13.7913 14.2827 13.7906 14V12.5C13.7906 12.2167 13.6946 11.954 13.5026 11.712C13.3106 11.47 13.0733 11.3493 12.7906 11.35H11.2906V10.5H13.7906V9H10.7906C10.5073 9 10.27 9.096 10.0786 9.288C9.88729 9.48 9.79129 9.71733 9.79062 10V11.5C9.79062 11.7833 9.88662 12.0377 10.0786 12.263C10.2706 12.4883 10.508 12.6007 10.7906 12.6H12.2906V13.5H9.79062V15ZM16.3906 15H17.8906L19.6406 9H18.1406L17.1406 12.45L16.1406 9H14.6406L16.3906 15ZM4.14062 20C3.59063 20 3.11996 19.8043 2.72863 19.413C2.33729 19.0217 2.14129 18.5507 2.14062 18V6C2.14062 5.45 2.33663 4.97933 2.72863 4.588C3.12063 4.19667 3.59129 4.00067 4.14062 4H20.1406C20.6906 4 21.1616 4.196 21.5536 4.588C21.9456 4.98 22.1413 5.45067 22.1406 6V18C22.1406 18.55 21.945 19.021 21.5536 19.413C21.1623 19.805 20.6913 20.0007 20.1406 20H4.14062Z" fill="#3B82F6"/>
</g>
</svg>
