<svg width="15" height="14" viewBox="0 0 15 14" fill="none" xmlns="http://www.w3.org/2000/svg">
<g id="material-symbols:edit-outline">
<rect x="0.140625" width="14" height="14" rx="7" fill="#357EEB"/>
<path id="Vector" d="M4.40666 9.73288H4.94288L8.24638 6.42466L7.71016 5.88767L4.40666 9.19589V9.73288ZM9.88377 5.86849L8.25596 4.25753L8.79218 3.72055C8.939 3.57352 9.1194 3.5 9.33338 3.5C9.54736 3.5 9.72763 3.57352 9.8742 3.72055L10.4104 4.25753C10.5572 4.40457 10.6338 4.58203 10.6402 4.78992C10.6466 4.99781 10.5764 5.17514 10.4296 5.32192L9.88377 5.86849ZM9.3284 6.43425L5.26844 10.5H3.64062V8.86986L7.70059 4.80411L9.3284 6.43425ZM7.97827 6.15616L7.71016 5.88767L8.24638 6.42466L7.97827 6.15616Z" fill="white"/>
</g>
</svg>
