<svg width="25" height="24" viewBox="0 0 25 24" fill="none" xmlns="http://www.w3.org/2000/svg">
<g id="mdi:email-edit-outline">
<path id="Vector" d="M19.2106 13.88L13.1406 19.94V22H15.2006L21.2606 15.93M22.8406 13.58L21.5606 12.3C21.5124 12.247 21.4538 12.2046 21.3884 12.1753C21.323 12.1461 21.2523 12.1306 21.1806 12.13C21.0306 12.14 20.8906 12.19 20.7906 12.3L19.7906 13.3L21.8406 15.3L22.8406 14.3C23.0306 14.1 23.0306 13.78 22.8406 13.58ZM11.1406 18H4.14062V8L12.1406 13L20.1406 8V10H22.1406V6C22.1406 4.9 21.2406 4 20.1406 4H4.14062C3.04062 4 2.14062 4.9 2.14062 6V18C2.14062 19.1 3.04062 20 4.14062 20H11.1406V18ZM20.1406 6L12.1406 11L4.14062 6H20.1406Z" fill="#3B82F6"/>
</g>
</svg>
