<svg width="25" height="25" viewBox="0 0 25 25" fill="none" xmlns="http://www.w3.org/2000/svg">
<g id="mdi:file-document-outline">
<path id="Vector" d="M6.66016 2.5C6.12972 2.5 5.62102 2.71071 5.24594 3.08579C4.87087 3.46086 4.66016 3.96957 4.66016 4.5V20.5C4.66016 21.0304 4.87087 21.5391 5.24594 21.9142C5.62102 22.2893 6.12972 22.5 6.66016 22.5H18.6602C19.1906 22.5 19.6993 22.2893 20.0744 21.9142C20.4494 21.5391 20.6602 21.0304 20.6602 20.5V8.5L14.6602 2.5H6.66016ZM6.66016 4.5H13.6602V9.5H18.6602V20.5H6.66016V4.5ZM8.66016 12.5V14.5H16.6602V12.5H8.66016ZM8.66016 16.5V18.5H13.6602V16.5H8.66016Z" fill="#1F2937"/>
</g>
</svg>
