<svg width="25" height="24" viewBox="0 0 25 24" fill="none" xmlns="http://www.w3.org/2000/svg">
<g id="mdi:user-help">
<path id="Vector" d="M13.1406 8C13.1406 9.06087 12.7192 10.0783 11.9691 10.8284C11.2189 11.5786 10.2015 12 9.14062 12C8.07976 12 7.06234 11.5786 6.3122 10.8284C5.56205 10.0783 5.14062 9.06087 5.14062 8C5.14062 6.93913 5.56205 5.92172 6.3122 5.17157C7.06234 4.42143 8.07976 4 9.14062 4C10.2015 4 11.2189 4.42143 11.9691 5.17157C12.7192 5.92172 13.1406 6.93913 13.1406 8ZM17.1406 18V20H1.14062V18C1.14062 15.79 4.72062 14 9.14062 14C13.5606 14 17.1406 15.79 17.1406 18ZM20.6406 14.5V16H19.1406V14.5H20.6406ZM18.6406 9.5H17.1406V9C17.1406 8.20435 17.4567 7.44129 18.0193 6.87868C18.5819 6.31607 19.345 6 20.1406 6C20.9363 6 21.6993 6.31607 22.2619 6.87868C22.8246 7.44129 23.1406 8.20435 23.1406 9C23.1406 9.97 22.6406 10.88 21.8506 11.41L21.5506 11.6C20.9806 12 20.6406 12.61 20.6406 13.3V13.5H19.1406V13.3C19.1406 12.11 19.7406 11 20.7306 10.35L21.0206 10.16C21.4106 9.9 21.6406 9.47 21.6406 9C21.6406 8.60218 21.4826 8.22064 21.2013 7.93934C20.92 7.65804 20.5385 7.5 20.1406 7.5C19.7428 7.5 19.3613 7.65804 19.08 7.93934C18.7987 8.22064 18.6406 8.60218 18.6406 9V9.5Z" fill="#3B82F6"/>
</g>
</svg>
