<svg width="16" height="16" viewBox="0 0 16 16" fill="none" xmlns="http://www.w3.org/2000/svg">
<g id="mi:delete">
<path id="Vector" d="M4.66634 2.66659C4.66634 2.31296 4.80682 1.97382 5.05687 1.72378C5.30691 1.47373 5.64605 1.33325 5.99967 1.33325H9.99967C10.3533 1.33325 10.6924 1.47373 10.9425 1.72378C11.1925 1.97382 11.333 2.31296 11.333 2.66659V3.99992H13.9997C14.1765 3.99992 14.3461 4.07016 14.4711 4.19518C14.5961 4.32021 14.6663 4.48977 14.6663 4.66659C14.6663 4.8434 14.5961 5.01297 14.4711 5.13799C14.3461 5.26301 14.1765 5.33325 13.9997 5.33325H13.287L12.709 13.4279C12.6851 13.7643 12.5345 14.0791 12.2878 14.309C12.041 14.5388 11.7162 14.6666 11.379 14.6666H4.61967C4.28243 14.6666 3.95772 14.5388 3.71093 14.309C3.46414 14.0791 3.31362 13.7643 3.28967 13.4279L2.71301 5.33325H1.99967C1.82286 5.33325 1.65329 5.26301 1.52827 5.13799C1.40325 5.01297 1.33301 4.8434 1.33301 4.66659C1.33301 4.48977 1.40325 4.32021 1.52827 4.19518C1.65329 4.07016 1.82286 3.99992 1.99967 3.99992H4.66634V2.66659ZM5.99967 3.99992H9.99967V2.66659H5.99967V3.99992ZM4.04901 5.33325L4.62034 13.3333H11.3797L11.951 5.33325H4.04901ZM6.66634 6.66659C6.84315 6.66659 7.01272 6.73682 7.13775 6.86185C7.26277 6.98687 7.33301 7.15644 7.33301 7.33325V11.3333C7.33301 11.5101 7.26277 11.6796 7.13775 11.8047C7.01272 11.9297 6.84315 11.9999 6.66634 11.9999C6.48953 11.9999 6.31996 11.9297 6.19494 11.8047C6.06991 11.6796 5.99967 11.5101 5.99967 11.3333V7.33325C5.99967 7.15644 6.06991 6.98687 6.19494 6.86185C6.31996 6.73682 6.48953 6.66659 6.66634 6.66659ZM9.33301 6.66659C9.50982 6.66659 9.67939 6.73682 9.80441 6.86185C9.92944 6.98687 9.99967 7.15644 9.99967 7.33325V11.3333C9.99967 11.5101 9.92944 11.6796 9.80441 11.8047C9.67939 11.9297 9.50982 11.9999 9.33301 11.9999C9.1562 11.9999 8.98663 11.9297 8.8616 11.8047C8.73658 11.6796 8.66634 11.5101 8.66634 11.3333V7.33325C8.66634 7.15644 8.73658 6.98687 8.8616 6.86185C8.98663 6.73682 9.1562 6.66659 9.33301 6.66659Z" fill="#A19EAD"/>
</g>
</svg>
