<svg width="13" height="21" viewBox="0 0 13 21" fill="none" xmlns="http://www.w3.org/2000/svg">
<path d="M12.9939 19.7C13.0233 20.0031 12.9363 20.3061 12.7506 20.5475C12.565 20.7889 12.2944 20.9507 11.9939 21H1.49389C1.19336 20.9507 0.922825 20.7889 0.737134 20.5475C0.551443 20.3061 0.464487 20.0031 0.49389 19.7V1.3C0.464487 0.996867 0.551443 0.693895 0.737134 0.452497C0.922825 0.211099 1.19336 0.0493366 1.49389 0H11.9939C12.2944 0.0493366 12.565 0.211099 12.7506 0.452497C12.9363 0.693895 13.0233 0.996867 12.9939 1.3V19.7Z" fill="#00A9DE"/>
<path d="M12.1949 17.3008C12.2087 17.4322 12.1964 17.5651 12.1585 17.6917C12.1206 17.8183 12.058 17.9362 11.9744 18.0385C11.8907 18.1408 11.7875 18.2255 11.6709 18.2877C11.5543 18.3498 11.4265 18.3883 11.2949 18.4008H2.09492C1.96335 18.3883 1.83556 18.3498 1.71894 18.2877C1.60232 18.2255 1.49919 18.1408 1.4155 18.0385C1.3318 17.9362 1.26922 17.8183 1.23136 17.6917C1.1935 17.5651 1.18112 17.4322 1.19493 17.3008V1.90078C1.18112 1.76934 1.1935 1.63647 1.23136 1.50984C1.26922 1.38322 1.3318 1.26535 1.4155 1.16307C1.49919 1.06078 1.60232 0.976093 1.71894 0.913908C1.83556 0.851724 1.96335 0.813274 2.09492 0.800781H11.1949C11.3265 0.813274 11.4543 0.851724 11.5709 0.913908C11.6875 0.976093 11.7907 1.06078 11.8744 1.16307C11.958 1.26535 12.0206 1.38322 12.0585 1.50984C12.0964 1.63647 12.1087 1.76934 12.0949 1.90078L12.1949 17.3008Z" fill="#F1F1F2"/>
<path d="M6.69375 20.3992C7.02512 20.3992 7.29375 20.1306 7.29375 19.7992C7.29375 19.4678 7.02512 19.1992 6.69375 19.1992C6.36238 19.1992 6.09375 19.4678 6.09375 19.7992C6.09375 20.1306 6.36238 20.3992 6.69375 20.3992Z" fill="#F1F1F2"/>
<path d="M7.39336 5.60156H4.59336C4.35466 5.60156 4.12575 5.69638 3.95696 5.86517C3.78818 6.03395 3.69336 6.26287 3.69336 6.50156V14.5016C3.69336 14.7403 3.78818 14.9692 3.95696 15.138C4.12575 15.3067 4.35466 15.4016 4.59336 15.4016H8.79336C8.91155 15.4016 9.02858 15.3783 9.13778 15.3331C9.24697 15.2878 9.34618 15.2215 9.42975 15.138C9.51333 15.0544 9.57962 14.9552 9.62485 14.846C9.67008 14.7368 9.69336 14.6198 9.69336 14.5016V7.70156C9.69336 7.20156 7.89336 5.60156 7.39336 5.60156ZM8.79336 13.4016C8.79336 13.6933 8.67746 13.9731 8.47117 14.1794C8.26488 14.3857 7.98509 14.5016 7.69336 14.5016H5.59336C5.30162 14.5016 5.02183 14.3857 4.81554 14.1794C4.60925 13.9731 4.49336 13.6933 4.49336 13.4016V9.50156C4.51838 9.22749 4.64522 8.97275 4.84887 8.78762C5.05251 8.60249 5.31815 8.50042 5.59336 8.50156H7.69336C7.96857 8.50042 8.23421 8.60249 8.43785 8.78762C8.6415 8.97275 8.76834 9.22749 8.79336 9.50156V13.4016Z" fill="#1C9CD7"/>
<path d="M7.69375 8.5H5.69375C5.08624 8.5 4.59375 8.99249 4.59375 9.6V13.38C4.59375 13.9875 5.08624 14.48 5.69375 14.48H7.69375C8.30126 14.48 8.79375 13.9875 8.79375 13.38V9.6C8.79375 8.99249 8.30126 8.5 7.69375 8.5Z" stroke="#F0BC61" stroke-width="0.25" stroke-miterlimit="10"/>
<path d="M7.69336 14.4V12.5L7.19336 12L6.69336 12.2V14.4V12.2L6.09336 12L5.59336 12.5V14.4V12.5L6.09336 12L5.89336 11.4H4.69336H5.89336L6.09336 12L6.69336 12.2L7.19336 12L7.39336 11.5L7.19336 10.9L6.69336 10.7L6.19336 10.9L5.69336 10.4V8.5V10.4L6.19336 10.9L6.69336 10.7V8.5V10.7L7.19336 10.9L7.39336 11.5L7.19336 12L7.69336 12.5V14.4Z" stroke="#F0BC61" stroke-width="0.25" stroke-miterlimit="10"/>
<path d="M7.79337 10.4L7.19336 10.9L7.79337 10.4ZM7.79337 10.4V8.5V10.4Z" stroke="#F0BC61" stroke-width="0.25" stroke-miterlimit="10"/>
</svg>
