<?xml version="1.0" encoding="UTF-8"?>
<svg xmlns="http://www.w3.org/2000/svg" xmlns:xlink="http://www.w3.org/1999/xlink" width="20px" height="20px" viewBox="0 0 20 20" version="1.1">
<g id="surface1">
<path style=" stroke:none;fill-rule:nonzero;fill:rgb(0%,0%,0%);fill-opacity:1;" d="M 10.183594 0 C 6.773438 0 3.320312 1.710938 3.320312 4.984375 L 3.320312 13.320312 C 3.320312 17.003906 6.316406 20 10 20 C 13.683594 20 16.679688 17.003906 16.679688 13.320312 L 16.679688 4.984375 C 16.679688 1.558594 13.3125 0 10.183594 0 Z M 15.421875 13.320312 C 15.421875 16.3125 12.988281 18.742188 10 18.742188 C 7.011719 18.742188 4.578125 16.3125 4.578125 13.320312 L 4.578125 9.421875 C 5.699219 9.761719 7.8125 10.277344 10.3125 10.277344 C 11.910156 10.277344 13.667969 10.0625 15.421875 9.457031 Z M 15.421875 8.121094 C 10.839844 9.875 5.980469 8.554688 4.578125 8.101562 L 4.578125 4.984375 C 4.578125 2.5625 7.464844 1.257812 10.183594 1.257812 C 12.789062 1.257812 15.421875 2.410156 15.421875 4.984375 Z M 10.707031 2.714844 L 10.707031 7.269531 C 10.707031 7.617188 10.425781 7.898438 10.078125 7.898438 C 9.730469 7.898438 9.449219 7.617188 9.449219 7.269531 L 9.449219 2.714844 C 9.449219 2.367188 9.730469 2.085938 10.078125 2.085938 C 10.425781 2.085938 10.707031 2.367188 10.707031 2.714844 Z M 14.824219 7.3125 C 14.824219 7.3125 12.203125 8.046875 11.3125 7.890625 L 11.3125 2.074219 C 11.3125 2.074219 15.503906 2.128906 14.824219 7.3125 Z M 14.824219 7.3125 "/>
</g>
</svg>
