<svg width="17" height="17" viewBox="0 0 17 17" fill="none" xmlns="http://www.w3.org/2000/svg">
<path d="M12.2273 8.5L13.0673 7.66C13.3606 7.36667 13.734 7.20667 14.1406 7.16667V6.5L10.1406 2.5H3.47396C2.73396 2.5 2.14062 3.09333 2.14062 3.83333V13.1667C2.14063 13.5203 2.2811 13.8594 2.53115 14.1095C2.7812 14.3595 3.12034 14.5 3.47396 14.5H7.47396V13.2533L7.56063 13.1667H3.47396V3.83333H8.14062V8.5H12.2273ZM9.47396 3.5L13.1406 7.16667H9.47396V3.5ZM12.894 9.72L14.254 11.08L10.1673 15.1667H8.80729V13.8067L12.894 9.72ZM15.374 9.96L14.7206 10.6133L13.3606 9.25333L14.014 8.6C14.1406 8.46667 14.3606 8.46667 14.494 8.6L15.374 9.48C15.5073 9.61333 15.5073 9.83333 15.374 9.96Z" fill="#1F2937"/>
</svg>
