<svg width="25" height="25" viewBox="0 0 25 25" fill="none" xmlns="http://www.w3.org/2000/svg">
    <path
        d="M9.66016 14.25C7.32016 14.25 2.66016 15.42 2.66016 17.75V19.5H16.6602V17.75C16.6602 15.42 12.0002 14.25 9.66016 14.25ZM5.00016 17.5C5.84016 16.92 7.87016 16.25 9.66016 16.25C11.4502 16.25 13.4802 16.92 14.3202 17.5H5.00016ZM9.66016 12.5C11.5902 12.5 13.1602 10.93 13.1602 9C13.1602 7.07 11.5902 5.5 9.66016 5.5C7.73016 5.5 6.16016 7.07 6.16016 9C6.16016 10.93 7.73016 12.5 9.66016 12.5ZM9.66016 7.5C10.4902 7.5 11.1602 8.17 11.1602 9C11.1602 9.83 10.4902 10.5 9.66016 10.5C8.83016 10.5 8.16016 9.83 8.16016 9C8.16016 8.17 8.83016 7.5 9.66016 7.5ZM16.7002 14.31C17.8602 15.15 18.6602 16.27 18.6602 17.75V19.5H22.6602V17.75C22.6602 15.73 19.1602 14.58 16.7002 14.31ZM15.6602 12.5C17.5902 12.5 19.1602 10.93 19.1602 9C19.1602 7.07 17.5902 5.5 15.6602 5.5C15.1202 5.5 14.6202 5.63 14.1602 5.85C14.7902 6.74 15.1602 7.83 15.1602 9C15.1602 10.17 14.7902 11.26 14.1602 12.15C14.6202 12.37 15.1202 12.5 15.6602 12.5Z"
        fill="currentColor" />
</svg>