<svg xmlns="http://www.w3.org/2000/svg" width="17" height="17" viewBox="0 0 17 17" fill="none">
<path d="M15.6423 2.44039C15.7358 2.53412 15.7882 2.66106 15.7882 2.79339C15.7882 2.92573 15.7358 3.05267 15.6423 3.14639L14.5993 4.19039L12.5993 2.19039L13.6423 1.14639C13.7361 1.05266 13.8633 1 13.9958 1C14.1284 1 14.2556 1.05266 14.3493 1.14639L15.6423 2.43939V2.44039ZM13.8923 4.89639L11.8923 2.89639L5.07934 9.71039C5.0243 9.76542 4.98287 9.83253 4.95834 9.90639L4.15334 12.3204C4.13874 12.3644 4.13667 12.4116 4.14735 12.4567C4.15804 12.5018 4.18106 12.5431 4.21385 12.5759C4.24663 12.6087 4.28789 12.6317 4.33301 12.6424C4.37813 12.6531 4.42533 12.651 4.46934 12.6364L6.88334 11.8314C6.95711 11.8072 7.02421 11.7661 7.07934 11.7114L13.8923 4.89739V4.89639Z" fill="#3B82F6"/>
<path fill-rule="evenodd" clip-rule="evenodd" d="M1.14062 14C1.14063 14.3978 1.29866 14.7794 1.57996 15.0607C1.86127 15.342 2.2428 15.5 2.64062 15.5H13.6406C14.0384 15.5 14.42 15.342 14.7013 15.0607C14.9826 14.7794 15.1406 14.3978 15.1406 14V8C15.1406 7.86739 15.0879 7.74021 14.9942 7.64645C14.9004 7.55268 14.7732 7.5 14.6406 7.5C14.508 7.5 14.3808 7.55268 14.2871 7.64645C14.1933 7.74021 14.1406 7.86739 14.1406 8V14C14.1406 14.1326 14.0879 14.2598 13.9942 14.3536C13.9004 14.4473 13.7732 14.5 13.6406 14.5H2.64062C2.50802 14.5 2.38084 14.4473 2.28707 14.3536C2.1933 14.2598 2.14062 14.1326 2.14062 14V3C2.14062 2.86739 2.1933 2.74021 2.28707 2.64645C2.38084 2.55268 2.50802 2.5 2.64062 2.5H9.14062C9.27323 2.5 9.40041 2.44732 9.49418 2.35355C9.58795 2.25979 9.64062 2.13261 9.64062 2C9.64062 1.86739 9.58795 1.74021 9.49418 1.64645C9.40041 1.55268 9.27323 1.5 9.14062 1.5H2.64062C2.2428 1.5 1.86127 1.65804 1.57996 1.93934C1.29866 2.22064 1.14063 2.60218 1.14062 3V14Z" fill="#3B82F6"/>
</svg>