<svg width="16" height="16" viewBox="0 0 16 16" fill="none" xmlns="http://www.w3.org/2000/svg">
<g clip-path="url(#clip0_746_95098)">
<mask id="mask0_746_95098" style="mask-type:luminance" maskUnits="userSpaceOnUse" x="0" y="0" width="16" height="16">
<path d="M0 0H16V16H0V0Z" fill="white"/>
<path fill-rule="evenodd" clip-rule="evenodd" d="M4.27395 9.10302C4.28403 9.03842 4.31442 8.97872 4.36072 8.93256L10.5626 2.73071C10.6203 2.67303 10.6985 2.64062 10.7801 2.64062C10.8617 2.64062 10.9399 2.67303 10.9976 2.73071L13.3915 5.12456C13.449 5.18223 13.4813 5.26035 13.4813 5.34179C13.4813 5.42323 13.449 5.50135 13.3915 5.55902L7.18841 11.7615C7.14217 11.8076 7.08247 11.8377 7.01795 11.8476L4.19026 12.2821C4.14252 12.2894 4.09372 12.2854 4.04782 12.2704C4.00193 12.2553 3.96021 12.2297 3.92606 12.1955C3.89191 12.1614 3.86627 12.1197 3.85123 12.0738C3.83619 12.0279 3.83217 11.9791 3.83949 11.9313L4.27334 9.10425L4.27395 9.10302ZM4.86718 9.29625L4.51211 11.6101L6.82534 11.2544L12.738 5.34179L10.7804 3.38364L4.86718 9.29625Z" fill="black"/>
<path fill-rule="evenodd" clip-rule="evenodd" d="M11.368 6.87753L9.19141 4.70522L9.62648 4.26953L11.8025 6.44184L11.368 6.87753Z" fill="black"/>
</mask>
<g mask="url(#mask0_746_95098)">
<path d="M8 16C12.4183 16 16 12.4183 16 8C16 3.58172 12.4183 0 8 0C3.58172 0 0 3.58172 0 8C0 12.4183 3.58172 16 8 16Z" fill="#9E9C9C"/>
</g>
</g>
<defs>
<clipPath id="clip0_746_95098">
<rect width="16" height="16" fill="white"/>
</clipPath>
</defs>
</svg>