<svg width="25" height="24" viewBox="0 0 25 24" fill="none" xmlns="http://www.w3.org/2000/svg">
<g id="person-plus-fill" clip-path="url(#clip0_6946_50211)">
<path id="Vector" d="M1.64062 21C1.64062 21 0.140625 21 0.140625 19.5C0.140625 18 1.64062 13.5 9.14062 13.5C16.6406 13.5 18.1406 18 18.1406 19.5C18.1406 21 16.6406 21 16.6406 21H1.64062ZM9.14062 12C10.3341 12 11.4787 11.5259 12.3226 10.682C13.1665 9.83807 13.6406 8.69347 13.6406 7.5C13.6406 6.30653 13.1665 5.16193 12.3226 4.31802C11.4787 3.47411 10.3341 3 9.14062 3C7.94715 3 6.80256 3.47411 5.95864 4.31802C5.11473 5.16193 4.64062 6.30653 4.64062 7.5C4.64062 8.69347 5.11473 9.83807 5.95864 10.682C6.80256 11.5259 7.94715 12 9.14062 12Z" fill="#3B82F6"/>
<path id="Vector_2" fill-rule="evenodd" clip-rule="evenodd" d="M20.3906 7.5C20.5895 7.5 20.7803 7.57902 20.921 7.71967C21.0616 7.86032 21.1406 8.05109 21.1406 8.25V10.5H23.3906C23.5895 10.5 23.7803 10.579 23.921 10.7197C24.0616 10.8603 24.1406 11.0511 24.1406 11.25C24.1406 11.4489 24.0616 11.6397 23.921 11.7803C23.7803 11.921 23.5895 12 23.3906 12H21.1406V14.25C21.1406 14.4489 21.0616 14.6397 20.921 14.7803C20.7803 14.921 20.5895 15 20.3906 15C20.1917 15 20.0009 14.921 19.8603 14.7803C19.7196 14.6397 19.6406 14.4489 19.6406 14.25V12H17.3906C17.1917 12 17.0009 11.921 16.8603 11.7803C16.7196 11.6397 16.6406 11.4489 16.6406 11.25C16.6406 11.0511 16.7196 10.8603 16.8603 10.7197C17.0009 10.579 17.1917 10.5 17.3906 10.5H19.6406V8.25C19.6406 8.05109 19.7196 7.86032 19.8603 7.71967C20.0009 7.57902 20.1917 7.5 20.3906 7.5Z" fill="#3B82F6"/>
</g>
<defs>
<clipPath id="clip0_6946_50211">
<rect width="24" height="24" fill="white" transform="translate(0.140625)"/>
</clipPath>
</defs>
</svg>
