<svg width="15" height="14" viewBox="0 0 15 14" fill="none" xmlns="http://www.w3.org/2000/svg">
<g id="person-plus-fill" clip-path="url(#clip0_6186_26473)">
<path id="Vector" d="M1.01562 12.25C1.01562 12.25 0.140625 12.25 0.140625 11.375C0.140625 10.5 1.01562 7.875 5.39062 7.875C9.76562 7.875 10.6406 10.5 10.6406 11.375C10.6406 12.25 9.76562 12.25 9.76562 12.25H1.01562ZM5.39062 7C6.08682 7 6.7545 6.72344 7.24678 6.23116C7.73906 5.73887 8.01562 5.07119 8.01562 4.375C8.01562 3.67881 7.73906 3.01113 7.24678 2.51884C6.7545 2.02656 6.08682 1.75 5.39062 1.75C4.69443 1.75 4.02675 2.02656 3.53447 2.51884C3.04219 3.01113 2.76562 3.67881 2.76562 4.375C2.76562 5.07119 3.04219 5.73887 3.53447 6.23116C4.02675 6.72344 4.69443 7 5.39062 7Z" fill="#3B82F6"/>
<path id="Vector_2" fill-rule="evenodd" clip-rule="evenodd" d="M11.9531 4.375C12.0692 4.375 12.1804 4.42109 12.2625 4.50314C12.3445 4.58519 12.3906 4.69647 12.3906 4.8125V6.125H13.7031C13.8192 6.125 13.9304 6.17109 14.0125 6.25314C14.0945 6.33519 14.1406 6.44647 14.1406 6.5625C14.1406 6.67853 14.0945 6.78981 14.0125 6.87186C13.9304 6.95391 13.8192 7 13.7031 7H12.3906V8.3125C12.3906 8.42853 12.3445 8.53981 12.2625 8.62186C12.1804 8.70391 12.0692 8.75 11.9531 8.75C11.8371 8.75 11.7258 8.70391 11.6438 8.62186C11.5617 8.53981 11.5156 8.42853 11.5156 8.3125V7H10.2031C10.0871 7 9.97581 6.95391 9.89377 6.87186C9.81172 6.78981 9.76562 6.67853 9.76562 6.5625C9.76562 6.44647 9.81172 6.33519 9.89377 6.25314C9.97581 6.17109 10.0871 6.125 10.2031 6.125H11.5156V4.8125C11.5156 4.69647 11.5617 4.58519 11.6438 4.50314C11.7258 4.42109 11.8371 4.375 11.9531 4.375Z" fill="#3B82F6"/>
</g>
<defs>
<clipPath id="clip0_6186_26473">
<rect width="14" height="14" fill="white" transform="translate(0.140625)"/>
</clipPath>
</defs>
</svg>
