<svg width="17" height="17" viewBox="0 0 17 17" fill="none" xmlns="http://www.w3.org/2000/svg">
<g clip-path="url(#clip0_1530_106539)">
<path d="M10.1419 9.83268C8.36193 9.83268 4.80859 10.7193 4.80859 12.4993V13.8327H15.4753V12.4993C15.4753 10.7193 11.9219 9.83268 10.1419 9.83268ZM10.1419 8.49935C10.8492 8.49935 11.5274 8.2184 12.0275 7.7183C12.5276 7.2182 12.8086 6.53993 12.8086 5.83268C12.8086 5.12544 12.5276 4.44716 12.0275 3.94706C11.5274 3.44697 10.8492 3.16602 10.1419 3.16602C9.43468 3.16602 8.75641 3.44697 8.25631 3.94706C7.75621 4.44716 7.47526 5.12544 7.47526 5.83268C7.47526 6.53993 7.75621 7.2182 8.25631 7.7183C8.75641 8.2184 9.43468 8.49935 10.1419 8.49935ZM3.47526 9.35268L5.10859 10.346L4.67526 8.47268L6.14193 7.21935L4.21526 7.05268L3.47526 5.29268L2.72193 7.05268L0.808594 7.21935L2.26193 8.47268L1.80859 10.346L3.47526 9.35268Z" fill="#1F2937"/>
</g>
<defs>
<clipPath id="clip0_1530_106539">
<rect width="16" height="16" fill="white" transform="translate(0.140625 0.5)"/>
</clipPath>
</defs>
</svg>
