<svg width="17" height="17" viewBox="0 0 17 17" fill="none" xmlns="http://www.w3.org/2000/svg">
<g clip-path="url(#clip0_1530_106541)">
<path d="M11.8419 8.49935L9.47526 6.13268L10.4253 5.19935L11.8419 6.61602L14.6753 3.78268L15.6086 4.73268L11.8419 8.49935ZM6.14193 8.49935C5.40859 8.49935 4.78082 8.23824 4.25859 7.71602C3.73637 7.19379 3.47526 6.56602 3.47526 5.83268C3.47526 5.09935 3.73637 4.47157 4.25859 3.94935C4.78082 3.42713 5.40859 3.16602 6.14193 3.16602C6.87526 3.16602 7.50304 3.42713 8.02526 3.94935C8.54748 4.47157 8.80859 5.09935 8.80859 5.83268C8.80859 6.56602 8.54748 7.19379 8.02526 7.71602C7.50304 8.23824 6.87526 8.49935 6.14193 8.49935ZM0.808594 13.8327V11.966C0.808594 11.5882 0.905927 11.2411 1.10059 10.9247C1.29526 10.6082 1.55348 10.3665 1.87526 10.1993C2.56415 9.8549 3.26415 9.59668 3.97526 9.42468C4.68637 9.25268 5.40859 9.16646 6.14193 9.16602C6.87526 9.16602 7.59748 9.25224 8.30859 9.42468C9.0197 9.59713 9.7197 9.85535 10.4086 10.1993C10.7308 10.366 10.9893 10.6078 11.1839 10.9247C11.3786 11.2416 11.4757 11.5887 11.4753 11.966V13.8327H0.808594Z" fill="#1F2937"/>
</g>
<defs>
<clipPath id="clip0_1530_106541">
<rect width="16" height="16" fill="white" transform="translate(0.140625 0.5)"/>
</clipPath>
</defs>
</svg>
