<svg width="17" height="17" viewBox="0 0 17 17" fill="none" xmlns="http://www.w3.org/2000/svg">
<path d="M14.6086 9.39935L13.9419 10.066L12.5753 8.69935L13.2419 8.03268C13.3105 7.9655 13.4026 7.92787 13.4986 7.92787C13.5946 7.92787 13.6867 7.9655 13.7553 8.03268L14.6086 8.88602C14.7486 9.02602 14.7486 9.25935 14.6086 9.39935ZM8.14193 13.126L12.1819 9.08602L13.5486 10.4527L9.51526 14.4993H8.14193V13.126ZM8.14193 9.83268C5.19526 9.83268 2.80859 11.026 2.80859 12.4993V13.8327H6.80859V12.5727L9.47526 9.90602C9.03526 9.85268 8.58859 9.83268 8.14193 9.83268ZM8.14193 3.16602C7.43468 3.16602 6.75641 3.44697 6.25631 3.94706C5.75621 4.44716 5.47526 5.12544 5.47526 5.83268C5.47526 6.53993 5.75621 7.2182 6.25631 7.7183C6.75641 8.2184 7.43468 8.49935 8.14193 8.49935C8.84917 8.49935 9.52745 8.2184 10.0275 7.7183C10.5276 7.2182 10.8086 6.53993 10.8086 5.83268C10.8086 5.12544 10.5276 4.44716 10.0275 3.94706C9.52745 3.44697 8.84917 3.16602 8.14193 3.16602Z" fill="#1F2937"/>
</svg>
