<svg width="13" height="12" viewBox="0 0 13 12" fill="none" xmlns="http://www.w3.org/2000/svg">
<g id="ph:question">
<path id="Vector" d="M6.70313 8.4375C6.70313 8.54875 6.67014 8.65751 6.60833 8.75001C6.54652 8.84251 6.45867 8.91461 6.35589 8.95718C6.2531 8.99976 6.14 9.0109 6.03089 8.98919C5.92177 8.96749 5.82155 8.91392 5.74288 8.83525C5.66421 8.75658 5.61064 8.65635 5.58894 8.54724C5.56723 8.43812 5.57837 8.32503 5.62094 8.22224C5.66352 8.11946 5.73562 8.03161 5.82812 7.9698C5.92062 7.90799 6.02938 7.875 6.14063 7.875C6.28981 7.875 6.43289 7.93426 6.53837 8.03975C6.64386 8.14524 6.70313 8.28832 6.70313 8.4375ZM6.14063 3.375C5.10656 3.375 4.26563 4.13203 4.26563 5.0625V5.25C4.26563 5.34946 4.30514 5.44484 4.37546 5.51517C4.44579 5.58549 4.54117 5.625 4.64063 5.625C4.74008 5.625 4.83547 5.58549 4.90579 5.51517C4.97612 5.44484 5.01563 5.34946 5.01563 5.25V5.0625C5.01563 4.54688 5.52047 4.125 6.14063 4.125C6.76078 4.125 7.26563 4.54688 7.26563 5.0625C7.26563 5.57813 6.76078 6 6.14063 6C6.04117 6 5.94579 6.03951 5.87546 6.10984C5.80514 6.18016 5.76563 6.27554 5.76563 6.375V6.75C5.76563 6.84946 5.80514 6.94484 5.87546 7.01517C5.94579 7.08549 6.04117 7.125 6.14063 7.125C6.24008 7.125 6.33547 7.08549 6.40579 7.01517C6.47612 6.94484 6.51563 6.84946 6.51563 6.75V6.71625C7.37063 6.55922 8.01563 5.87719 8.01563 5.0625C8.01563 4.13203 7.17469 3.375 6.14063 3.375ZM11.0156 6C11.0156 6.96418 10.7297 7.90672 10.194 8.70841C9.65837 9.51009 8.897 10.1349 8.00621 10.5039C7.11542 10.8729 6.13522 10.9694 5.18956 10.7813C4.2439 10.5932 3.37526 10.1289 2.69348 9.44715C2.0117 8.76537 1.5474 7.89672 1.3593 6.95107C1.1712 6.00541 1.26774 5.02521 1.63671 4.13442C2.00569 3.24363 2.63053 2.48226 3.43222 1.94659C4.23391 1.41091 5.17644 1.125 6.14063 1.125C7.43314 1.12636 8.67232 1.64042 9.58627 2.55436C10.5002 3.46831 11.0143 4.70749 11.0156 6ZM10.2656 6C10.2656 5.18415 10.0237 4.38663 9.57044 3.70827C9.11718 3.02992 8.47294 2.50121 7.7192 2.189C6.96545 1.87679 6.13605 1.7951 5.33588 1.95426C4.53571 2.11342 3.8007 2.50629 3.22381 3.08318C2.64692 3.66008 2.25405 4.39508 2.09489 5.19525C1.93572 5.99542 2.01741 6.82482 2.32962 7.57857C2.64184 8.33231 3.17055 8.97655 3.8489 9.42981C4.52725 9.88307 5.32478 10.125 6.14063 10.125C7.23426 10.1238 8.28275 9.68876 9.05607 8.91545C9.82939 8.14213 10.2644 7.09364 10.2656 6Z" fill="#777777"/>
</g>
</svg>
