<svg width="62" height="62" viewBox="0 0 62 62" fill="none" xmlns="http://www.w3.org/2000/svg">
    <rect width="62" height="62" rx="31" fill="#DBEAFE" />
    <path fill-rule="evenodd" clip-rule="evenodd"
        d="M30.9993 24.75C32.3501 24.7505 33.6644 25.1887 34.7453 25.9988C35.8262 26.8089 36.6156 27.9475 36.9951 29.2438C37.3747 30.5402 37.324 31.9247 36.8507 33.1899C36.3774 34.455 35.507 35.5328 34.3697 36.2618C33.2325 36.9908 31.8897 37.3317 30.5425 37.2335C29.1953 37.1352 27.9161 36.6032 26.8966 35.717C25.8772 34.8308 25.1722 33.6382 24.8874 32.3177C24.6026 30.9973 24.7533 29.6201 25.3168 28.3925C25.3782 28.2432 25.3794 28.076 25.3203 27.9259C25.2611 27.7758 25.1462 27.6543 24.9996 27.587C24.8529 27.5196 24.6859 27.5116 24.5335 27.5646C24.3811 27.6176 24.2551 27.7275 24.1818 27.8713C23.5056 29.3445 23.3249 30.9972 23.6667 32.5817C24.0086 34.1663 24.8547 35.5974 26.0782 36.6608C27.3017 37.7242 28.8368 38.3625 30.4535 38.4802C32.0703 38.5979 33.6816 38.1886 35.0462 37.3136C36.4109 36.4387 37.4553 35.1452 38.023 33.6268C38.5907 32.1085 38.6513 30.447 38.1955 28.8914C37.7398 27.3358 36.7923 25.9696 35.495 24.9977C34.1977 24.0257 32.6204 23.5003 30.9993 23.5V24.75Z"
        fill="#3B82F6" />
    <path
        d="M31.0006 26.5829V21.6679C31.0006 21.6085 30.9837 21.5503 30.9518 21.5002C30.9199 21.4501 30.8744 21.4101 30.8207 21.385C30.7669 21.3598 30.7071 21.3504 30.6482 21.358C30.5893 21.3656 30.5338 21.3898 30.4881 21.4279L27.5381 23.8854C27.503 23.9147 27.4747 23.9514 27.4553 23.9929C27.4358 24.0343 27.4258 24.0796 27.4258 24.1254C27.4258 24.1711 27.4358 24.2164 27.4553 24.2579C27.4747 24.2993 27.503 24.336 27.5381 24.3654L30.4881 26.8229C30.5338 26.8609 30.5893 26.8851 30.6482 26.8927C30.7071 26.9003 30.7669 26.8909 30.8207 26.8657C30.8744 26.8406 30.9199 26.8006 30.9518 26.7505C30.9837 26.7004 31.0006 26.6422 31.0006 26.5829Z"
        fill="#3B82F6" />
</svg>