<svg width="16" height="16" viewBox="0 0 16 16" fill="none" xmlns="http://www.w3.org/2000/svg">
    <g clip-path="url(#clip0_5500_46679)">
        <path fill-rule="evenodd" clip-rule="evenodd"
            d="M7.76659 3.3125C8.77969 3.31289 9.7654 3.6415 10.5761 4.2491C11.3868 4.8567 11.9788 5.7106 12.2634 6.68289C12.5481 7.65517 12.5101 8.69352 12.1551 9.6424C11.8002 10.5913 11.1473 11.3996 10.2944 11.9463C9.44148 12.4931 8.43439 12.7488 7.42397 12.6751C6.41354 12.6014 5.45418 12.2024 4.68957 11.5378C3.92495 10.8731 3.39625 9.97864 3.18265 8.98831C2.96905 7.99798 3.08204 6.9651 3.50471 6.04438C3.55072 5.93243 3.55164 5.80704 3.50729 5.69443C3.46294 5.58182 3.37676 5.49073 3.26678 5.44022C3.15679 5.38971 3.03154 5.3837 2.91722 5.42344C2.80291 5.46318 2.70839 5.5456 2.65346 5.65344C2.14628 6.75836 2.01074 7.99787 2.26715 9.1863C2.52355 10.3747 3.15809 11.4481 4.07572 12.2456C4.99335 13.0431 6.14467 13.5219 7.35723 13.6102C8.56979 13.6984 9.77831 13.3915 10.8018 12.7352C11.8252 12.079 12.6085 11.1089 13.0343 9.9701C13.4602 8.83134 13.5056 7.58527 13.1637 6.41854C12.8219 5.25181 12.1113 4.22723 11.1383 3.49827C10.1653 2.76931 8.98235 2.37521 7.76659 2.375V3.3125Z"
            fill="currentColor" />
        <path
            d="M8.00146 4.68686V1.00061C8.00144 0.95608 7.98874 0.912472 7.96483 0.874896C7.94093 0.837321 7.90681 0.807335 7.86648 0.788448C7.82615 0.769561 7.78127 0.762556 7.7371 0.768252C7.69293 0.773949 7.6513 0.792112 7.61708 0.820614L5.40458 2.66374C5.37821 2.68574 5.35699 2.71326 5.34242 2.74436C5.32786 2.77547 5.32031 2.80939 5.32031 2.84374C5.32031 2.87808 5.32786 2.91201 5.34242 2.94311C5.35699 2.97422 5.37821 3.00174 5.40458 3.02374L7.61708 4.86686C7.6513 4.89537 7.69293 4.91353 7.7371 4.91923C7.78127 4.92492 7.82615 4.91792 7.86648 4.89903C7.90681 4.88014 7.94093 4.85016 7.96483 4.81258C7.98874 4.77501 8.00144 4.7314 8.00146 4.68686V4.68686Z"
            fill="currentColor" />
    </g>
    <defs>
        <clipPath id="clip0_5500_46679">
            <rect width="15" height="15" fill="white" transform="translate(0.5 0.5)" />
        </clipPath>
    </defs>
</svg>