<svg xmlns="http://www.w3.org/2000/svg" width="19" height="18" viewBox="0 0 19 18" fill="none" color="#357EEB">
    <path fill-rule="evenodd" clip-rule="evenodd"
        d="M8.32167 0.749808C8.61665 0.455203 9.01134 0.281853 9.42787 0.263958C9.84439 0.246063 10.2525 0.384923 10.5717 0.653142L10.6783 0.750642L12.2617 2.33314H14.5C14.9203 2.33322 15.3251 2.49212 15.6333 2.77801C15.9414 3.06389 16.1301 3.45566 16.1617 3.87481L16.1667 3.99981V6.23814L17.75 7.82148C18.0448 8.11651 18.2183 8.51137 18.2362 8.92808C18.2541 9.3448 18.1151 9.75308 17.8467 10.0723L17.7492 10.1781L16.1658 11.7615V13.9998C16.166 14.4203 16.0072 14.8253 15.7213 15.1336C15.4353 15.4419 15.0435 15.6308 14.6242 15.6623L14.5 15.6665H12.2625L10.6792 17.2498C10.3841 17.5446 9.98927 17.7181 9.57255 17.736C9.15584 17.7539 8.74756 17.6149 8.42833 17.3465L8.3225 17.2498L6.73916 15.6665H4.5C4.07952 15.6666 3.67453 15.5078 3.36621 15.2219C3.05789 14.936 2.86903 14.5441 2.8375 14.1248L2.83333 13.9998V11.7615L1.25 10.1781C0.95516 9.88311 0.781663 9.48825 0.763766 9.07153C0.745869 8.65481 0.884874 8.24653 1.15333 7.92731L1.25 7.82148L2.83333 6.23814V3.99981C2.83341 3.57947 2.99231 3.17469 3.2782 2.86655C3.56408 2.55841 3.95585 2.36967 4.375 2.33814L4.5 2.33314H6.73833L8.32167 0.749808ZM12.0658 6.48564L8.52916 10.0223L7.05583 8.54897C6.89946 8.39272 6.68743 8.30498 6.46637 8.30506C6.24531 8.30513 6.03334 8.39302 5.87708 8.54939C5.72082 8.70576 5.63308 8.91779 5.63316 9.13885C5.63324 9.35991 5.72113 9.57188 5.8775 9.72814L7.88083 11.7315C7.96596 11.8166 8.06703 11.8842 8.17827 11.9303C8.28952 11.9764 8.40875 12.0001 8.52916 12.0001C8.64958 12.0001 8.76881 11.9764 8.88006 11.9303C8.9913 11.8842 9.09237 11.8166 9.1775 11.7315L13.2442 7.66398C13.396 7.50681 13.48 7.2963 13.4781 7.07781C13.4762 6.85931 13.3885 6.6503 13.234 6.49579C13.0795 6.34129 12.8705 6.25364 12.652 6.25175C12.4335 6.24985 12.223 6.33384 12.0658 6.48564Z"
        fill="currentColor" />
</svg>