<svg width="25" height="25" viewBox="0 0 25 25" fill="none" xmlns="http://www.w3.org/2000/svg">
    <path
        d="M15.6602 22.4999L15.1052 23.3319C15.2558 23.4324 15.4308 23.4901 15.6117 23.4989C15.7925 23.5077 15.9723 23.4672 16.132 23.3818C16.2916 23.2964 16.425 23.1693 16.5181 23.0139C16.6111 22.8586 16.6602 22.681 16.6602 22.4999H15.6602ZM12.6602 20.4999L13.2152 19.6679C13.0509 19.5583 12.8577 19.4998 12.6602 19.4998C12.4626 19.4998 12.2695 19.5583 12.1052 19.6679L12.6602 20.4999ZM9.66019 22.4999H8.66019C8.66016 22.681 8.70928 22.8586 8.80231 23.0139C8.89534 23.1693 9.02879 23.2964 9.18842 23.3818C9.34805 23.4672 9.52787 23.5077 9.7087 23.4989C9.88953 23.4901 10.0646 23.4324 10.2152 23.3319L9.66019 22.4999ZM16.2152 21.6679L13.2152 19.6679L12.1052 21.3319L15.1052 23.3319L16.2152 21.6679ZM12.1052 19.6679L9.10519 21.6679L10.2152 23.3319L13.2152 21.3319L12.1052 19.6679ZM13.4222 3.93793L13.4642 3.98793L14.9872 2.69193L14.9452 2.64193L13.4222 3.93793ZM15.9892 5.03393L16.0542 5.02893L15.8942 3.03493L15.8292 3.03993L15.9892 5.03393ZM17.1312 6.10593L17.1262 6.17093L19.1202 6.33093L19.1252 6.26593L17.1312 6.10593ZM18.1722 8.69593L18.2222 8.73793L19.5182 7.21493L19.4682 7.17293L18.1722 8.69593ZM18.2222 10.2619L18.1722 10.3039L19.4682 11.8269L19.5182 11.7849L18.2222 10.2619ZM17.1262 12.8289L17.1312 12.8939L19.1252 12.7339L19.1202 12.6689L17.1262 12.8289ZM16.0542 13.9709L15.9892 13.9659L15.8292 15.9599L15.8942 15.9649L16.0542 13.9709ZM13.4642 15.0119L13.4222 15.0619L14.9452 16.3579L14.9872 16.3079L13.4642 15.0119ZM11.8982 15.0619L11.8562 15.0119L10.3332 16.3079L10.3752 16.3579L11.8982 15.0619ZM9.33119 13.9659L9.26619 13.9709L9.42619 15.9649L9.49119 15.9599L9.33119 13.9659ZM8.18919 12.8939L8.19419 12.8289L6.20019 12.6689L6.19519 12.7339L8.18919 12.8939ZM7.14819 10.3039L7.09819 10.2619L5.80219 11.7849L5.85219 11.8269L7.14819 10.3039ZM7.09819 8.73793L7.14819 8.69593L5.85219 7.17293L5.80219 7.21493L7.09819 8.73793ZM8.19419 6.17093L8.18919 6.10593L6.19519 6.26593L6.20019 6.33093L8.19419 6.17093ZM9.26619 5.02893L9.33019 5.03393L9.49119 3.03993L9.42619 3.03493L9.26619 5.02893ZM11.8562 3.98793L11.8982 3.93793L10.3752 2.64193L10.3332 2.69193L11.8562 3.98793ZM9.33019 5.03393C9.80382 5.072 10.2807 4.99703 10.7197 4.81517C11.1587 4.63332 11.5482 4.34979 11.8562 3.98793L10.3332 2.69193C10.2304 2.81248 10.1005 2.90689 9.95412 2.96739C9.80773 3.02789 9.64907 3.05276 9.49119 3.03993L9.33019 5.03393ZM8.18919 6.10593C8.17757 5.96155 8.19745 5.81636 8.24747 5.68042C8.29748 5.54448 8.37643 5.42103 8.47886 5.3186C8.58128 5.21618 8.70474 5.13723 8.84068 5.08721C8.97662 5.0372 9.1218 5.01731 9.26619 5.02893L9.42619 3.03493C8.99312 3.00022 8.55767 3.05999 8.14997 3.21011C7.74227 3.36022 7.37204 3.59709 7.06488 3.90435C6.75771 4.21161 6.52095 4.58191 6.37097 4.98966C6.22098 5.39741 6.16034 5.83287 6.19519 6.26593L8.18919 6.10593ZM7.14819 8.69593C7.51004 8.38797 7.79357 7.99845 7.97543 7.55947C8.15728 7.12048 8.23226 6.64457 8.19419 6.17093L6.20019 6.33093C6.21301 6.48881 6.18815 6.64748 6.12765 6.79387C6.06714 6.94025 5.97273 7.07017 5.85219 7.17293L7.14819 8.69593ZM7.09819 10.2619C6.98772 10.1681 6.89899 10.0513 6.83814 9.91971C6.77728 9.78813 6.74576 9.6449 6.74576 9.49993C6.74576 9.35496 6.77728 9.21173 6.83814 9.08016C6.89899 8.94858 6.98772 8.83181 7.09819 8.73793L5.80219 7.21493C5.47114 7.49656 5.20524 7.84677 5.02289 8.24131C4.84054 8.63584 4.74609 9.06529 4.74609 9.49993C4.74609 9.93457 4.84054 10.364 5.02289 10.7586C5.20524 11.1531 5.47114 11.5033 5.80219 11.7849L7.09819 10.2619ZM8.19419 12.8289C8.23226 12.3553 8.15728 11.8794 7.97543 11.4404C7.79357 11.0014 7.51004 10.6119 7.14819 10.3039L5.85219 11.8269C5.97273 11.9297 6.06714 12.0596 6.12765 12.206C6.18815 12.3524 6.21301 12.5111 6.20019 12.6689L8.19419 12.8289ZM9.26619 13.9709C9.1218 13.9826 8.97662 13.9627 8.84068 13.9127C8.70474 13.8626 8.58128 13.7837 8.47886 13.6813C8.37643 13.5788 8.29748 13.4554 8.24747 13.3194C8.19745 13.1835 8.17757 13.0383 8.18919 12.8939L6.19519 12.7339C6.16048 13.167 6.22025 13.6024 6.37036 14.0101C6.52047 14.4178 6.75735 14.7881 7.06461 15.0952C7.37186 15.4024 7.74217 15.6392 8.14992 15.7892C8.55767 15.9391 8.99313 15.9988 9.42619 15.9639L9.26619 13.9709ZM13.4222 15.0609C13.3283 15.1714 13.2115 15.2601 13.08 15.321C12.9484 15.3818 12.8052 15.4134 12.6602 15.4134C12.5152 15.4134 12.372 15.3818 12.2404 15.321C12.1088 15.2601 11.9921 15.1714 11.8982 15.0609L10.3752 16.3579C10.6568 16.689 11.007 16.9549 11.4016 17.1372C11.7961 17.3196 12.2255 17.414 12.6602 17.414C13.0948 17.414 13.5243 17.3196 13.9188 17.1372C14.3134 16.9549 14.6636 16.689 14.9452 16.3579L13.4222 15.0619V15.0609ZM17.1312 12.8939C17.1428 13.0384 17.1239 13.1837 17.0738 13.3197C17.0238 13.4557 16.9447 13.5792 16.8422 13.6817C16.7397 13.7841 16.6161 13.863 16.48 13.913C16.3439 13.9629 16.1987 13.9827 16.0542 13.9709L15.8942 15.9649C16.3273 15.9996 16.7627 15.9399 17.1704 15.7898C17.5781 15.6396 17.9483 15.4028 18.2555 15.0955C18.5627 14.7883 18.7994 14.4179 18.9494 14.0102C19.0994 13.6025 19.16 13.167 19.1252 12.7339L17.1312 12.8939ZM18.1722 10.3039C17.8103 10.6119 17.5268 11.0014 17.3449 11.4404C17.1631 11.8794 17.0881 12.3553 17.1262 12.8289L19.1202 12.6689C19.1074 12.5111 19.1322 12.3524 19.1927 12.206C19.2532 12.0596 19.3476 11.9297 19.4682 11.8269L18.1722 10.3039ZM18.2222 8.73793C18.3327 8.83181 18.4214 8.94858 18.4822 9.08016C18.5431 9.21173 18.5746 9.35496 18.5746 9.49993C18.5746 9.6449 18.5431 9.78813 18.4822 9.91971C18.4214 10.0513 18.3327 10.1681 18.2222 10.2619L19.5182 11.7849C19.8492 11.5033 20.1151 11.1531 20.2975 10.7586C20.4798 10.364 20.5743 9.93457 20.5743 9.49993C20.5743 9.06529 20.4798 8.63584 20.2975 8.24131C20.1151 7.84677 19.8492 7.49656 19.5182 7.21493L18.2222 8.73793ZM17.1262 6.17093C17.0881 6.64457 17.1631 7.12048 17.3449 7.55947C17.5268 7.99845 17.8103 8.38797 18.1722 8.69593L19.4682 7.17293C19.3476 7.07017 19.2532 6.94025 19.1927 6.79387C19.1322 6.64748 19.1074 6.48881 19.1202 6.33093L17.1262 6.17093ZM16.0542 5.02893C16.1986 5.01731 16.3438 5.0372 16.4797 5.08721C16.6156 5.13723 16.7391 5.21618 16.8415 5.3186C16.9439 5.42103 17.0229 5.54448 17.0729 5.68042C17.1229 5.81636 17.1428 5.96155 17.1312 6.10593L19.1252 6.26593C19.1599 5.83286 19.1001 5.39742 18.95 4.98972C18.7999 4.58201 18.563 4.21178 18.2558 3.90462C17.9485 3.59746 17.5782 3.3607 17.1705 3.21071C16.7627 3.06072 16.3272 3.00009 15.8942 3.03493L16.0542 5.02893ZM13.4642 3.98793C13.7722 4.34979 14.1617 4.63332 14.6007 4.81517C15.0396 4.99703 15.5155 5.072 15.9892 5.03393L15.8292 3.03993C15.6713 3.05276 15.5126 3.02789 15.3663 2.96739C15.2199 2.90689 15.0899 2.81248 14.9872 2.69193L13.4642 3.98793ZM14.9452 2.64193C14.6636 2.31105 14.3124 2.0453 13.918 1.86306C13.5235 1.68081 13.0942 1.58643 12.6597 1.58643C12.2252 1.58643 11.7959 1.68081 11.4014 1.86306C11.007 2.0453 10.6568 2.31105 10.3752 2.64193L11.8982 3.93793C11.9921 3.82747 12.1088 3.73873 12.2404 3.67788C12.372 3.61703 12.5152 3.58551 12.6602 3.58551C12.8052 3.58551 12.9484 3.61703 13.08 3.67788C13.2115 3.73873 13.3283 3.82747 13.4222 3.93793L14.9452 2.64193ZM11.8562 15.0119C11.5891 14.698 11.2601 14.4425 10.8899 14.2613C10.5196 14.0801 10.116 13.9772 9.70419 13.9589L9.61619 15.9569C9.7534 15.9631 9.88787 15.9974 10.0112 16.0578C10.1346 16.1182 10.2442 16.2033 10.3332 16.3079L11.8562 15.0119ZM9.70419 13.9599C9.57983 13.9546 9.45526 13.9569 9.33119 13.9669L9.49119 15.9609C9.53275 15.9573 9.5745 15.9563 9.61619 15.9579L9.70419 13.9599ZM10.6602 22.4999V14.9579H8.66019V22.4999H10.6602ZM15.9892 13.9659C15.8648 13.9559 15.7409 13.9535 15.6162 13.9589L15.7042 15.9569C15.7459 15.9553 15.7876 15.9563 15.8292 15.9599L15.9892 13.9659ZM15.6162 13.9589C15.2044 13.9772 14.8008 14.0801 14.4305 14.2613C14.0603 14.4425 13.7313 14.698 13.4642 15.0119L14.9872 16.3079C15.0763 16.2035 15.1859 16.1185 15.3093 16.0583C15.4326 15.9981 15.5671 15.9639 15.7042 15.9579L15.6162 13.9589ZM14.6602 14.9589V22.4999H16.6602V14.9579L14.6602 14.9589Z"
        fill="currentColor" />
    <path d="M14.6602 8.5L11.6602 11.5L10.6602 10.5" stroke="currentColor" stroke-width="1.33333" stroke-linecap="round"
        stroke-linejoin="round" />
</svg>