<svg width="24" height="30" viewBox="0 0 24 30" fill="none" xmlns="http://www.w3.org/2000/svg">
    <rect width="24" height="30" />
    <path fill-rule="evenodd" clip-rule="evenodd"
        d="M12.3217 10.7498C12.6167 10.4552 13.0113 10.2819 13.4279 10.264C13.8444 10.2461 14.2525 10.3849 14.5717 10.6531L14.6783 10.7506L16.2617 12.3331H18.5C18.9203 12.3332 19.3251 12.4921 19.6333 12.778C19.9414 13.0639 20.1301 13.4557 20.1617 13.8748L20.1667 13.9998V16.2381L21.75 17.8215C22.0448 18.1165 22.2183 18.5114 22.2362 18.9281C22.2541 19.3448 22.1151 19.7531 21.8467 20.0723L21.7492 20.1781L20.1658 21.7615V23.9998C20.166 24.4203 20.0072 24.8253 19.7213 25.1336C19.4353 25.4419 19.0435 25.6308 18.6242 25.6623L18.5 25.6665H16.2625L14.6792 27.2498C14.3841 27.5446 13.9893 27.7181 13.5726 27.736C13.1558 27.7539 12.7476 27.6149 12.4283 27.3465L12.3225 27.2498L10.7392 25.6665H8.5C8.07952 25.6666 7.67453 25.5078 7.36621 25.2219C7.05789 24.936 6.86903 24.5441 6.8375 24.1248L6.83333 23.9998V21.7615L5.25 20.1781C4.95516 19.8831 4.78166 19.4882 4.76377 19.0715C4.74587 18.6548 4.88487 18.2465 5.15333 17.9273L5.25 17.8215L6.83333 16.2381V13.9998C6.83341 13.5795 6.99231 13.1747 7.2782 12.8665C7.56408 12.5584 7.95585 12.3697 8.375 12.3381L8.5 12.3331H10.7383L12.3217 10.7498ZM16.0658 16.4856L12.5292 20.0223L11.0558 18.549C10.8995 18.3927 10.6874 18.305 10.4664 18.3051C10.2453 18.3051 10.0333 18.393 9.87708 18.5494C9.72082 18.7058 9.63308 18.9178 9.63316 19.1389C9.63324 19.3599 9.72113 19.5719 9.8775 19.7281L11.8808 21.7315C11.966 21.8166 12.067 21.8842 12.1783 21.9303C12.2895 21.9764 12.4088 22.0001 12.5292 22.0001C12.6496 22.0001 12.7688 21.9764 12.8801 21.9303C12.9913 21.8842 13.0924 21.8166 13.1775 21.7315L17.2442 17.664C17.396 17.5068 17.48 17.2963 17.4781 17.0778C17.4762 16.8593 17.3885 16.6503 17.234 16.4958C17.0795 16.3413 16.8705 16.2536 16.652 16.2517C16.4335 16.2498 16.223 16.3338 16.0658 16.4856Z"
        fill="#357EEB" />
    <path fill-rule="evenodd" clip-rule="evenodd"
        d="M7.55912 0C7.27269 8.53845e-05 6.99802 0.114606 6.79553 0.318375L0.316192 6.83577C0.215929 6.93665 0.136401 7.05639 0.0821485 7.18818C0.0278961 7.31997 -1.81238e-05 7.46121 8.82831e-09 7.60385V20.6386C8.82831e-09 21.5029 0.341321 22.3318 0.948877 22.9429C1.55643 23.554 2.38046 23.8973 3.23967 23.8973H4.31945C4.46285 23.8998 4.6053 23.8736 4.7385 23.8201C4.8717 23.7667 4.99298 23.687 5.09526 23.5859C5.19755 23.4848 5.27879 23.3642 5.33424 23.2312C5.3897 23.0981 5.41826 22.9553 5.41826 22.8111C5.41826 22.6668 5.3897 22.524 5.33424 22.391C5.27879 22.2579 5.19755 22.1373 5.09526 22.0362C4.99298 21.9351 4.8717 21.8555 4.7385 21.802C4.6053 21.7485 4.46285 21.7223 4.31945 21.7248H3.23967C2.95329 21.7248 2.67865 21.6103 2.47615 21.4067C2.27365 21.203 2.15989 20.9267 2.15989 20.6386V8.68997H7.55912C7.84553 8.68997 8.12021 8.57555 8.32276 8.37188C8.52531 8.1682 8.63914 7.89194 8.63923 7.60385V2.17258H16.1983C16.4847 2.17258 16.7594 2.28701 16.9619 2.49069C17.1644 2.69438 17.2781 2.97064 17.2781 3.2587V10.8626C17.283 11.1474 17.399 11.4189 17.601 11.6186C17.803 11.8183 18.0748 11.9302 18.3581 11.9302C18.6413 11.9302 18.9132 11.8183 19.1152 11.6186C19.3172 11.4189 19.4331 11.1474 19.438 10.8626V3.2587C19.438 2.39444 19.0967 1.56558 18.4891 0.954451C17.8816 0.343326 17.0576 0 16.1983 0H7.55912ZM6.47934 6.5174H3.68707L6.47934 3.70873V6.5174ZM9.58488 24C9.58694 23.9972 9.58933 23.9947 9.59201 23.9925C9.58979 23.9951 9.58741 23.9976 9.58488 24ZM14.1042 12.3664C14.1042 12.3648 14.1042 12.3642 14.1042 12.3642C14.1042 12.3642 14.1042 12.3658 14.1042 12.3697C14.1045 12.3681 14.1042 12.3668 14.1042 12.3661V12.3664Z"
        fill="black" />
</svg>