<svg width="16" height="16" viewBox="0 0 16 16" fill="none" xmlns="http://www.w3.org/2000/svg">
    <path
        d="M8.0223 4.72619C8.85481 4.72619 9.68731 5.03869 10.3414 5.67857C10.9807 6.33333 11.2929 7.16667 11.2929 8C11.2929 8.83333 10.9807 9.66667 10.3414 10.3214C9.68731 10.9613 8.85481 11.2887 8.0223 11.2887C7.18979 11.2887 6.35728 10.9613 5.70317 10.3214C5.06392 9.66667 4.73687 8.83333 4.73687 8C4.73687 7.16667 5.06392 6.33333 5.70317 5.67857C6.35728 5.03869 7.18979 4.72619 8.0223 4.72619ZM8.0223 10.872L7.99257 10.8423C8.79534 10.8423 9.46432 10.5595 10.0292 10.0238C10.609 9.42857 10.8766 8.74405 10.8766 7.97024C10.8766 7.19643 10.609 6.52679 10.0292 5.94643C9.44946 5.36607 8.78048 5.09821 8.00743 5.09821C7.23439 5.09821 6.55055 5.36607 5.9559 5.94643C5.42071 6.5119 5.13826 7.18155 5.13826 7.98512C5.13826 8.80357 5.42071 9.4881 5.9559 10.0536C6.52081 10.5893 7.20466 10.872 8.0223 10.872ZM7.99257 6.11012V6.13988C8.46829 6.13988 8.95887 6.31845 9.31566 6.6756C9.67245 7.04762 9.85084 7.52381 9.85084 8C9.85084 8.47619 9.67245 8.95238 9.31566 9.3244C8.95887 9.68155 8.46829 9.86012 7.99257 9.86012C7.48712 9.86012 6.99653 9.68155 6.63974 9.3244C6.28295 8.96726 6.10456 8.47619 6.10456 7.97024C6.10456 7.49405 6.28295 7.00298 6.63974 6.64583C7.0114 6.28869 7.48712 6.11012 7.99257 6.11012ZM6.99653 8.99702C7.56145 9.5625 8.43855 9.5625 9.00347 8.99702C9.56838 8.43155 9.56838 7.55357 9.00347 6.9881C8.43855 6.42262 7.56145 6.42262 6.99653 6.9881C6.43162 7.55357 6.43162 8.43155 6.99653 8.99702ZM12.4078 9.51786H12.4227C12.5416 9.20536 12.7795 9.02679 13.1363 8.95238L14.5634 8.65476V7.375L13.1363 7.07738C12.7795 7.00298 12.5416 6.8244 12.4227 6.5119C12.3632 6.33333 12.3038 6.15476 12.2294 5.97619C12.0659 5.66369 12.0956 5.38095 12.274 5.08333L13.1065 3.84821L12.1997 2.94048L10.9658 3.77381C10.832 3.84821 10.6685 3.90774 10.4752 3.90774C10.3414 3.90774 10.1928 3.87798 10.0738 3.81845C9.89544 3.74405 9.71705 3.68452 9.53865 3.625C9.22646 3.50595 9.04807 3.26786 8.97374 2.91071L8.67641 1.48214H7.39792L7.10059 2.91071C7.02626 3.26786 6.84787 3.50595 6.53568 3.625C6.35728 3.68452 6.17889 3.74405 6.0005 3.81845C5.88157 3.87798 5.76264 3.90774 5.59911 3.90774C5.42071 3.90774 5.25719 3.84821 5.09366 3.77381L3.85976 2.94048L2.95292 3.84821L3.78543 5.08333C3.97869 5.36607 3.99356 5.67857 3.83003 5.99107C3.72597 6.16964 3.68137 6.34821 3.6219 6.52679C3.50297 6.83929 3.26511 7.01786 2.90832 7.09226L1.48117 7.38988V8.66964L2.90832 8.96726C3.26511 9.04167 3.50297 9.22024 3.6219 9.53274C3.68137 9.71131 3.72597 9.88988 3.83003 10.0685C3.99356 10.381 3.97869 10.6637 3.78543 10.9613L2.95292 12.1964L3.85976 13.1042L5.09366 12.2708C5.25719 12.1667 5.42071 12.1369 5.59911 12.1369C5.7329 12.1369 5.88157 12.1518 6.0005 12.2113C6.17889 12.3155 6.35728 12.3601 6.53568 12.4196C6.84787 12.5387 7.02626 12.7768 7.10059 13.1339L7.39792 14.5625H8.67641L8.97374 13.1339C9.04807 12.7768 9.22646 12.5387 9.53865 12.4196C9.71705 12.3601 9.89544 12.3155 10.0738 12.2113C10.2076 12.1518 10.3266 12.1369 10.4604 12.1369C10.6536 12.1369 10.8171 12.1667 10.9509 12.2708L12.1848 13.1042L13.0917 12.1964L12.2592 10.9613C12.0808 10.6637 12.051 10.3512 12.2146 10.0536C12.2889 9.875 12.3484 9.69643 12.4078 9.51786ZM13.2998 6.15476L14.7418 6.45238C15.1729 6.55655 15.5 6.89881 15.5 7.36012V8.63988C15.5 9.10119 15.1729 9.44345 14.7418 9.54762L13.2998 9.84524C13.2403 10.0685 13.1809 10.2619 13.0768 10.4554L13.8647 11.6607C14.1174 12.0625 14.0728 12.5238 13.7309 12.8661L12.8538 13.744C12.6606 13.9375 12.4524 14.0417 12.1997 14.0417C12.0064 14.0417 11.828 13.9821 11.6645 13.8631L10.4604 13.0744C10.2671 13.1488 10.0738 13.2381 9.85084 13.2976L9.55352 14.7411C9.44946 15.1726 9.10753 15.5 8.64668 15.5H7.36819C6.90733 15.5 6.56541 15.2024 6.46135 14.7411L6.16402 13.2976C5.94103 13.2381 5.74777 13.1488 5.55451 13.0744L4.35035 13.8631C4.21655 13.9821 4.03816 14.0417 3.81516 14.0417C3.5773 14.0417 3.33944 13.9375 3.14618 13.744L2.26908 12.8661C1.92716 12.5238 1.88256 12.0625 2.13528 11.6607L2.92319 10.4554C2.84886 10.2619 2.75966 10.0685 2.7002 9.84524L1.25818 9.54762C0.827056 9.44345 0.5 9.10119 0.5 8.63988V7.36012C0.5 6.89881 0.827056 6.55655 1.25818 6.45238L2.7002 6.15476C2.75966 5.93155 2.84886 5.7381 2.92319 5.54464L2.13528 4.33929C1.88256 3.9375 1.92716 3.47619 2.26908 3.13393L3.14618 2.25595C3.33944 2.0625 3.5773 1.95833 3.81516 1.95833C4.03816 1.95833 4.21655 2.01786 4.35035 2.1369L5.55451 2.9256C5.74777 2.82143 5.94103 2.7619 6.16402 2.70238L6.46135 1.25893C6.56541 0.827381 6.90733 0.5 7.36819 0.5H8.64668C9.10753 0.5 9.44946 0.827381 9.55352 1.25893L9.85084 2.70238C10.0738 2.7619 10.282 2.82143 10.4604 2.9256L11.6645 2.1369C11.828 2.01786 12.0064 1.95833 12.1997 1.95833C12.4524 1.95833 12.6606 2.0625 12.8538 2.25595L13.7309 3.13393C14.0728 3.47619 14.1174 3.9375 13.8647 4.33929L13.0768 5.54464C13.1809 5.72321 13.2403 5.93155 13.2998 6.15476Z"
        fill="#545454" />
</svg>