<svg width="25" height="25" viewBox="0 0 25 25" fill="none" xmlns="http://www.w3.org/2000/svg">
    <path
        d="M12.4941 15.5C12.4941 16.2956 12.8102 17.0587 13.3728 17.6213C13.9354 18.1839 14.6985 18.5 15.4941 18.5C16.2898 18.5 17.0529 18.1839 17.6155 17.6213C18.1781 17.0587 18.4941 16.2956 18.4941 15.5C18.4941 14.7044 18.1781 13.9413 17.6155 13.3787C17.0529 12.8161 16.2898 12.5 15.4941 12.5C14.6985 12.5 13.9354 12.8161 13.3728 13.3787C12.8102 13.9413 12.4941 14.7044 12.4941 15.5Z"
        stroke="currentColor" stroke-width="2" stroke-linecap="round" stroke-linejoin="round" />
    <path d="M13.4941 18V22.5L15.4941 21L17.4941 22.5V18" stroke="currentColor" stroke-width="2" stroke-linecap="round"
        stroke-linejoin="round" />
    <path
        d="M10.4941 19.5H5.49414C4.96371 19.5 4.455 19.2893 4.07993 18.9142C3.70485 18.5391 3.49414 18.0304 3.49414 17.5V7.5C3.49414 6.4 4.39414 5.5 5.49414 5.5H19.4941C20.0246 5.5 20.5333 5.71071 20.9084 6.08579C21.2834 6.46086 21.4941 6.96957 21.4941 7.5V17.5C21.4938 17.8507 21.4012 18.1952 21.2257 18.4988C21.0502 18.8025 20.7979 19.0546 20.4941 19.23M6.49414 9.5H18.4941M6.49414 12.5H9.49414M6.49414 15.5H8.49414"
        stroke="currentColor" stroke-width="2" stroke-linecap="round" stroke-linejoin="round" />
</svg>