<svg width="16" height="17" viewBox="0 0 16 17" fill="none" xmlns="http://www.w3.org/2000/svg">
    <path
        d="M11.6993 8.5013L9.33268 6.13464L10.2827 5.2013L11.6993 6.61797L14.5327 3.78464L15.466 4.73464L11.6993 8.5013ZM5.99935 8.5013C5.26602 8.5013 4.63824 8.24019 4.11602 7.71797C3.59379 7.19575 3.33268 6.56797 3.33268 5.83464C3.33268 5.1013 3.59379 4.47352 4.11602 3.9513C4.63824 3.42908 5.26602 3.16797 5.99935 3.16797C6.73268 3.16797 7.36046 3.42908 7.88268 3.9513C8.4049 4.47352 8.66602 5.1013 8.66602 5.83464C8.66602 6.56797 8.4049 7.19575 7.88268 7.71797C7.36046 8.24019 6.73268 8.5013 5.99935 8.5013ZM0.666016 13.8346V11.968C0.666016 11.5902 0.763349 11.2429 0.958016 10.926C1.15268 10.6091 1.4109 10.3675 1.73268 10.2013C2.42157 9.85686 3.12157 9.59841 3.83268 9.42597C4.54379 9.25352 5.26602 9.16752 5.99935 9.16797C6.73268 9.16797 7.4549 9.25419 8.16602 9.42664C8.87713 9.59908 9.57713 9.8573 10.266 10.2013C10.5882 10.368 10.8467 10.6097 11.0413 10.9266C11.236 11.2435 11.3331 11.5906 11.3327 11.968V13.8346H0.666016Z"
        fill="currentColor" />
</svg>