<svg width="16" height="16" viewBox="0 0 16 16" fill="none" xmlns="http://www.w3.org/2000/svg">
<path d="M1.26588 14.7341L0.519628 14.5619C0.460251 14.8192 0.53761 15.089 0.724327 15.2757C0.911052 15.4624 1.18079 15.5397 1.43809 15.4804L1.26588 14.7341ZM5.9732 11.1098C6.27229 10.8107 6.27229 10.3258 5.9732 10.0267C5.6741 9.72763 5.18919 9.72763 4.89011 10.0267L5.9732 11.1098ZM6.6269 9.75604C6.6269 9.96749 6.45546 10.139 6.24397 10.139V11.6707C7.3014 11.6707 8.15863 10.8135 8.15863 9.75604H6.6269ZM6.24397 10.139C6.03249 10.139 5.86104 9.96749 5.86104 9.75604H4.32932C4.32932 10.8135 5.18654 11.6707 6.24397 11.6707V10.139ZM5.86104 9.75604C5.86104 9.54451 6.03249 9.37311 6.24397 9.37311V7.84139C5.18654 7.84139 4.32932 8.69862 4.32932 9.75604H5.86104ZM6.24397 9.37311C6.45546 9.37311 6.6269 9.54451 6.6269 9.75604H8.15863C8.15863 8.69862 7.3014 7.84139 6.24397 7.84139V9.37311ZM9.81404 1.27355L8.38295 2.70466L9.46603 3.78775L10.8971 2.35665L9.81404 1.27355ZM8.71411 2.50982L4.74279 3.64447L5.16358 5.11726L9.13487 3.9826L8.71411 2.50982ZM2.49221 6.01403L0.519628 14.5619L2.01212 14.9063L3.98471 6.35845L2.49221 6.01403ZM1.43809 15.4804L9.98597 13.5078L9.64156 12.0152L1.09366 13.9879L1.43809 15.4804ZM12.3555 11.2572L13.4902 7.28591L12.0174 6.86507L10.8827 10.8364L12.3555 11.2572ZM13.2953 7.61707L14.7264 6.18595L13.6433 5.10286L12.2123 6.53399L13.2953 7.61707ZM14.7264 3.36991L12.6301 1.27355L11.547 2.35665L13.6433 4.453L14.7264 3.36991ZM14.7264 6.18595C14.8692 6.04323 15.0092 5.90405 15.1171 5.77698C15.2307 5.64307 15.353 5.47314 15.425 5.25125L13.9683 4.77793C13.9835 4.73091 14.0015 4.72423 13.9494 4.78569C13.8914 4.85398 13.8039 4.94227 13.6433 5.10286L14.7264 6.18595ZM13.6433 4.453C13.8039 4.61358 13.8914 4.70187 13.9494 4.77017C14.0015 4.83162 13.9835 4.82494 13.9683 4.77793L15.425 4.3046C15.353 4.08272 15.2307 3.91278 15.1171 3.77887C15.0092 3.65181 14.8692 3.51262 14.7264 3.36991L13.6433 4.453ZM15.425 5.25125C15.525 4.94362 15.525 4.61223 15.425 4.3046L13.9683 4.77793L15.425 5.25125ZM9.98597 13.5078C10.447 13.4014 10.8499 13.3178 11.1915 13.11L10.3955 11.8015C10.3151 11.8504 10.2055 11.8851 9.64156 12.0152L9.98597 13.5078ZM10.8827 10.8364C10.7237 11.3929 10.6834 11.5005 10.6304 11.5783L11.8963 12.4407C12.1214 12.1103 12.2256 11.7121 12.3555 11.2572L10.8827 10.8364ZM11.1915 13.11C11.4715 12.9398 11.7118 12.7115 11.8963 12.4407L10.6304 11.5783C10.5689 11.6686 10.4888 11.7447 10.3955 11.8015L11.1915 13.11ZM4.74279 3.64447C4.28785 3.77445 3.88972 3.87861 3.5593 4.10369L4.42165 5.3696C4.49944 5.31661 4.60704 5.27626 5.16358 5.11726L4.74279 3.64447ZM3.98471 6.35845C4.11486 5.79447 4.14961 5.68493 4.19853 5.60453L2.88991 4.80848C2.68212 5.15005 2.5986 5.55302 2.49221 6.01403L3.98471 6.35845ZM3.5593 4.10369C3.28845 4.2882 3.06022 4.5285 2.88991 4.80848L4.19853 5.60453C4.25529 5.5112 4.33137 5.4311 4.42165 5.3696L3.5593 4.10369ZM10.8971 2.35665C11.0577 2.19607 11.146 2.10861 11.2143 2.05064C11.2758 1.99846 11.2691 2.01644 11.2221 2.03171L10.7488 0.574964C10.5268 0.647062 10.357 0.769271 10.223 0.882947C10.096 0.990819 9.95679 1.13085 9.81404 1.27355L10.8971 2.35665ZM12.6301 1.27355C12.4874 1.13084 12.3482 0.990819 12.2211 0.882947C12.0872 0.769271 11.9173 0.647062 11.6954 0.574964L11.2221 2.03171C11.175 2.01644 11.1684 1.99847 11.2298 2.05064C11.2981 2.10861 11.3864 2.19606 11.547 2.35665L12.6301 1.27355ZM11.2221 2.03171L11.6954 0.574964C11.3877 0.475012 11.0564 0.475012 10.7488 0.574964L11.2221 2.03171ZM8.38295 3.78775L12.2123 7.61707L13.2953 6.53399L9.46603 2.70466L8.38295 3.78775ZM4.89011 10.0267L0.724327 14.1926L1.80742 15.2757L5.9732 11.1098L4.89011 10.0267Z" fill="currentColor"/>
</svg>
