<svg width="13" height="21" viewBox="0 0 13 21" fill="none" xmlns="http://www.w3.org/2000/svg">
    <path
        d="M12.9939 19.7C13.0233 20.0031 12.9363 20.3061 12.7506 20.5475C12.565 20.7889 12.2944 20.9507 11.9939 21H1.49389C1.19336 20.9507 0.922825 20.7889 0.737134 20.5475C0.551443 20.3061 0.464487 20.0031 0.49389 19.7V1.3C0.464487 0.996867 0.551443 0.693895 0.737134 0.452497C0.922825 0.211099 1.19336 0.0493366 1.49389 0H11.9939C12.2944 0.0493366 12.565 0.211099 12.7506 0.452497C12.9363 0.693895 13.0233 0.996867 12.9939 1.3V19.7Z"
        fill="#00A9DE" />
    <path
        d="M12.1949 17.3008C12.2087 17.4322 12.1964 17.5651 12.1585 17.6917C12.1206 17.8183 12.058 17.9362 11.9744 18.0385C11.8907 18.1408 11.7875 18.2255 11.6709 18.2877C11.5543 18.3498 11.4265 18.3883 11.2949 18.4008H2.09492C1.96335 18.3883 1.83556 18.3498 1.71894 18.2877C1.60232 18.2255 1.49919 18.1408 1.4155 18.0385C1.3318 17.9362 1.26922 17.8183 1.23136 17.6917C1.1935 17.5651 1.18112 17.4322 1.19493 17.3008V1.90078C1.18112 1.76934 1.1935 1.63647 1.23136 1.50984C1.26922 1.38322 1.3318 1.26535 1.4155 1.16307C1.49919 1.06078 1.60232 0.976093 1.71894 0.913908C1.83556 0.851724 1.96335 0.813274 2.09492 0.800781H11.1949C11.3265 0.813274 11.4543 0.851724 11.5709 0.913908C11.6875 0.976093 11.7907 1.06078 11.8744 1.16307C11.958 1.26535 12.0206 1.38322 12.0585 1.50984C12.0964 1.63647 12.1087 1.76934 12.0949 1.90078L12.1949 17.3008Z"
        fill="#F1F1F2" />
    <path
        d="M6.69375 20.3992C7.02512 20.3992 7.29375 20.1306 7.29375 19.7992C7.29375 19.4678 7.02512 19.1992 6.69375 19.1992C6.36238 19.1992 6.09375 19.4678 6.09375 19.7992C6.09375 20.1306 6.36238 20.3992 6.69375 20.3992Z"
        fill="#F1F1F2" />
    <path
        d="M10.6951 11.0004C10.6818 10.7451 10.5874 10.5007 10.4255 10.3029C10.2636 10.105 10.0427 9.96401 9.79511 9.90044V9.60044C9.87949 9.04453 9.74781 8.47742 9.42712 8.01556C9.10643 7.55371 8.62107 7.23217 8.07072 7.11698C7.52037 7.00179 6.9468 7.10169 6.46781 7.39618C5.98882 7.69066 5.64076 8.15736 5.49511 8.70044H4.99511C4.65033 8.70044 4.31967 8.83741 4.07587 9.0812C3.83207 9.325 3.69511 9.65566 3.69511 10.0004C3.44744 10.0743 3.23023 10.2261 3.07578 10.4333C2.92132 10.6405 2.83789 10.892 2.83789 11.1504C2.83789 11.4089 2.92132 11.6604 3.07578 11.8676C3.23023 12.0748 3.44744 12.2266 3.69511 12.3004H9.69511C9.99564 12.2511 10.2662 12.0893 10.4519 11.8479C10.6376 11.6065 10.7245 11.3036 10.6951 11.0004Z"
        stroke="#00A6D2" stroke-width="0.25" stroke-miterlimit="10" />
    <path
        d="M9.79414 11.8016H9.99414C10.0941 11.7016 10.2941 11.6016 10.1941 11.5016L9.89414 11.1016H9.79414L9.59414 11.3016H9.49414L9.69414 11.5016L9.79414 11.8016Z"
        fill="#737B7F" />
    <path
        d="M9.39426 10.9984C9.38548 11.0136 9.38086 11.0309 9.38086 11.0484C9.38086 11.066 9.38548 11.0832 9.39426 11.0984H9.69425L9.89426 10.8984H9.69425C9.69425 10.8984 9.79425 10.9984 9.59425 11.0984L9.39426 10.9984Z"
        fill="#737B7F" />
    <path
        d="M8.99453 10.1992L9.29453 10.4992C9.29453 10.4992 9.29453 10.4992 9.29453 10.5992H9.19453L8.89453 10.2992C8.96727 10.4195 9.00211 10.5589 8.99453 10.6992L9.29453 11.0992H9.39453V10.8992L9.09453 10.4992H8.99453"
        fill="#D2BA42" />
    <path
        d="M4.73947 10.035L4.66719 10.0555C4.66265 10.0435 4.65594 10.0317 4.64708 10.0204C4.63844 10.0088 4.62663 9.99925 4.61163 9.99175C4.59663 9.98425 4.57742 9.9805 4.55401 9.9805C4.52197 9.9805 4.49526 9.98788 4.4739 10.0027C4.45276 10.0172 4.44219 10.0357 4.44219 10.0582C4.44219 10.0782 4.44947 10.094 4.46401 10.1056C4.47856 10.1172 4.50129 10.1269 4.53219 10.1346L4.60992 10.1537C4.65674 10.165 4.69163 10.1824 4.71458 10.2058C4.73754 10.229 4.74901 10.2589 4.74901 10.2955C4.74901 10.3255 4.74038 10.3523 4.7231 10.376C4.70606 10.3996 4.68219 10.4182 4.65151 10.4319C4.62083 10.4455 4.58515 10.4523 4.54447 10.4523C4.49106 10.4523 4.44685 10.4407 4.41185 10.4175C4.37685 10.3944 4.35469 10.3605 4.34538 10.316L4.42174 10.2969C4.42901 10.325 4.44276 10.3462 4.46299 10.3603C4.48344 10.3744 4.51015 10.3814 4.5431 10.3814C4.5806 10.3814 4.61038 10.3735 4.63242 10.3575C4.65469 10.3414 4.66583 10.3221 4.66583 10.2996C4.66583 10.2814 4.65947 10.2662 4.64674 10.2539C4.63401 10.2414 4.61447 10.2321 4.5881 10.226L4.50083 10.2055C4.45288 10.1941 4.41765 10.1765 4.39515 10.1527C4.37288 10.1286 4.36174 10.0985 4.36174 10.0623C4.36174 10.0328 4.37004 10.0066 4.38663 9.98391C4.40344 9.96118 4.42629 9.94334 4.45515 9.93038C4.48424 9.91743 4.51719 9.91095 4.55401 9.91095C4.60583 9.91095 4.64651 9.92232 4.67606 9.94504C4.70583 9.96777 4.72697 9.99777 4.73947 10.035ZM4.87012 10.4414V9.91777H4.95058V10.4414H4.87012ZM4.91103 9.8305C4.89535 9.8305 4.88183 9.82516 4.87046 9.81447C4.85933 9.80379 4.85376 9.79095 4.85376 9.77595C4.85376 9.76095 4.85933 9.74811 4.87046 9.73743C4.88183 9.72675 4.89535 9.72141 4.91103 9.72141C4.92671 9.72141 4.94012 9.72675 4.95126 9.73743C4.96262 9.74811 4.9683 9.76095 4.9683 9.77595C4.9683 9.79095 4.96262 9.80379 4.95126 9.81447C4.94012 9.82516 4.92671 9.8305 4.91103 9.8305ZM5.3093 10.6487C5.27043 10.6487 5.23702 10.6437 5.20907 10.6337C5.18112 10.6239 5.15782 10.611 5.13918 10.5948C5.12077 10.5789 5.10612 10.5619 5.09521 10.5437L5.1593 10.4987C5.16657 10.5082 5.17577 10.5191 5.18691 10.5314C5.19805 10.5439 5.21327 10.5547 5.23259 10.5638C5.25214 10.5731 5.27771 10.5778 5.3093 10.5778C5.35157 10.5778 5.38646 10.5675 5.41396 10.5471C5.44146 10.5266 5.45521 10.4946 5.45521 10.451V10.3446H5.44839C5.44248 10.3541 5.43407 10.366 5.42316 10.38C5.41248 10.3939 5.39702 10.4063 5.3768 10.4172C5.3568 10.4279 5.32975 10.4332 5.29566 10.4332C5.25339 10.4332 5.21543 10.4232 5.1818 10.4032C5.14839 10.3832 5.12191 10.3541 5.10237 10.316C5.08305 10.2778 5.07339 10.2314 5.07339 10.1769C5.07339 10.1232 5.08282 10.0765 5.10168 10.0367C5.12055 9.99675 5.1468 9.96584 5.18043 9.94402C5.21407 9.92197 5.25293 9.91095 5.29702 9.91095C5.33112 9.91095 5.35816 9.91663 5.37816 9.928C5.39839 9.93913 5.41384 9.95186 5.42452 9.96618C5.43543 9.98027 5.44384 9.99186 5.44975 10.001H5.45793V9.91777H5.53566V10.4564C5.53566 10.5014 5.52543 10.538 5.50498 10.5662C5.48475 10.5946 5.45748 10.6154 5.42316 10.6286C5.38907 10.642 5.35112 10.6487 5.3093 10.6487ZM5.30657 10.361C5.33884 10.361 5.36612 10.3536 5.38839 10.3388C5.41066 10.324 5.42759 10.3028 5.43918 10.275C5.45077 10.2473 5.45657 10.2141 5.45657 10.1755C5.45657 10.1378 5.45089 10.1045 5.43952 10.0756C5.42816 10.0467 5.41134 10.0241 5.38907 10.0078C5.3668 9.99141 5.3393 9.98322 5.30657 9.98322C5.27248 9.98322 5.24407 9.99186 5.22134 10.0091C5.19884 10.0264 5.18191 10.0496 5.17055 10.0787C5.15941 10.1078 5.15384 10.14 5.15384 10.1755C5.15384 10.2119 5.15952 10.244 5.17089 10.272C5.18248 10.2997 5.19952 10.3215 5.22202 10.3374C5.24475 10.3531 5.27293 10.361 5.30657 10.361ZM5.76339 10.1264V10.4414H5.68293V9.91777H5.76066V9.99959H5.76748C5.77975 9.973 5.79839 9.95163 5.82339 9.9355C5.84839 9.91913 5.88066 9.91095 5.92021 9.91095C5.95566 9.91095 5.98668 9.91822 6.01327 9.93277C6.03986 9.94709 6.06055 9.96891 6.07532 9.99822C6.09009 10.0273 6.09748 10.0641 6.09748 10.1087V10.4414H6.01702V10.1141C6.01702 10.073 6.00634 10.041 5.98498 10.018C5.96361 9.99482 5.9343 9.98322 5.89702 9.98322C5.87134 9.98322 5.84839 9.98879 5.82816 9.99993C5.80816 10.0111 5.79236 10.0273 5.78077 10.0487C5.76918 10.07 5.76339 10.096 5.76339 10.1264ZM6.46404 10.4523C6.41359 10.4523 6.37006 10.4412 6.33347 10.4189C6.29711 10.3964 6.26904 10.365 6.24927 10.3248C6.22972 10.2844 6.21995 10.2373 6.21995 10.1837C6.21995 10.13 6.22972 10.0828 6.24927 10.0419C6.26904 10.0007 6.29654 9.96868 6.33177 9.94572C6.36722 9.92254 6.40859 9.91095 6.45586 9.91095C6.48313 9.91095 6.51006 9.9155 6.53665 9.92459C6.56325 9.93368 6.58745 9.94845 6.60927 9.96891C6.63109 9.98913 6.64847 10.016 6.66143 10.0494C6.67438 10.0828 6.68086 10.1239 6.68086 10.1728V10.2069H6.27722V10.1373H6.59904C6.59904 10.1078 6.59313 10.0814 6.58131 10.0582C6.56972 10.035 6.55313 10.0167 6.53154 10.0033C6.51018 9.98993 6.48495 9.98322 6.45586 9.98322C6.42381 9.98322 6.39609 9.99118 6.37268 10.0071C6.3495 10.0228 6.33165 10.0432 6.31915 10.0685C6.30665 10.0937 6.3004 10.1207 6.3004 10.1496V10.196C6.3004 10.2355 6.30722 10.269 6.32086 10.2965C6.33472 10.3238 6.35393 10.3446 6.37847 10.3589C6.40302 10.373 6.43154 10.38 6.46404 10.38C6.48518 10.38 6.50427 10.3771 6.52131 10.3712C6.53859 10.365 6.55347 10.356 6.56597 10.3439C6.57847 10.3316 6.58813 10.3164 6.59495 10.2982L6.67268 10.32C6.6645 10.3464 6.65075 10.3696 6.63143 10.3896C6.61211 10.4094 6.58825 10.4248 6.55984 10.436C6.53143 10.4469 6.4995 10.4523 6.46404 10.4523ZM7.00097 10.4523C6.95734 10.4523 6.91881 10.4413 6.8854 10.4192C6.852 10.397 6.82586 10.3656 6.807 10.3252C6.78813 10.2845 6.7787 10.2364 6.7787 10.181C6.7787 10.126 6.78813 10.0782 6.807 10.0378C6.82586 9.99732 6.85211 9.96607 6.88575 9.94402C6.91938 9.92197 6.95825 9.91095 7.00234 9.91095C7.03643 9.91095 7.06336 9.91663 7.08313 9.928C7.10313 9.93913 7.11836 9.95186 7.12881 9.96618C7.1395 9.98027 7.14779 9.99186 7.1537 10.001H7.16052V9.74322H7.24097V10.4414H7.16325V10.361H7.1537C7.14779 10.3705 7.13938 10.3825 7.12847 10.3971C7.11756 10.4114 7.102 10.4242 7.08177 10.4356C7.06154 10.4467 7.03461 10.4523 7.00097 10.4523ZM7.01188 10.38C7.04415 10.38 7.07143 10.3716 7.0937 10.3548C7.11597 10.3378 7.1329 10.3142 7.1445 10.2842C7.15609 10.254 7.16188 10.2191 7.16188 10.1796C7.16188 10.1405 7.1562 10.1063 7.14484 10.077C7.13347 10.0474 7.11665 10.0245 7.09438 10.0081C7.07211 9.99152 7.04461 9.98322 7.01188 9.98322C6.97779 9.98322 6.94938 9.99197 6.92665 10.0095C6.90415 10.0267 6.88722 10.0503 6.87586 10.08C6.86472 10.1096 6.85915 10.1428 6.85915 10.1796C6.85915 10.2169 6.86484 10.2507 6.8762 10.2812C6.88779 10.3114 6.90484 10.3355 6.92734 10.3535C6.95006 10.3712 6.97825 10.38 7.01188 10.38Z"
        fill="#00A7D7" />
</svg>