<svg width="44" height="50" viewBox="0 0 44 50" fill="none" xmlns="http://www.w3.org/2000/svg">
    <path fill-rule="evenodd" clip-rule="evenodd"
        d="M26.6015 0V12.6737H39.2752V43.0895H3.79102V0H26.6015ZM21.5385 30.4158H11.3963V32.9527H21.5385V30.4158ZM29.1384 25.3474H11.3963V27.8843H29.1384V25.3474ZM26.6015 20.279H11.3963V22.8159H26.6069L26.6015 20.279ZM31.6753 15.2106H11.3963V17.7475H31.6753V15.2106ZM21.5385 10.1422H11.3963V12.6791H21.5385V10.1422Z"
        fill="#357EEB" />
    <path fill-rule="evenodd" clip-rule="evenodd"
        d="M37.428 7.75609C38.1121 8.43475 38.5914 9.25346 38.8984 10.1368H29.1387V0.377014C30.0274 0.684027 30.8407 1.16878 31.5248 1.84744L37.428 7.75609Z"
        fill="#357EEB" />
    <path
        d="M9.05469 37.2294L13.1482 41.3229L14.1608 40.3103C14.4516 40.0194 14.2039 39.3731 13.7084 38.6782L15.1195 37.2671C19.6763 40.8327 26.2797 40.5203 30.4756 36.3245C35.0107 31.7893 35.0107 24.4372 30.4756 19.902C25.9404 15.3668 18.5882 15.3668 14.0531 19.902C9.85723 24.0978 9.54483 30.7013 13.1105 35.258L11.6993 36.6692C11.0045 36.1737 10.3635 35.9205 10.0673 36.2168L9.05469 37.2294ZM16.0352 21.8895C19.477 18.4477 25.0517 18.4477 28.4934 21.8895C31.9352 25.3313 31.9352 30.906 28.4934 34.3477C25.0517 37.7895 19.477 37.7895 16.0352 34.3477C12.5988 30.906 12.5988 25.3259 16.0352 21.8895Z"
        fill="#357EEB" stroke="white" stroke-miterlimit="10" />
    <path
        d="M1.52523 46.6659C2.50551 48.104 4.63306 49.8492 5.2417 49.2351L9.70146 44.7754L12.0929 42.3839L8.9474 39.2384L7.99943 38.2904L5.60796 40.6819L1.14819 45.1416C0.868112 45.4163 1.07817 46.0088 1.52523 46.6659Z"
        fill="#357EEB" stroke="white" stroke-miterlimit="10" />
    <path
        d="M22.4597 36.7338C27.2192 36.7338 31.0776 32.8875 31.0776 28.1429C31.0776 23.3982 27.2192 19.5519 22.4597 19.5519C17.7002 19.5519 13.8418 23.3982 13.8418 28.1429C13.8418 32.8875 17.7002 36.7338 22.4597 36.7338Z"
        fill="white" />
    <path
        d="M19.7996 31.6654C20.1443 31.7678 20.4944 31.5685 20.5914 31.2292L20.7961 30.572H23.1714L23.3653 31.2292C23.4461 31.5092 23.6992 31.687 23.9793 31.687C24.0385 31.687 24.0978 31.6762 24.157 31.6601C24.4964 31.5631 24.6903 31.2076 24.5933 30.8683L24.254 29.7156C24.2486 29.6995 24.2486 29.6887 24.2432 29.6726L23.2468 26.2685C23.0798 25.6868 22.5681 25.2936 21.981 25.2936C21.3939 25.2936 20.8876 25.6868 20.7153 26.2631L19.3687 30.8683C19.2664 31.2076 19.4657 31.5631 19.7996 31.6654Z"
        fill="#357EEB" />
    <path d="M22.0174 26.624L22.7984 29.2901H21.1934L22.0174 26.624Z" fill="white" />
    <path
        d="M29.3213 30.7175C29.5044 31.0191 29.4074 31.4123 29.1058 31.5954C29.0035 31.66 28.885 31.687 28.7719 31.687C28.5564 31.687 28.3464 31.5792 28.2225 31.38L27.2099 29.7156L26.1973 31.38C26.0788 31.5792 25.8687 31.687 25.6479 31.687C25.5348 31.687 25.4217 31.6546 25.3139 31.5954C25.0123 31.4123 24.9154 31.0191 25.0985 30.7175L26.4558 28.4876L25.0985 26.2577C24.9154 25.9561 25.0123 25.5629 25.3139 25.3797C25.6156 25.1966 26.0088 25.2936 26.1919 25.5952L27.2045 27.2595L28.2171 25.5952C28.4002 25.2936 28.7934 25.1966 29.095 25.3797C29.3967 25.5629 29.4936 25.9561 29.3105 26.2577L27.9532 28.4876L29.3213 30.7175Z"
        fill="#357EEB" />
    <path
        d="M16.7828 31.0514V26.5755H15.6624C15.3123 26.5755 15.0215 26.29 15.0215 25.9345C15.0215 25.579 15.307 25.2936 15.6624 25.2936H19.1796C19.5297 25.2936 19.8206 25.579 19.8206 25.9345C19.8206 26.29 19.5351 26.5755 19.1796 26.5755H18.0593V31.0514C18.0593 31.4069 17.7738 31.6924 17.4183 31.6924C17.0629 31.6924 16.7828 31.4015 16.7828 31.0514Z"
        fill="#357EEB" />
</svg>