<svg width="15" height="14" viewBox="0 0 15 14" fill="none" xmlns="http://www.w3.org/2000/svg">
<g id="uil:user-check">
<rect x="0.140625" width="14" height="14" rx="7" fill="#357EEB"/>
<path id="Vector" d="M8.73229 7.08667C9.04354 6.81724 9.2932 6.48402 9.4643 6.1096C9.63541 5.73518 9.72396 5.32833 9.72396 4.91667C9.72396 4.14312 9.41667 3.40125 8.86969 2.85427C8.32271 2.30729 7.58084 2 6.80729 2C6.03374 2 5.29188 2.30729 4.7449 2.85427C4.19792 3.40125 3.89062 4.14312 3.89062 4.91667C3.89062 5.32833 3.97918 5.73518 4.15028 6.1096C4.32139 6.48402 4.57104 6.81724 4.88229 7.08667C4.06571 7.45643 3.3729 8.05356 2.8867 8.80665C2.4005 9.55974 2.14148 10.4369 2.14062 11.3333C2.14063 11.488 2.20208 11.6364 2.31148 11.7458C2.42088 11.8552 2.56925 11.9167 2.72396 11.9167C2.87867 11.9167 3.02704 11.8552 3.13644 11.7458C3.24583 11.6364 3.30729 11.488 3.30729 11.3333C3.30729 10.4051 3.67604 9.51484 4.33242 8.85846C4.9888 8.20208 5.87903 7.83333 6.80729 7.83333C7.73555 7.83333 8.62579 8.20208 9.28217 8.85846C9.93854 9.51484 10.3073 10.4051 10.3073 11.3333C10.3073 11.488 10.3687 11.6364 10.4781 11.7458C10.5875 11.8552 10.7359 11.9167 10.8906 11.9167C11.0453 11.9167 11.1937 11.8552 11.3031 11.7458C11.4125 11.6364 11.474 11.488 11.474 11.3333C11.4731 10.4369 11.2141 9.55974 10.7279 8.80665C10.2417 8.05356 9.54888 7.45643 8.73229 7.08667ZM6.80729 6.66667C6.46117 6.66667 6.12283 6.56403 5.83504 6.37174C5.54726 6.17945 5.32296 5.90613 5.1905 5.58636C5.05805 5.26659 5.02339 4.91473 5.09092 4.57526C5.15844 4.23579 5.32511 3.92397 5.56985 3.67923C5.8146 3.43449 6.12642 3.26782 6.46588 3.20029C6.80535 3.13277 7.15722 3.16742 7.47699 3.29988C7.79676 3.43233 8.07007 3.65663 8.26236 3.94442C8.45466 4.2322 8.55729 4.57055 8.55729 4.91667C8.55729 5.3808 8.37292 5.82591 8.04473 6.1541C7.71654 6.48229 7.27142 6.66667 6.80729 6.66667ZM13.6381 5.28417C13.5839 5.22949 13.5194 5.1861 13.4483 5.15648C13.3772 5.12687 13.301 5.11162 13.224 5.11162C13.147 5.11162 13.0707 5.12687 12.9996 5.15648C12.9285 5.1861 12.864 5.22949 12.8098 5.28417L11.6431 6.45083L11.2815 6.08333C11.2272 6.02866 11.1627 5.98526 11.0916 5.95565C11.0205 5.92603 10.9443 5.91078 10.8673 5.91078C10.7903 5.91078 10.714 5.92603 10.643 5.95565C10.5719 5.98526 10.5074 6.02866 10.4531 6.08333C10.3445 6.19263 10.2835 6.34047 10.2835 6.49458C10.2835 6.64869 10.3445 6.79654 10.4531 6.90583L11.2348 7.6875C11.3441 7.79615 11.4919 7.85713 11.646 7.85713C11.8001 7.85713 11.948 7.79615 12.0573 7.6875L13.6148 6.13C13.6737 6.0771 13.7212 6.01278 13.7544 5.94093C13.7877 5.86908 13.8059 5.79123 13.8081 5.71209C13.8103 5.63296 13.7964 5.55422 13.7671 5.48065C13.7379 5.40708 13.694 5.34023 13.6381 5.28417Z" fill="white"/>
</g>
</svg>
