<svg width="15" height="15" viewBox="0 0 15 15" fill="none" xmlns="http://www.w3.org/2000/svg">
    <g clip-path="url(#clip0_5974_29806)">
        <mask id="path-1-inside-1_5974_29806" fill="white">
            <path
                d="M0.9375 9.16211C1.05353 9.16211 1.16481 9.2082 1.24686 9.29025C1.32891 9.3723 1.375 9.48358 1.375 9.59961V11.7871C1.375 12.0192 1.46719 12.2417 1.63128 12.4058C1.79538 12.5699 2.01794 12.6621 2.25 12.6621H12.75C12.9821 12.6621 13.2046 12.5699 13.3687 12.4058C13.5328 12.2417 13.625 12.0192 13.625 11.7871V9.59961C13.625 9.48358 13.6711 9.3723 13.7531 9.29025C13.8352 9.2082 13.9465 9.16211 14.0625 9.16211C14.1785 9.16211 14.2898 9.2082 14.3719 9.29025C14.4539 9.3723 14.5 9.48358 14.5 9.59961V11.7871C14.5 12.2512 14.3156 12.6964 13.9874 13.0245C13.6592 13.3527 13.2141 13.5371 12.75 13.5371H2.25C1.78587 13.5371 1.34075 13.3527 1.01256 13.0245C0.684374 12.6964 0.5 12.2512 0.5 11.7871V9.59961C0.5 9.48358 0.546094 9.3723 0.628141 9.29025C0.710188 9.2082 0.821468 9.16211 0.9375 9.16211Z" />
        </mask>
        <path
            d="M0.9375 9.16211C1.05353 9.16211 1.16481 9.2082 1.24686 9.29025C1.32891 9.3723 1.375 9.48358 1.375 9.59961V11.7871C1.375 12.0192 1.46719 12.2417 1.63128 12.4058C1.79538 12.5699 2.01794 12.6621 2.25 12.6621H12.75C12.9821 12.6621 13.2046 12.5699 13.3687 12.4058C13.5328 12.2417 13.625 12.0192 13.625 11.7871V9.59961C13.625 9.48358 13.6711 9.3723 13.7531 9.29025C13.8352 9.2082 13.9465 9.16211 14.0625 9.16211C14.1785 9.16211 14.2898 9.2082 14.3719 9.29025C14.4539 9.3723 14.5 9.48358 14.5 9.59961V11.7871C14.5 12.2512 14.3156 12.6964 13.9874 13.0245C13.6592 13.3527 13.2141 13.5371 12.75 13.5371H2.25C1.78587 13.5371 1.34075 13.3527 1.01256 13.0245C0.684374 12.6964 0.5 12.2512 0.5 11.7871V9.59961C0.5 9.48358 0.546094 9.3723 0.628141 9.29025C0.710188 9.2082 0.821468 9.16211 0.9375 9.16211Z"
            fill="#3B82F6" />
        <path
            d="M1.375 9.59961H2.375H1.375ZM1.375 11.7871H0.375H1.375ZM0.5 11.7871H-0.5H0.5ZM0.5 9.59961H-0.5H0.5ZM0.9375 10.1621C0.788313 10.1621 0.64524 10.1028 0.539752 9.99736L1.95397 8.58314C1.68438 8.31356 1.31875 8.16211 0.9375 8.16211V10.1621ZM0.539752 9.99736C0.434264 9.89187 0.375 9.74879 0.375 9.59961H2.375C2.375 9.21836 2.22355 8.85273 1.95397 8.58314L0.539752 9.99736ZM0.375 9.59961V11.7871H2.375V9.59961H0.375ZM0.375 11.7871C0.375 12.2844 0.572543 12.7613 0.924175 13.1129L2.33839 11.6987C2.36183 11.7222 2.375 11.754 2.375 11.7871H0.375ZM0.924175 13.1129C1.27581 13.4646 1.75272 13.6621 2.25 13.6621V11.6621C2.28315 11.6621 2.31494 11.6753 2.33839 11.6987L0.924175 13.1129ZM2.25 13.6621H12.75V11.6621H2.25V13.6621ZM12.75 13.6621C13.2473 13.6621 13.7242 13.4646 14.0758 13.1129L12.6616 11.6987C12.6851 11.6753 12.7168 11.6621 12.75 11.6621V13.6621ZM14.0758 13.1129C14.4275 12.7613 14.625 12.2844 14.625 11.7871H12.625C12.625 11.754 12.6382 11.7222 12.6616 11.6987L14.0758 13.1129ZM14.625 11.7871V9.59961H12.625V11.7871H14.625ZM14.625 9.59961C14.625 9.74879 14.5657 9.89187 14.4602 9.99736L13.046 8.58314C12.7764 8.85273 12.625 9.21836 12.625 9.59961H14.625ZM14.4602 9.99736C14.3548 10.1028 14.2117 10.1621 14.0625 10.1621V8.16211C13.6812 8.16211 13.3156 8.31356 13.046 8.58314L14.4602 9.99736ZM14.0625 10.1621C13.9133 10.1621 13.7702 10.1028 13.6648 9.99736L15.079 8.58314C14.8094 8.31356 14.4438 8.16211 14.0625 8.16211V10.1621ZM13.6648 9.99736C13.5593 9.89187 13.5 9.74879 13.5 9.59961H15.5C15.5 9.21836 15.3486 8.85273 15.079 8.58314L13.6648 9.99736ZM13.5 9.59961V11.7871H15.5V9.59961H13.5ZM13.5 11.7871C13.5 11.986 13.421 12.1768 13.2803 12.3174L14.6945 13.7317C15.2103 13.2159 15.5 12.5165 15.5 11.7871H13.5ZM13.2803 12.3174C13.1397 12.4581 12.9489 12.5371 12.75 12.5371V14.5371C13.4793 14.5371 14.1788 14.2474 14.6945 13.7317L13.2803 12.3174ZM12.75 12.5371H2.25V14.5371H12.75V12.5371ZM2.25 12.5371C2.05109 12.5371 1.86032 12.4581 1.71967 12.3174L0.305456 13.7317C0.821182 14.2474 1.52066 14.5371 2.25 14.5371V12.5371ZM1.71967 12.3174C1.57902 12.1768 1.5 11.986 1.5 11.7871H-0.5C-0.5 12.5165 -0.210269 13.2159 0.305456 13.7317L1.71967 12.3174ZM1.5 11.7871V9.59961H-0.5V11.7871H1.5ZM1.5 9.59961C1.5 9.74879 1.44074 9.89187 1.33525 9.99736L-0.078966 8.58314C-0.348549 8.85273 -0.5 9.21836 -0.5 9.59961H1.5ZM1.33525 9.99736C1.22976 10.1028 1.08669 10.1621 0.9375 10.1621V8.16211C0.556248 8.16211 0.190615 8.31356 -0.078966 8.58314L1.33525 9.99736Z"
            fill="#3B82F6" mask="url(#path-1-inside-1_5974_29806)" />
        <path
            d="M7.1908 1.50353C7.23144 1.46279 7.27972 1.43046 7.33287 1.40841C7.38603 1.38635 7.44301 1.375 7.50055 1.375C7.5581 1.375 7.61508 1.38635 7.66823 1.40841C7.72138 1.43046 7.76966 1.46279 7.8103 1.50353L10.4353 4.12853C10.5175 4.21068 10.5636 4.3221 10.5636 4.43828C10.5636 4.55446 10.5175 4.66588 10.4353 4.74803C10.3532 4.83018 10.2417 4.87633 10.1256 4.87633C10.0094 4.87633 9.89795 4.83018 9.8158 4.74803L7.93805 2.86941V10.5633C7.93805 10.6793 7.89196 10.7906 7.80991 10.8726C7.72787 10.9547 7.61659 11.0008 7.50055 11.0008C7.38452 11.0008 7.27324 10.9547 7.19119 10.8726C7.10915 10.7906 7.06305 10.6793 7.06305 10.5633V2.86941L5.1853 4.74803C5.14463 4.78871 5.09634 4.82098 5.04319 4.84299C4.99004 4.865 4.93308 4.87633 4.87555 4.87633C4.81803 4.87633 4.76106 4.865 4.70792 4.84299C4.65477 4.82098 4.60648 4.78871 4.5658 4.74803C4.52513 4.70736 4.49286 4.65906 4.47084 4.60592C4.44883 4.55277 4.4375 4.49581 4.4375 4.43828C4.4375 4.38076 4.44883 4.32379 4.47084 4.27065C4.49286 4.2175 4.52513 4.16921 4.5658 4.12853L7.1908 1.50353Z"
            fill="#3B82F6" />
    </g>
    <defs>
        <clipPath id="clip0_5974_29806">
            <rect width="14" height="14" fill="white" transform="translate(0.5 0.5)" />
        </clipPath>
    </defs>
</svg>