<svg width="21" height="21" viewBox="0 0 21 21" fill="none" xmlns="http://www.w3.org/2000/svg">
<path d="M5.51576 -0.000131536L0.636719 4.87891L4.39853 8.64071L9.27756 3.76168L5.51576 -0.000131536Z" fill="#F0BC61"/>
<path d="M5.87422 2.20312L7.17422 3.60313L6.47422 4.30312L5.07422 3.00312L5.87422 2.20312Z" fill="#A0B5C5"/>
<path d="M3.63719 4.47609L2.85938 5.25391L4.18166 6.5762L4.95948 5.79838L3.63719 4.47609Z" fill="#A0B5C5"/>
<path d="M19.6738 12.6039L10.0738 3.00391L9.27383 3.80391L4.47383 8.70391L3.67383 9.50391L13.2738 19.1039C14.1225 19.9526 15.2736 20.4294 16.4738 20.4294C17.0681 20.4294 17.6566 20.3123 18.2057 20.0849C18.7547 19.8575 19.2536 19.5241 19.6738 19.1039C20.0941 18.6837 20.4274 18.1848 20.6548 17.6357C20.8823 17.0867 20.9993 16.4982 20.9993 15.9039C20.9993 15.3096 20.8823 14.7211 20.6548 14.1721C20.4274 13.623 20.0941 13.1241 19.6738 12.7039V12.6039Z" fill="#00B4EA"/>
<path d="M19.6754 12.6016C20.5241 13.4503 21.0009 14.6013 21.0009 15.8016C21.0009 17.0018 20.5241 18.1529 19.6754 19.0016C18.8267 19.8503 17.6756 20.327 16.4754 20.327C15.2752 20.327 14.1241 19.8503 13.2754 19.0016L19.6754 12.6016Z" fill="#00A9DE"/>
</svg>
