<?xml version="1.0" encoding="UTF-8"?>
<!DOCTYPE svg PUBLIC "-//W3C//DTD SVG 1.1//EN" "http://www.w3.org/Graphics/SVG/1.1/DTD/svg11.dtd">
<svg xmlns="http://www.w3.org/2000/svg" version="1.1"  viewBox="0 0 512 512" viewport="0 0 26 26"
    style="shape-rendering:geometricPrecision; text-rendering:geometricPrecision; image-rendering:optimizeQuality; fill-rule:evenodd; clip-rule:evenodd"
    xmlns:xlink="http://www.w3.org/1999/xlink">
    <g>
        <path style="opacity:0.97" fill="#007aff"
            d="M 5.5,-0.5 C 134.833,-0.5 264.167,-0.5 393.5,-0.5C 396.139,1.30904 398.306,3.64238 400,6.5C 400.5,19.1623 400.667,31.8289 400.5,44.5C 450.068,50.5315 484.568,76.5315 504,122.5C 507.314,132.095 509.814,141.762 511.5,151.5C 511.5,161.5 511.5,171.5 511.5,181.5C 506.92,213.329 492.42,239.663 468,260.5C 467.667,319.5 467.333,378.5 467,437.5C 463.408,444.442 457.908,446.609 450.5,444C 434.167,433.167 417.833,422.333 401.5,411.5C 400.667,442.495 400.167,473.495 400,504.5C 398.306,507.358 396.139,509.691 393.5,511.5C 264.167,511.5 134.833,511.5 5.5,511.5C 3.16667,509.833 1.16667,507.833 -0.5,505.5C -0.5,338.833 -0.5,172.167 -0.5,5.5C 1.16667,3.16667 3.16667,1.16667 5.5,-0.5 Z M 383.5,66.5 C 438.581,68.1004 473.081,95.4337 487,148.5C 492.954,198.816 473.454,235.316 428.5,258C 387.219,273.277 350.385,266.11 318,236.5C 285.606,199.067 280.939,158.4 304,114.5C 322.98,86.0915 349.48,70.0915 383.5,66.5 Z M 22.5,89.5 C 112.502,89.1667 202.502,89.5 292.5,90.5C 282.32,102.86 275.32,116.86 271.5,132.5C 204.775,132.01 138.108,132.51 71.5,134C 68.4469,136.051 66.6135,138.885 66,142.5C 65.0295,174.548 65.3629,206.548 67,238.5C 68.1667,241 70,242.833 72.5,244C 146.5,244.333 220.5,244.667 294.5,245C 299.333,250.5 304.5,255.667 310,260.5C 310.011,320.224 310.678,379.891 312,439.5C 316.081,444.811 321.248,446.311 327.5,444C 343.833,433.167 360.167,422.333 376.5,411.5C 377.5,437.158 377.833,462.825 377.5,488.5C 259.167,488.5 140.833,488.5 22.5,488.5C 22.5,355.5 22.5,222.5 22.5,89.5 Z M 385.5,133.5 C 407.094,134.096 419.094,145.096 421.5,166.5C 419.629,186.205 408.796,197.205 389,199.5C 365.704,196.209 355.038,182.876 357,159.5C 361.339,144.987 370.839,136.32 385.5,133.5 Z M 89.5,155.5 C 148.5,155.5 207.5,155.5 266.5,155.5C 265.114,178.523 269.114,200.523 278.5,221.5C 215.5,221.5 152.5,221.5 89.5,221.5C 89.5,199.5 89.5,177.5 89.5,155.5 Z" />
    </g>
    <g>
        <path style="opacity:1" fill="#98c9ff"
            d="M 377.5,44.5 C 377.5,37.1667 377.5,29.8333 377.5,22.5C 259.167,22.5 140.833,22.5 22.5,22.5C 22.5,36.8333 22.5,51.1667 22.5,65.5C 121.5,65.5 220.5,65.5 319.5,65.5C 220.335,66.4994 121.001,66.8328 21.5,66.5C 21.5,51.5 21.5,36.5 21.5,21.5C 140.5,21.5 259.5,21.5 378.5,21.5C 378.825,29.3516 378.492,37.0182 377.5,44.5 Z" />
    </g>
    <g>
        <path style="opacity:1" fill="#cbe3ff"
            d="M 377.5,44.5 C 356.415,46.7498 337.082,53.7498 319.5,65.5C 220.5,65.5 121.5,65.5 22.5,65.5C 22.5,51.1667 22.5,36.8333 22.5,22.5C 140.833,22.5 259.167,22.5 377.5,22.5C 377.5,29.8333 377.5,37.1667 377.5,44.5 Z" />
    </g>
    <g>
        <path style="opacity:0.95" fill="#0079ff"
            d="M 380.5,110.5 C 413.258,108.772 434.424,123.439 444,154.5C 448.341,186.123 435.841,207.956 406.5,220C 379.933,226.791 358.433,219.291 342,197.5C 329.263,175.437 329.93,153.77 344,132.5C 353.523,120.66 365.69,113.327 380.5,110.5 Z M 385.5,133.5 C 370.839,136.32 361.339,144.987 357,159.5C 355.038,182.876 365.704,196.209 389,199.5C 408.796,197.205 419.629,186.205 421.5,166.5C 419.094,145.096 407.094,134.096 385.5,133.5 Z" />
    </g>
    <g>
        <path style="opacity:1" fill="#cbe3ff"
            d="M 333.5,275.5 C 370.303,292.825 407.136,292.825 444,275.5C 444.667,321.167 444.667,366.833 444,412.5C 427.833,401.667 411.667,390.833 395.5,380C 391.167,378 386.833,378 382.5,380C 366.333,390.833 350.167,401.667 334,412.5C 333.5,366.835 333.333,321.168 333.5,275.5 Z" />
    </g>
    <g>
        <path style="opacity:0.961" fill="#0079ff"
            d="M 74.5,288.5 C 135.834,288.333 197.168,288.5 258.5,289C 266.256,292.118 268.756,297.618 266,305.5C 264.337,307.917 262.171,309.75 259.5,311C 197.5,311.667 135.5,311.667 73.5,311C 65.66,306.472 63.9933,300.305 68.5,292.5C 70.2903,290.684 72.2903,289.351 74.5,288.5 Z" />
    </g>
    <g>
        <path style="opacity:0.961" fill="#0079ff"
            d="M 73.5,355.5 C 135.501,355.333 197.501,355.5 259.5,356C 269.015,362.069 269.681,369.069 261.5,377C 260.167,377.333 258.833,377.667 257.5,378C 196.5,378.667 135.5,378.667 74.5,378C 65.4444,373.617 63.611,367.117 69,358.5C 70.6516,357.601 72.1516,356.601 73.5,355.5 Z" />
    </g>
    <g>
        <path style="opacity:0.925" fill="#0079ff"
            d="M 76.5,421.5 C 136.168,421.333 195.834,421.5 255.5,422C 266.221,424.274 269.387,430.441 265,440.5C 262.806,443.181 259.973,444.681 256.5,445C 196.5,445.667 136.5,445.667 76.5,445C 66.5678,442.112 63.7345,435.945 68,426.5C 70.3978,423.892 73.2312,422.225 76.5,421.5 Z" />
    </g>
</svg>