<svg width="16" height="17" viewBox="0 0 16 17" fill="none" xmlns="http://www.w3.org/2000/svg">
<g clip-path="url(#clip0_902_30355)">
<path d="M7.08602 9.9013C7.33983 9.34356 7.70104 8.84128 8.149 8.42316C8.59697 8.00504 9.12292 7.67926 9.69681 7.46444C10.2707 7.24962 10.8813 7.14996 11.4937 7.17115C12.1061 7.19235 12.7084 7.33398 13.266 7.58797C13.8238 7.84178 14.326 8.20299 14.7442 8.65095C15.1623 9.09892 15.4881 9.62487 15.7029 10.1988C15.9177 10.7726 16.0174 11.3832 15.9962 11.9957C15.975 12.6081 15.8333 13.2103 15.5793 13.768C15.2097 14.584 14.6124 15.276 13.8591 15.7609C13.1058 16.2457 12.2285 16.5028 11.3327 16.5013C9.53268 16.5013 7.88602 15.4613 7.11268 13.8346H0.666016V12.5013C0.706016 11.7413 1.22602 11.1213 2.22602 10.6213C3.22602 10.1213 4.47935 9.8613 5.99935 9.83464C6.37935 9.83464 6.73935 9.86797 7.08602 9.9013ZM5.99935 3.16797C6.74602 3.18797 7.37268 3.44797 7.87268 3.94797C8.37268 4.44797 8.61935 5.07464 8.61935 5.83464C8.61935 6.59464 8.37268 7.2213 7.87268 7.7213C7.37268 8.2213 6.74602 8.46797 5.99935 8.46797C5.25268 8.46797 4.62602 8.2213 4.12602 7.7213C3.62602 7.2213 3.37935 6.59464 3.37935 5.83464C3.37935 5.07464 3.62602 4.44797 4.12602 3.94797C4.62602 3.44797 5.25268 3.18797 5.99935 3.16797ZM11.3327 15.168C12.2167 15.168 13.0646 14.8168 13.6897 14.1917C14.3148 13.5665 14.666 12.7187 14.666 11.8346C14.666 10.9506 14.3148 10.1027 13.6897 9.47761C13.0646 8.85249 12.2167 8.5013 11.3327 8.5013C10.4486 8.5013 9.60078 8.85249 8.97566 9.47761C8.35054 10.1027 7.99935 10.9506 7.99935 11.8346C7.99935 12.7187 8.35054 13.5665 8.97566 14.1917C9.60078 14.8168 10.4486 15.168 11.3327 15.168ZM10.666 9.83464H11.666V11.7146L13.2927 12.6546L12.7927 13.5213L10.666 12.2946V9.83464Z" fill="black"/>
</g>
<defs>
<clipPath id="clip0_902_30355">
<rect width="16" height="16" fill="white" transform="translate(0 0.5)"/>
</clipPath>
</defs>
</svg>

