<svg width="21" height="21" viewBox="0 0 21 21" fill="none" xmlns="http://www.w3.org/2000/svg">
<path d="M9.62305 15.5H11.623V9.5H9.62305V15.5ZM10.623 7.5C10.9064 7.5 11.144 7.404 11.336 7.212C11.528 7.02 11.6237 6.78267 11.623 6.5C11.623 6.21667 11.527 5.979 11.335 5.787C11.143 5.595 10.9057 5.49933 10.623 5.5C10.3397 5.5 10.102 5.596 9.91005 5.788C9.71805 5.98 9.62238 6.21733 9.62305 6.5C9.62305 6.78333 9.71905 7.021 9.91105 7.213C10.103 7.405 10.3404 7.50067 10.623 7.5ZM10.623 20.5C9.23971 20.5 7.93971 20.2373 6.72305 19.712C5.50638 19.1867 4.44805 18.4743 3.54805 17.575C2.64805 16.675 1.93571 15.6167 1.41105 14.4C0.88638 13.1833 0.623714 11.8833 0.623047 10.5C0.623047 9.11667 0.885714 7.81667 1.41105 6.6C1.93638 5.38333 2.64871 4.325 3.54805 3.425C4.44805 2.525 5.50638 1.81267 6.72305 1.288C7.93971 0.763333 9.23971 0.500667 10.623 0.5C12.0064 0.5 13.3064 0.762667 14.523 1.288C15.7397 1.81333 16.798 2.52567 17.698 3.425C18.598 4.325 19.3107 5.38333 19.836 6.6C20.3614 7.81667 20.6237 9.11667 20.623 10.5C20.623 11.8833 20.3604 13.1833 19.835 14.4C19.3097 15.6167 18.5974 16.675 17.698 17.575C16.798 18.475 15.7397 19.1877 14.523 19.713C13.3064 20.2383 12.0064 20.5007 10.623 20.5Z" fill="#357EEB"/>
</svg>
