<svg xmlns="http://www.w3.org/2000/svg" width="24" height="30" viewBox="0 0 24 30" fill="none" color="#EB6A00">
    <rect width="24" height="30" />
    <path
        d="M13 12C9.136 12 6 15.136 6 19C6 22.864 9.136 26 13 26C16.864 26 20 22.864 20 19C20 15.136 16.864 12 13 12ZM13.7 22.5H12.3V21.1H13.7V22.5ZM13.7 19.7H12.3V15.5H13.7V19.7Z"
        fill="currentColor" />
    <path
        d="M13 10.5C8.30757 10.5 4.5 14.3076 4.5 19C4.5 23.6924 8.30757 27.5 13 27.5C17.6924 27.5 21.5 23.6924 21.5 19C21.5 14.3076 17.6924 10.5 13 10.5Z"
        stroke="currentColor" stroke-opacity="0.2" stroke-width="3" />
    <path fill-rule="evenodd" clip-rule="evenodd"
        d="M7.55912 0C7.27269 8.53845e-05 6.99802 0.114606 6.79553 0.318375L0.316192 6.83577C0.215929 6.93665 0.136401 7.05639 0.0821485 7.18818C0.0278961 7.31997 -1.81238e-05 7.46121 8.82831e-09 7.60385V20.6386C8.82831e-09 21.5029 0.341321 22.3318 0.948877 22.9429C1.55643 23.554 2.38046 23.8973 3.23967 23.8973H4.31945C4.46285 23.8998 4.6053 23.8736 4.7385 23.8201C4.8717 23.7667 4.99298 23.687 5.09526 23.5859C5.19755 23.4848 5.27879 23.3642 5.33424 23.2312C5.3897 23.0981 5.41826 22.9553 5.41826 22.8111C5.41826 22.6668 5.3897 22.524 5.33424 22.391C5.27879 22.2579 5.19755 22.1373 5.09526 22.0362C4.99298 21.9351 4.8717 21.8555 4.7385 21.802C4.6053 21.7485 4.46285 21.7223 4.31945 21.7248H3.23967C2.95329 21.7248 2.67865 21.6103 2.47615 21.4067C2.27365 21.203 2.15989 20.9267 2.15989 20.6386V8.68997H7.55912C7.84553 8.68997 8.12021 8.57555 8.32276 8.37188C8.52531 8.1682 8.63914 7.89194 8.63923 7.60385V2.17258H16.1983C16.4847 2.17258 16.7594 2.28701 16.9619 2.49069C17.1644 2.69438 17.2781 2.97064 17.2781 3.2587V10.8626C17.283 11.1474 17.399 11.4189 17.601 11.6186C17.803 11.8183 18.0748 11.9302 18.3581 11.9302C18.6413 11.9302 18.9132 11.8183 19.1152 11.6186C19.3172 11.4189 19.4331 11.1474 19.438 10.8626V3.2587C19.438 2.39444 19.0967 1.56558 18.4891 0.954451C17.8816 0.343326 17.0576 0 16.1983 0H7.55912ZM6.47934 6.5174H3.68707L6.47934 3.70873V6.5174ZM9.58488 24C9.58694 23.9972 9.58933 23.9947 9.59201 23.9925C9.58979 23.9951 9.58741 23.9976 9.58488 24ZM14.1042 12.3664C14.1042 12.3648 14.1042 12.3642 14.1042 12.3642C14.1042 12.3642 14.1042 12.3658 14.1042 12.3697C14.1045 12.3681 14.1042 12.3668 14.1042 12.3661V12.3664Z"
        fill="black" />
</svg>