<?xml version="1.0" encoding="UTF-8"?>
<!DOCTYPE svg PUBLIC "-//W3C//DTD SVG 1.1//EN" "http://www.w3.org/Graphics/SVG/1.1/DTD/svg11.dtd">
<svg xmlns="http://www.w3.org/2000/svg" version="1.1" width="512px" height="512px" style="shape-rendering:geometricPrecision; text-rendering:geometricPrecision; image-rendering:optimizeQuality; fill-rule:evenodd; clip-rule:evenodd" xmlns:xlink="http://www.w3.org/1999/xlink">
<g><path style="opacity:0.977" fill="#438dff" d="M 232.5,-0.5 C 247.833,-0.5 263.167,-0.5 278.5,-0.5C 368.889,10.7579 436.722,55.7579 482,134.5C 497.83,165.481 507.664,198.148 511.5,232.5C 511.5,247.5 511.5,262.5 511.5,277.5C 500.708,368.422 455.708,436.589 376.5,482C 345.224,498.04 312.224,507.874 277.5,511.5C 262.833,511.5 248.167,511.5 233.5,511.5C 170.293,505.394 116.627,479.727 72.5,434.5C 70.8202,425.945 74.1535,421.779 82.5,422C 83.8333,422.667 85.1667,423.333 86.5,424C 111.263,449.053 140.263,467.553 173.5,479.5C 225.828,498.82 278.495,499.487 331.5,481.5C 389.341,461.829 433.508,425.495 464,372.5C 504.643,294.467 504.643,216.467 464,138.5C 433.212,85.2143 388.712,48.5476 330.5,28.5C 283.084,13.6307 235.418,12.7973 187.5,26C 181.557,27.7234 175.891,29.89 170.5,32.5C 118.956,52.5405 78.7889,86.2072 50,133.5C 10.6536,203.254 5.98691,275.254 36,349.5C 39.1394,357.112 42.8061,364.446 47,371.5C 48.5827,382.755 44.0827,386.422 33.5,382.5C 14.337,349.678 3.00367,314.344 -0.5,276.5C -0.5,262.833 -0.5,249.167 -0.5,235.5C 11.5027,133.348 64.1694,60.848 157.5,18C 181.82,8.50296 206.82,2.33629 232.5,-0.5 Z"/></g>
<g><path style="opacity:1" fill="#e5ebfc" d="M 330.5,28.5 C 396.402,60.2425 441.402,110.742 465.5,180C 465.43,180.765 465.097,181.265 464.5,181.5C 457.207,160.577 447.04,141.244 434,123.5C 432.167,120.333 429.667,117.833 426.5,116C 423.177,115.068 420.177,115.568 417.5,117.5C 409.242,109.908 401.242,101.908 393.5,93.5C 395.868,89.9481 396.035,86.2814 394,82.5C 336.664,38.3426 272.497,24.176 201.5,40C 125.011,61.9912 72.6779,110.158 44.5,184.5C 65.9722,116.033 108.639,65.5334 172.5,33C 171.906,32.5357 171.239,32.369 170.5,32.5C 175.891,29.89 181.557,27.7234 187.5,26C 235.418,12.7973 283.084,13.6307 330.5,28.5 Z"/></g>
<g><path style="opacity:0.994" fill="#fcfdfe" d="M 170.5,32.5 C 171.239,32.369 171.906,32.5357 172.5,33C 108.639,65.5334 65.9722,116.033 44.5,184.5C 28.7087,235.598 30.0421,286.265 48.5,336.5C 61.1157,374.954 82.1157,408.121 111.5,436C 121.955,445.39 132.955,454.056 144.5,462C 154.707,468.052 164.374,473.886 173.5,479.5C 140.263,467.553 111.263,449.053 86.5,424C 85.1667,423.333 83.8333,422.667 82.5,422C 74.1535,421.779 70.8202,425.945 72.5,434.5C 67.1192,429.434 61.9525,424.101 57,418.5C 55.5787,416.595 54.412,414.595 53.5,412.5C 62.9746,414.194 67.1412,410.194 66,400.5C 62.1457,396.329 57.6457,395.496 52.5,398C 49.4585,401.041 48.7918,404.541 50.5,408.5C 43.3438,400.867 37.6772,392.2 33.5,382.5C 44.0827,386.422 48.5827,382.755 47,371.5C 42.8061,364.446 39.1394,357.112 36,349.5C 5.98691,275.254 10.6536,203.254 50,133.5C 78.7889,86.2072 118.956,52.5405 170.5,32.5 Z"/></g>
<g><path style="opacity:1" fill="#c8d8fc" d="M 330.5,28.5 C 388.712,48.5476 433.212,85.2143 464,138.5C 504.643,216.467 504.643,294.467 464,372.5C 433.508,425.495 389.341,461.829 331.5,481.5C 394.764,451.063 438.764,402.897 463.5,337C 463.43,336.235 463.097,335.735 462.5,335.5C 481.634,284.364 482.301,233.03 464.5,181.5C 465.097,181.265 465.43,180.765 465.5,180C 441.402,110.742 396.402,60.2425 330.5,28.5 Z"/></g>
<g><path style="opacity:1" fill="#458efe" d="M 393.5,93.5 C 390.993,96.036 387.993,96.8693 384.5,96C 364.41,80.1106 342.077,68.2773 317.5,60.5C 234.497,37.7856 162.997,57.1189 103,118.5C 54.6924,175.35 40.0258,240.017 59,312.5C 66.2832,338.403 78.2832,361.736 95,382.5C 97.7048,389.752 95.2048,394.085 87.5,395.5C 84.3703,395.352 81.8703,394.018 80,391.5C 67.4224,374.343 56.9224,356.01 48.5,336.5C 30.0421,286.265 28.7087,235.598 44.5,184.5C 72.6779,110.158 125.011,61.9912 201.5,40C 272.497,24.176 336.664,38.3426 394,82.5C 396.035,86.2814 395.868,89.9481 393.5,93.5 Z"/></g>
<g><path style="opacity:1" fill="#e7ecfc" d="M 317.5,60.5 C 376.506,89.3592 415.673,135.359 435,198.5C 454.195,281.601 433.695,353.101 373.5,413C 357.36,426.651 340.026,438.484 321.5,448.5C 262.493,468.433 205.826,462.933 151.5,432C 143.557,427.056 135.891,421.723 128.5,416C 123.38,413.494 119.214,414.661 116,419.5C 115.333,421.833 115.333,424.167 116,426.5C 138.756,446.47 164.923,460.637 194.5,469C 272.501,488.4 342.167,472.4 403.5,421C 429.69,396.981 449.357,368.481 462.5,335.5C 463.097,335.735 463.43,336.235 463.5,337C 438.764,402.897 394.764,451.063 331.5,481.5C 278.495,499.487 225.828,498.82 173.5,479.5C 164.374,473.886 154.707,468.052 144.5,462C 132.955,454.056 121.955,445.39 111.5,436C 82.1157,408.121 61.1157,374.954 48.5,336.5C 56.9224,356.01 67.4224,374.343 80,391.5C 81.8703,394.018 84.3703,395.352 87.5,395.5C 95.2048,394.085 97.7048,389.752 95,382.5C 78.2832,361.736 66.2832,338.403 59,312.5C 40.0258,240.017 54.6924,175.35 103,118.5C 162.997,57.1189 234.497,37.7856 317.5,60.5 Z"/></g>
<g><path style="opacity:1" fill="#c8d8fc" d="M 317.5,60.5 C 342.077,68.2773 364.41,80.1106 384.5,96C 387.993,96.8693 390.993,96.036 393.5,93.5C 401.242,101.908 409.242,109.908 417.5,117.5C 414.964,120.007 414.131,123.007 415,126.5C 467.013,196.631 474.346,271.298 437,350.5C 411.174,398.163 372.674,430.83 321.5,448.5C 340.026,438.484 357.36,426.651 373.5,413C 433.695,353.101 454.195,281.601 435,198.5C 415.673,135.359 376.506,89.3592 317.5,60.5 Z"/></g>
<g><path style="opacity:1" fill="#448dfe" d="M 245.5,76.5 C 271.734,73.9257 290.234,84.5924 301,108.5C 302.796,113.684 303.629,119.017 303.5,124.5C 299.461,175.505 295.294,226.505 291,277.5C 282.99,301.924 266.49,310.758 241.5,304C 230.317,298.478 223.15,289.645 220,277.5C 215.745,226.336 211.578,175.169 207.5,124C 209.671,99.672 222.338,83.8386 245.5,76.5 Z"/></g>
<g><path style="opacity:1" fill="#a3c1f7" d="M 256.5,93.5 C 266.083,102 271.416,112.666 272.5,125.5C 266.59,177.526 260.423,229.526 254,281.5C 252.974,284.239 251.474,286.572 249.5,288.5C 242.367,286.532 238.201,281.865 237,274.5C 232.833,224.661 228.666,174.827 224.5,125C 224.843,110.326 231.843,100.326 245.5,95C 249.086,93.8924 252.753,93.3924 256.5,93.5 Z"/></g>
<g><path style="opacity:1" fill="#7facfa" d="M 256.5,93.5 C 271.536,95.0303 281.369,103.03 286,117.5C 286.167,119.833 286.333,122.167 286.5,124.5C 282.123,174.48 277.956,224.48 274,274.5C 270.178,286.827 262.011,291.493 249.5,288.5C 251.474,286.572 252.974,284.239 254,281.5C 260.423,229.526 266.59,177.526 272.5,125.5C 271.416,112.666 266.083,102 256.5,93.5 Z"/></g>
<g><path style="opacity:1" fill="#458efe" d="M 464.5,181.5 C 482.301,233.03 481.634,284.364 462.5,335.5C 449.357,368.481 429.69,396.981 403.5,421C 342.167,472.4 272.501,488.4 194.5,469C 164.923,460.637 138.756,446.47 116,426.5C 115.333,424.167 115.333,421.833 116,419.5C 119.214,414.661 123.38,413.494 128.5,416C 135.891,421.723 143.557,427.056 151.5,432C 205.826,462.933 262.493,468.433 321.5,448.5C 372.674,430.83 411.174,398.163 437,350.5C 474.346,271.298 467.013,196.631 415,126.5C 414.131,123.007 414.964,120.007 417.5,117.5C 420.177,115.568 423.177,115.068 426.5,116C 429.667,117.833 432.167,120.333 434,123.5C 447.04,141.244 457.207,160.577 464.5,181.5 Z"/></g>
<g><path style="opacity:1" fill="#448efe" d="M 246.5,332.5 C 273.542,330.589 290.709,342.589 298,368.5C 299.365,392.286 288.865,408.119 266.5,416C 245.6,420.298 229.433,413.465 218,395.5C 206.889,365.062 216.389,344.062 246.5,332.5 Z"/></g>
<g><path style="opacity:1" fill="#7eabfa" d="M 248.5,350.5 C 267.469,347.608 278.469,355.775 281.5,375C 278.606,393.762 267.939,401.929 249.5,399.5C 251.199,399.66 252.866,399.494 254.5,399C 264.309,386.647 266.143,373.147 260,358.5C 258.167,356 256.333,353.5 254.5,351C 252.527,350.505 250.527,350.338 248.5,350.5 Z"/></g>
<g><path style="opacity:1" fill="#a3c1f7" d="M 248.5,350.5 C 250.527,350.338 252.527,350.505 254.5,351C 256.333,353.5 258.167,356 260,358.5C 266.143,373.147 264.309,386.647 254.5,399C 252.866,399.494 251.199,399.66 249.5,399.5C 233.535,394.255 227.368,383.255 231,366.5C 234.472,358.526 240.305,353.192 248.5,350.5 Z"/></g>
<g><path style="opacity:1" fill="#4b90ff" d="M 53.5,412.5 C 51.7376,411.738 50.7376,410.404 50.5,408.5C 48.7918,404.541 49.4585,401.041 52.5,398C 57.6457,395.496 62.1457,396.329 66,400.5C 67.1412,410.194 62.9746,414.194 53.5,412.5 Z"/></g>
</svg>
