<svg xmlns="http://www.w3.org/2000/svg" width="30" height="30" viewBox="0 0 30 30" fill="none" color="#EB6A00">
    <path
        d="M15 3C8.376 3 3 8.376 3 15C3 21.624 8.376 27 15 27C21.624 27 27 21.624 27 15C27 8.376 21.624 3 15 3ZM16.2 21H13.8V18.6H16.2V21ZM16.2 16.2H13.8V9H16.2V16.2Z"
        fill="currentColor" />
    <path
        d="M15 1.5C7.54757 1.5 1.5 7.54757 1.5 15C1.5 22.4524 7.54757 28.5 15 28.5C22.4524 28.5 28.5 22.4524 28.5 15C28.5 7.54757 22.4524 1.5 15 1.5Z"
        stroke="currentColor" stroke-opacity="0.2" stroke-width="3" />
</svg>