<svg width="14" height="14" viewBox="0 0 14 14" fill="none" xmlns="http://www.w3.org/2000/svg">
<g id="x-lg">
<path id="Vector" fill-rule="evenodd" clip-rule="evenodd" d="M12.1218 1.87774C12.1626 1.91838 12.1949 1.96666 12.2169 2.01981C12.239 2.07296 12.2504 2.12994 12.2504 2.18749C12.2504 2.24504 12.239 2.30202 12.2169 2.35517C12.1949 2.40832 12.1626 2.4566 12.1218 2.49724L2.49683 12.1222C2.41468 12.2044 2.30325 12.2505 2.18708 12.2505C2.0709 12.2505 1.95948 12.2044 1.87733 12.1222C1.79518 12.0401 1.74902 11.9287 1.74902 11.8125C1.74902 11.6963 1.79518 11.5849 1.87733 11.5027L11.5023 1.87774C11.543 1.837 11.5912 1.80467 11.6444 1.78262C11.6975 1.76056 11.7545 1.74921 11.8121 1.74921C11.8696 1.74921 11.9266 1.76056 11.9798 1.78262C12.0329 1.80467 12.0812 1.837 12.1218 1.87774Z" fill="#374151"/>
<path id="Vector_2" fill-rule="evenodd" clip-rule="evenodd" d="M1.87756 1.87774C1.83681 1.91838 1.80449 1.96666 1.78243 2.01981C1.76038 2.07296 1.74902 2.12994 1.74902 2.18749C1.74902 2.24504 1.76038 2.30202 1.78243 2.35517C1.80449 2.40832 1.83681 2.4566 1.87756 2.49724L11.5026 12.1222C11.5847 12.2044 11.6961 12.2505 11.8123 12.2505C11.9285 12.2505 12.0399 12.2044 12.1221 12.1222C12.2042 12.0401 12.2504 11.9287 12.2504 11.8125C12.2504 11.6963 12.2042 11.5849 12.1221 11.5027L2.49706 1.87774C2.45642 1.837 2.40814 1.80467 2.35498 1.78262C2.30183 1.76056 2.24485 1.74921 2.18731 1.74921C2.12976 1.74921 2.07278 1.76056 2.01963 1.78262C1.96647 1.80467 1.9182 1.837 1.87756 1.87774Z" fill="#374151"/>
</g>
</svg>
