<svg xmlns="http://www.w3.org/2000/svg" width="24" height="24" viewBox="0 0 24 24" fill="none">
<g clip-path="url(#clip0_288_13293)">
<path d="M16.3283 13.0223C16.1948 13.0716 16.0708 13.1973 16.0231 13.3326C15.9913 13.4201 15.9929 13.5776 16.0247 13.6715C16.058 13.7686 16.1741 13.8959 16.2758 13.9484C16.5334 14.0804 16.864 13.9484 16.9673 13.6747C17.0913 13.3485 16.8465 12.9968 16.5 13C16.4396 13 16.3617 13.0112 16.3283 13.0223Z" fill="#1976D2"/>
<path d="M17.572 3.01433C17.3199 3.05444 17.1309 3.20201 16.9878 3.46848C16.9103 3.61031 16.8631 3.73925 16.7515 4.09742C16.6215 4.52006 16.5467 4.66762 16.4062 4.77937L16.355 4.81948H16.0504C15.7813 4.81948 15.7432 4.81662 15.7274 4.79513C15.6789 4.73209 15.4517 4.6447 15.2075 4.59599C15.1892 4.59169 15.1773 4.5788 15.1773 4.56447C15.1773 4.52436 15.1301 4.45272 15.0815 4.4212C15.0251 4.38252 14.8951 4.36246 14.8071 4.37679C14.7585 4.38539 14.7283 4.40115 14.6981 4.43266L14.6574 4.47564L14.5564 4.44699C14.2295 4.35673 13.7555 4.3467 13.5481 4.4255C13.3708 4.49427 13.2448 4.65186 13.2133 4.84097C13.2067 4.88109 13.1857 4.91977 13.1424 4.96991C13.0321 5.09885 12.9901 5.28797 13.0019 5.60029C13.0111 5.82092 13.0413 5.96562 13.1161 6.1361C13.2146 6.3596 13.4102 6.52865 13.6505 6.59742C13.8724 6.66189 14.2951 6.64613 14.559 6.5616L14.664 6.52865L14.6903 6.56877C14.727 6.62321 14.794 6.64327 14.9148 6.6361C15.0671 6.62607 15.1458 6.56734 15.1826 6.4341C15.1865 6.4212 15.2023 6.40974 15.2194 6.40974C15.2666 6.40974 15.5056 6.34384 15.5751 6.31089C15.6106 6.2937 15.6697 6.25788 15.7077 6.23066L15.7773 6.18052H16.0517H16.3261L16.3944 6.2235C16.5362 6.31232 16.611 6.45989 16.7672 6.95845C16.825 7.1404 16.9011 7.35673 16.9366 7.43553C17.0416 7.67192 17.1768 7.83381 17.337 7.91547C17.4722 7.98567 17.5523 8 17.786 8H18V5.5V3L17.8201 3.00143C17.7204 3.00287 17.6088 3.0086 17.572 3.01433Z" fill="#1976D2"/>
<path d="M18.3287 13.0223C18.195 13.0717 18.0709 13.1974 18.0231 13.3327C17.9913 13.4202 17.9929 13.5778 18.0247 13.6717C18.0581 13.7688 18.1743 13.8961 18.2762 13.9486C18.5166 14.0712 18.8286 13.9662 18.9479 13.721C19.1119 13.3868 18.8683 12.9953 18.5006 13C18.4401 13 18.3622 13.0112 18.3287 13.0223Z" fill="#1976D2"/>
<path d="M10.3331 0.016758C10.2678 0.023632 10.1441 0.0511322 10.0616 0.0751953C9.43098 0.257381 8.95843 0.742064 8.78145 1.38659L8.73505 1.55331L8.7299 5.14031L8.72646 8.72731L8.11817 8.73247L7.5116 8.73762L7.39303 8.79778C7.30883 8.84075 7.25728 8.882 7.21089 8.94387C7.08373 9.11059 7.09404 8.69122 7.09404 13.832V18.4657L6.62665 19.8716L6.15755 21.2792L5.63346 21.2706C5.13514 21.2638 5.10077 21.2621 4.93753 21.2191C4.52169 21.1108 4.20552 20.9321 3.91512 20.6399C3.62129 20.3477 3.44602 20.0332 3.32745 19.5914L3.28793 19.4453L3.28449 16.2708L3.27934 13.0963L3.92715 13.0912C4.54231 13.086 4.58355 13.0826 4.68837 13.0482C5.02173 12.9348 5.29323 12.6667 5.40492 12.3332L5.45303 12.1923V10.3704V8.54856L5.40664 8.41106C5.33103 8.18935 5.197 8.00201 5.02345 7.8731L4.92035 7.79748L4.91176 6.55655L4.90316 5.31734L4.86021 5.2314C4.80694 5.1214 4.70212 5.01828 4.59386 4.96328L4.50795 4.92203H2.72947H0.950995L0.85305 4.97016C0.741358 5.02515 0.645131 5.12312 0.591863 5.23828C0.555778 5.31562 0.555778 5.33625 0.547186 6.55655L0.538595 7.79748L0.432058 7.87654C0.255069 8.00716 0.107293 8.222 0.0368409 8.45403C0.00934752 8.53997 0.00591085 8.71872 0.00247418 10.2931C-0.00439916 12.096 -0.000962493 12.1751 0.0660526 12.3693C0.148533 12.6048 0.358169 12.8488 0.576398 12.9623C0.81181 13.0843 0.885698 13.0946 1.57303 13.0946H2.1796V16.1523C2.1796 19.2185 2.18304 19.3989 2.24146 19.7032C2.48375 20.9647 3.44258 21.9753 4.68837 22.2778C4.94269 22.3397 5.11452 22.362 5.47193 22.3741L5.78295 22.3844L5.62143 22.8742C5.46678 23.3469 5.4599 23.3692 5.46678 23.493C5.47709 23.7061 5.5905 23.8728 5.78639 23.9639L5.86543 24H14.732H23.5986L23.6966 23.9519C23.8753 23.8642 23.9835 23.6992 23.999 23.4913C24.0059 23.3778 23.999 23.3572 23.1931 20.9389L22.3786 18.5L22.37 13.8251L22.3614 9.15012L22.3168 9.05559C22.2601 8.93528 22.1638 8.83903 22.0436 8.78231L21.949 8.73762L21.3442 8.73247L20.7376 8.72731V5.2864C20.7376 3.09501 20.7307 1.77846 20.7204 1.66159C20.6397 0.803938 19.973 0.121601 19.1138 0.016758C18.9282 -0.00558662 10.5256 -0.00558662 10.3331 0.016758ZM19.2117 1.16144C19.4162 1.25768 19.5571 1.42612 19.6138 1.63753C19.6327 1.70971 19.6379 2.3319 19.6379 5.33797V8.95247L19.5674 8.98856C19.3629 9.09168 18.8165 9.28418 18.4213 9.39074C16.5208 9.90121 13.8351 9.96652 11.7421 9.55231C11.1132 9.42856 10.4276 9.22575 10.0152 9.04184L9.83478 8.96106L9.82963 5.33453C9.82619 2.05346 9.82791 1.6994 9.85369 1.61346C9.9207 1.38143 10.1028 1.20097 10.3503 1.1219C10.4053 1.10472 11.2851 1.10128 14.7578 1.103L19.0966 1.10644L19.2117 1.16144ZM3.81202 6.82123V7.64623L2.72603 7.64279L1.63833 7.63763L1.63317 6.83842C1.63146 6.39842 1.63317 6.0289 1.63833 6.01686C1.64348 6.0014 1.8789 5.99624 2.72947 5.99624H3.81202V6.82123ZM4.36189 10.3704V12.0118H2.72947H1.09705V10.3704V8.72903H2.72947H4.36189V10.3704ZM9.25914 9.86683C9.68529 10.1281 10.596 10.4357 11.4672 10.611C13.9227 11.1043 17.0191 10.9892 19.1018 10.3257C19.5142 10.1934 19.6774 10.1298 19.9919 9.9734L20.2857 9.82902H20.7771H21.2703V14.1946V18.5602L14.7286 18.5568L8.18518 18.5516L8.18003 14.1895L8.17659 9.82902H8.68694C9.1801 9.82902 9.20072 9.83074 9.25914 9.86683ZM22.1449 21.2621C22.4422 22.1541 22.6879 22.8931 22.6931 22.9034C22.6982 22.9206 21.1002 22.9258 14.7338 22.9258C10.352 22.9258 6.76756 22.9206 6.76756 22.9138C6.76756 22.9052 7.01156 22.1678 7.31055 21.2724L7.85354 19.643H14.7286H21.6054L22.1449 21.2621Z" fill="#1976D2" stroke="#1976D2"/>
</g>
<defs>
<clipPath id="clip0_288_13293">
<rect width="24" height="24" fill="white"/>
</clipPath>
</defs>
</svg>