<svg width="24" height="24" viewBox="0 0 24 24" fill="none" xmlns="http://www.w3.org/2000/svg"><g clip-path="url(#clip0_264:4991)"><path d="M17.8825 12H13.9609V13.4706H17.8825V12Z" fill="#1976D2"></path><path d="M17.8825 14.9414H13.9609V16.412H17.8825V14.9414Z" fill="#1976D2"></path><path d="M19.8433 7.09825H14.9414V4.15707C14.9414 3.07864 14.059 2.19629 12.9806 2.19629H11.0198C9.94139 2.19629 9.05903 3.07864 9.05903 4.15707V7.09825H4.15707C3.07864 7.09825 2.19629 7.9806 2.19629 9.05903V19.8433C2.19629 20.9218 3.07864 21.8041 4.15707 21.8041H19.8433C20.9218 21.8041 21.8041 20.9218 21.8041 19.8433V9.05903C21.8041 7.9806 20.9218 7.09825 19.8433 7.09825ZM11.0198 7.09825V4.15707H12.9806V7.09825V9.05903H11.0198V7.09825ZM19.8433 19.8433H4.15707V9.05903H9.05903C9.05903 10.1375 9.94139 11.0198 11.0198 11.0198H12.9806C14.059 11.0198 14.9414 10.1375 14.9414 9.05903H19.8433V19.8433Z" fill="#1976D2"></path><path d="M9.05946 14.9412C9.87164 14.9412 10.53 14.2828 10.53 13.4706C10.53 12.6584 9.87164 12 9.05946 12C8.24727 12 7.58887 12.6584 7.58887 13.4706C7.58887 14.2828 8.24727 14.9412 9.05946 14.9412Z" fill="#1976D2"></path><path d="M11.0986 16.0983C10.4711 15.8238 9.78483 15.6768 9.05934 15.6768C8.33385 15.6768 7.64758 15.8238 7.02012 16.0983C6.47111 16.3336 6.11816 16.863 6.11816 17.4611V17.8826H12.0005V17.4611C12.0005 16.863 11.6476 16.3336 11.0986 16.0983Z" fill="#1976D2"></path></g><defs><clipPath id="clip0_264:4991"><rect width="23.5294" height="23.5294" fill="white" transform="translate(0.235352 0.235352)"></rect></clipPath></defs></svg>