<svg width="64" height="19" viewBox="0 0 64 19" fill="none" xmlns="http://www.w3.org/2000/svg" role="figure"><g clip-path="url(#clip0_338:202)"><path fill-rule="evenodd" clip-rule="evenodd" d="M27.6739 7.55694V8.26078H24.7826V4.13035H27.6216V4.83446H25.5919V5.82887H27.3455V6.48062H25.5919V7.55694H27.6739Z" fill="#252323"></path><path fill-rule="evenodd" clip-rule="evenodd" d="M28.2192 4.33244H28.9809V7.50101C28.9809 7.61007 29.0074 7.69465 29.0606 7.75478C29.1134 7.81516 29.1892 7.84509 29.2878 7.84509C29.3332 7.84509 29.3833 7.83755 29.4382 7.82271C29.4935 7.80735 29.5455 7.78861 29.5948 7.76623L29.6974 8.34118C29.5948 8.39011 29.4757 8.42759 29.3393 8.45387C29.2026 8.48016 29.0795 8.49344 28.9693 8.49344C28.7308 8.49344 28.5461 8.43071 28.4155 8.30448C28.2848 8.1785 28.2192 7.99918 28.2192 7.76623V4.33244Z" fill="#252323"></path><path fill-rule="evenodd" clip-rule="evenodd" d="M32.181 6.72307C32.1619 6.50131 32.0795 6.32354 31.9336 6.19028C31.7877 6.05676 31.6106 5.99013 31.4023 5.99013C31.3 5.99013 31.2042 6.00783 31.1153 6.04349C31.0264 6.07941 30.9477 6.12938 30.8794 6.19315C30.811 6.25691 30.7553 6.33396 30.7118 6.42453C30.668 6.51433 30.6428 6.61427 30.6352 6.72307H32.181ZM31.4081 8.50464C31.1693 8.50464 30.9532 8.4643 30.7603 8.38361C30.567 8.30267 30.4022 8.19283 30.2655 8.05359C30.1291 7.9146 30.0239 7.75297 29.9502 7.5687C29.8764 7.38468 29.8392 7.19104 29.8392 6.98802C29.8392 6.77772 29.8754 6.57913 29.9473 6.3933C30.0192 6.2072 30.1236 6.04349 30.26 5.90268C30.3962 5.76187 30.562 5.64996 30.7572 5.56745C30.9521 5.48442 31.1712 5.4433 31.4133 5.4433C31.656 5.4433 31.8727 5.48442 32.0645 5.56745C32.2558 5.64996 32.4187 5.76083 32.5533 5.90008C32.6879 6.03907 32.79 6.2007 32.8603 6.38497C32.9298 6.56898 32.9652 6.76054 32.9652 6.95991C32.9652 7.00885 32.9642 7.0557 32.9626 7.10072C32.9605 7.14601 32.9558 7.18375 32.9484 7.21368H30.6462C30.6575 7.33028 30.6861 7.43361 30.7315 7.52367C30.7771 7.61398 30.8359 7.69102 30.9078 7.75479C30.9797 7.81856 31.0613 7.86749 31.1523 7.90133C31.2431 7.93542 31.3378 7.95208 31.4364 7.95208C31.5878 7.95208 31.7308 7.91564 31.8654 7.8425C32 7.76885 32.0918 7.67228 32.1414 7.55178L32.7949 7.73215C32.6848 7.95807 32.5095 8.14312 32.2689 8.28783C32.0283 8.43255 31.7413 8.50464 31.4081 8.50464Z" fill="#252323"></path><path fill-rule="evenodd" clip-rule="evenodd" d="M33.2427 6.9713C33.2427 6.76465 33.2789 6.56918 33.3508 6.38517C33.4227 6.20089 33.5271 6.039 33.6636 5.90028C33.7997 5.76103 33.9645 5.65015 34.1579 5.56739C34.3512 5.48462 34.569 5.4435 34.8114 5.4435C35.1373 5.4435 35.4148 5.51273 35.6439 5.65224C35.8732 5.79096 36.045 5.97341 36.1584 6.19881L35.4138 6.42447C35.3495 6.31541 35.2642 6.23187 35.1582 6.17357C35.052 6.11526 34.9344 6.08611 34.8059 6.08611C34.696 6.08611 34.5936 6.10772 34.4989 6.15092C34.404 6.19439 34.3216 6.25451 34.2515 6.33129C34.1812 6.40833 34.1264 6.50151 34.087 6.61057C34.0471 6.71962 34.0272 6.83987 34.0272 6.9713C34.0272 7.10274 34.0477 7.22325 34.0896 7.33204C34.1314 7.44136 34.1872 7.53532 34.2573 7.61418C34.3273 7.69278 34.4097 7.75421 34.5047 7.79715C34.5992 7.84062 34.6999 7.86222 34.8059 7.86222C34.9421 7.86222 35.068 7.82813 35.1834 7.76072C35.2991 7.69278 35.3797 7.61028 35.4251 7.51268L36.1699 7.73833C36.0676 7.96373 35.8989 8.148 35.6641 8.29089C35.4293 8.43378 35.1467 8.50484 34.8169 8.50484C34.5747 8.50484 34.3567 8.46346 34.1639 8.38095C33.9703 8.29818 33.8055 8.18652 33.6691 8.0452C33.5324 7.90439 33.4274 7.74093 33.3537 7.55484C33.28 7.36874 33.2427 7.17432 33.2427 6.9713Z" fill="#252323"></path><path fill-rule="evenodd" clip-rule="evenodd" d="M38.4211 8.29623C38.3188 8.34126 38.1939 8.38654 38.0456 8.43157C37.8979 8.4766 37.7426 8.49924 37.5799 8.49924C37.474 8.49924 37.3743 8.48597 37.2814 8.45968C37.1885 8.43365 37.1072 8.39123 37.0371 8.33293C36.9668 8.27463 36.9109 8.19941 36.8695 8.10727C36.8278 8.01539 36.807 7.90348 36.807 7.77178V6.07453H36.4148V5.49386H36.807V4.53553H37.5684V5.49386H38.1939V6.07453H37.5684V7.51827C37.5684 7.62368 37.5957 7.6976 37.6508 7.7408C37.7056 7.78427 37.7728 7.80561 37.8525 7.80561C37.9323 7.80561 38.01 7.7926 38.0858 7.76631C38.1616 7.74002 38.2222 7.71738 38.2676 7.69864L38.4211 8.29623Z" fill="#252323"></path><path fill-rule="evenodd" clip-rule="evenodd" d="M40.5919 6.14828C40.3608 6.15193 40.1545 6.19617 39.9727 6.28076C39.7906 6.36535 39.6597 6.49184 39.5807 6.66128V8.44858H38.8188V5.49395H39.5178V6.12564C39.5705 6.02413 39.6335 5.93277 39.7056 5.85235C39.7775 5.77114 39.8549 5.70087 39.9383 5.64075C40.0215 5.58036 40.106 5.53456 40.1915 5.50254C40.2765 5.47053 40.3587 5.45439 40.4384 5.45439H40.5321C40.5533 5.45439 40.573 5.45647 40.5919 5.46038V6.14828Z" fill="#252323"></path><path fill-rule="evenodd" clip-rule="evenodd" d="M41.4676 6.97709C41.4676 7.10853 41.4876 7.22774 41.5274 7.33497C41.5668 7.4422 41.6216 7.53512 41.6917 7.61424C41.762 7.69285 41.8444 7.75401 41.9394 7.79722C42.0341 7.84042 42.1364 7.86228 42.2463 7.86228C42.356 7.86228 42.458 7.84042 42.5533 7.79722C42.6477 7.75401 42.7301 7.69285 42.8004 7.61424C42.8705 7.53512 42.9256 7.44116 42.9652 7.33211C43.0048 7.22331 43.025 7.10281 43.025 6.97137C43.025 6.84357 43.0048 6.72515 42.9652 6.61583C42.9256 6.50704 42.8705 6.41308 42.8004 6.33422C42.7301 6.25509 42.6477 6.19419 42.5533 6.15072C42.458 6.10778 42.356 6.08618 42.2463 6.08618C42.1364 6.08618 42.0341 6.10882 41.9394 6.15359C41.8444 6.19887 41.762 6.26108 41.6917 6.33968C41.6216 6.41855 41.5668 6.5125 41.5274 6.62182C41.4876 6.73087 41.4676 6.84904 41.4676 6.97709ZM42.2463 8.5049C42.0036 8.5049 41.7859 8.46326 41.5928 8.38075C41.3994 8.29824 41.2354 8.18633 41.1011 8.04526C40.9665 7.90445 40.8629 7.74178 40.7913 7.55776C40.7191 7.37349 40.6832 7.17985 40.6832 6.97709C40.6832 6.77018 40.7191 6.57471 40.7913 6.39044C40.8629 6.20668 40.9665 6.04375 41.1011 5.90268C41.2354 5.76187 41.3994 5.64996 41.5928 5.56745C41.7859 5.48468 42.0036 5.4433 42.2463 5.4433C42.4887 5.4433 42.7057 5.48468 42.897 5.56745C43.0882 5.64996 43.2512 5.76187 43.3858 5.90268C43.5201 6.04375 43.6235 6.20668 43.6956 6.39044C43.7675 6.57471 43.8032 6.77018 43.8032 6.97709C43.8032 7.17985 43.7675 7.37349 43.6956 7.55776C43.6235 7.74178 43.5211 7.90445 43.3886 8.04526C43.2556 8.18633 43.0927 8.29824 42.8999 8.38075C42.7068 8.46326 42.4887 8.5049 42.2463 8.5049Z" fill="#252323"></path><path fill-rule="evenodd" clip-rule="evenodd" d="M47.0821 8.44842H46.3205V6.79074C46.3205 6.55389 46.2785 6.38107 46.1953 6.27227C46.1122 6.16296 45.9965 6.10856 45.8488 6.10856C45.7729 6.10856 45.6953 6.12339 45.6155 6.15359C45.5363 6.18378 45.461 6.2262 45.3915 6.2806C45.3212 6.335 45.2579 6.39981 45.201 6.47502C45.1438 6.55024 45.1023 6.63301 45.0761 6.72307V8.44842H44.3142V5.49379H45.0019V6.04089C45.1118 5.85297 45.271 5.70644 45.4796 5.60102C45.6879 5.49587 45.9225 5.4433 46.1841 5.4433C46.3698 5.4433 46.5212 5.47687 46.639 5.54481C46.756 5.61248 46.8471 5.70071 46.9116 5.80976C46.9761 5.91882 47.0205 6.04297 47.0449 6.18196C47.0698 6.32068 47.0821 6.46201 47.0821 6.6049V8.44842Z" fill="#252323"></path><mask id="mask0_338:202" maskUnits="userSpaceOnUse" x="0" y="0" width="62" height="19" style="mask-type: alpha;"><path d="M0 19.0001H61.0268V0.0839005H0V19.0001Z" fill="white"></path></mask><g mask="url(#mask0_338:202)"><path fill-rule="evenodd" clip-rule="evenodd" d="M47.7477 8.44841H48.5093V5.49378H47.7477V8.44841ZM47.7477 5.08228H48.5093V4.33244H47.7477V5.08228Z" fill="#252323"></path><path fill-rule="evenodd" clip-rule="evenodd" d="M49.0085 6.9713C49.0085 6.76465 49.0448 6.56918 49.1164 6.38517C49.1885 6.20089 49.2927 6.039 49.4294 5.90028C49.5653 5.76103 49.7303 5.65015 49.9234 5.56739C50.117 5.48462 50.3348 5.4435 50.5772 5.4435C50.9031 5.4435 51.1804 5.51273 51.4097 5.65224C51.6387 5.79096 51.8108 5.97341 51.9242 6.19881L51.1793 6.42447C51.1151 6.31541 51.03 6.23187 50.9241 6.17357C50.8178 6.11526 50.7003 6.08611 50.5717 6.08611C50.4615 6.08611 50.3592 6.10772 50.2647 6.15092C50.1698 6.19439 50.0874 6.25451 50.0173 6.33129C49.947 6.40833 49.8922 6.50151 49.8528 6.61057C49.8127 6.71962 49.793 6.83987 49.793 6.9713C49.793 7.10274 49.8135 7.22325 49.8554 7.33204C49.8972 7.44136 49.953 7.53532 50.0231 7.61418C50.0932 7.69278 50.1755 7.75421 50.2705 7.79715C50.365 7.84062 50.4657 7.86222 50.5717 7.86222C50.7079 7.86222 50.8338 7.82813 50.9492 7.76072C51.0649 7.69278 51.1457 7.61028 51.1909 7.51268L51.9357 7.73833C51.8334 7.96373 51.6647 8.148 51.4299 8.29089C51.1948 8.43378 50.9125 8.50484 50.5827 8.50484C50.3406 8.50484 50.1223 8.46346 49.9294 8.38095C49.7361 8.29818 49.5713 8.18652 49.4349 8.0452C49.2982 7.90439 49.1932 7.74093 49.1195 7.55484C49.0458 7.36874 49.0085 7.17432 49.0085 6.9713Z" fill="#252323"></path><path fill-rule="evenodd" clip-rule="evenodd" d="M24.8834 14.6951H25.6674V10.6919H24.8834V14.6951Z" fill="#252323"></path><path fill-rule="evenodd" clip-rule="evenodd" d="M29.1748 12.6879C29.1748 12.4963 29.1478 12.3196 29.0951 12.1577C29.0418 11.9963 28.9642 11.8571 28.8621 11.7405C28.7598 11.6244 28.6336 11.5338 28.4838 11.4701C28.3345 11.406 28.1647 11.3743 27.9753 11.3743H27.2932V14.013H27.9753C28.1684 14.013 28.3397 13.9789 28.4898 13.9112C28.6394 13.8435 28.7645 13.7506 28.8647 13.6324C28.9652 13.5137 29.0418 13.374 29.0951 13.2123C29.1478 13.0507 29.1748 12.8758 29.1748 12.6879ZM26.509 14.6951V10.6919H27.9753C28.3051 10.6919 28.594 10.7447 28.8419 10.8498C29.0904 10.9553 29.2979 11.0981 29.4645 11.2783C29.6311 11.4589 29.7562 11.6702 29.8394 11.9125C29.9228 12.1551 29.9645 12.4136 29.9645 12.6879C29.9645 12.9924 29.9181 13.2678 29.8252 13.5137C29.7324 13.76 29.5988 13.9705 29.4246 14.1454C29.2504 14.3201 29.0408 14.4554 28.7968 14.5512C28.5522 14.6472 28.2786 14.6951 27.9753 14.6951H26.509Z" fill="#252323"></path><path fill-rule="evenodd" clip-rule="evenodd" d="M32.658 12.9697C32.6386 12.748 32.5562 12.5702 32.4106 12.437C32.2645 12.3034 32.0874 12.2368 31.8791 12.2368C31.7768 12.2368 31.681 12.2545 31.5923 12.2902C31.5031 12.3261 31.4244 12.3761 31.3562 12.4398C31.288 12.5036 31.2321 12.5806 31.1885 12.6712C31.145 12.761 31.1195 12.8609 31.1119 12.9697H32.658ZM31.8848 14.7513C31.6464 14.7513 31.4299 14.711 31.2371 14.6303C31.044 14.5493 30.8789 14.4395 30.7423 14.3003C30.6061 14.1613 30.5006 13.9996 30.4269 13.8154C30.3532 13.6314 30.3159 13.4377 30.3159 13.2347C30.3159 13.0244 30.3524 12.8258 30.424 12.64C30.4959 12.4539 30.6003 12.2902 30.737 12.1494C30.8729 12.0085 31.0387 11.8966 31.2339 11.8141C31.4289 11.7311 31.6479 11.69 31.8904 11.69C32.133 11.69 32.3498 11.7311 32.5415 11.8141C32.7325 11.8966 32.8955 12.0075 33.0301 12.1468C33.1646 12.2857 33.2667 12.4474 33.337 12.6316C33.4068 12.8157 33.442 13.0072 33.442 13.2066C33.442 13.2555 33.4412 13.3024 33.4393 13.3474C33.4372 13.3927 33.4325 13.4304 33.4252 13.4604H31.1229C31.1345 13.577 31.1631 13.6803 31.2085 13.7703C31.2539 13.8607 31.3129 13.9377 31.3845 14.0015C31.4564 14.0652 31.538 14.1142 31.629 14.148C31.7201 14.1821 31.8145 14.1988 31.9132 14.1988C32.0646 14.1988 32.2076 14.1623 32.3421 14.0892C32.4767 14.0155 32.5688 13.919 32.6181 13.7985L33.2717 13.9788C33.1618 14.2047 32.9862 14.3898 32.7457 14.5345C32.5051 14.6792 32.218 14.7513 31.8848 14.7513Z" fill="#252323"></path><path fill-rule="evenodd" clip-rule="evenodd" d="M36.6762 14.6951H35.9145V13.0374C35.9145 12.8006 35.8726 12.6277 35.7894 12.5189C35.7062 12.4096 35.5905 12.3552 35.4428 12.3552C35.367 12.3552 35.2893 12.3701 35.2096 12.4003C35.1301 12.4305 35.055 12.4729 34.9855 12.5273C34.9152 12.5817 34.8517 12.6465 34.795 12.7217C34.7379 12.7969 34.6964 12.8797 34.6702 12.9697V14.6951H33.9083V11.7405H34.5957V12.2876C34.7058 12.0996 34.8648 11.9531 35.0737 11.8477C35.282 11.7425 35.5165 11.69 35.7781 11.69C35.9639 11.69 36.1153 11.7235 36.2331 11.7915C36.3501 11.8591 36.4411 11.9474 36.5057 12.0564C36.5702 12.1655 36.6145 12.2896 36.6389 12.4286C36.6639 12.5674 36.6762 12.7087 36.6762 12.8516V14.6951Z" fill="#252323"></path><path fill-rule="evenodd" clip-rule="evenodd" d="M39.0971 14.5427C38.9948 14.5877 38.8699 14.633 38.7219 14.678C38.5742 14.7231 38.4186 14.7457 38.256 14.7457C38.15 14.7457 38.0505 14.7324 37.9577 14.7062C37.8648 14.6801 37.7832 14.6377 37.7131 14.5794C37.6428 14.5211 37.5869 14.4459 37.5458 14.3537C37.5038 14.2619 37.483 14.1499 37.483 14.0183V12.321H37.0908V11.7403H37.483V10.782H38.2447V11.7403H38.8699V12.321H38.2447V13.7647C38.2447 13.8702 38.272 13.9441 38.3268 13.9873C38.3816 14.0307 38.4488 14.0521 38.5286 14.0521C38.6083 14.0521 38.6862 14.0391 38.7618 14.0128C38.8376 13.9865 38.8982 13.9639 38.9436 13.9451L39.0971 14.5427Z" fill="#252323"></path><path fill-rule="evenodd" clip-rule="evenodd" d="M39.4949 14.6951H40.2565V11.7405H39.4949V14.6951ZM39.4949 11.329H40.2565V10.5791H39.4949V11.329Z" fill="#252323"></path><path fill-rule="evenodd" clip-rule="evenodd" d="M41.126 14.6951V12.4734H40.734V11.8987H41.126V11.7181C41.126 11.3495 41.2149 11.0585 41.3933 10.8441C41.5709 10.6299 41.8136 10.5226 42.1206 10.5226C42.3633 10.5226 42.6073 10.5809 42.8539 10.6978L42.7004 11.267C42.6435 11.2368 42.5763 11.2116 42.4984 11.191C42.421 11.1702 42.3496 11.1598 42.2854 11.1598C42.0204 11.1598 41.8876 11.3368 41.8876 11.69V11.8987H42.6151V12.4734H41.8876V14.6951H41.126Z" fill="#252323"></path><path fill-rule="evenodd" clip-rule="evenodd" d="M43.2889 14.6951H44.0505V11.7405H43.2889V14.6951ZM43.2889 11.329H44.0505V10.5791H43.2889V11.329Z" fill="#252323"></path><path fill-rule="evenodd" clip-rule="evenodd" d="M44.5506 13.2178C44.5506 13.0111 44.5868 12.8157 44.6587 12.6316C44.7306 12.4474 44.835 12.2855 44.9714 12.1468C45.1076 12.0075 45.2724 11.8966 45.4657 11.8139C45.6591 11.7311 45.8768 11.69 46.1193 11.69C46.4454 11.69 46.7227 11.7592 46.9517 11.8987C47.181 12.0374 47.3529 12.2199 47.4665 12.4453L46.7216 12.6709C46.6574 12.5619 46.5721 12.4783 46.4661 12.42C46.3598 12.3617 46.2423 12.3326 46.1138 12.3326C46.0038 12.3326 45.9015 12.3542 45.8068 12.3974C45.7121 12.4409 45.6294 12.501 45.5594 12.5778C45.4891 12.6548 45.4342 12.748 45.3949 12.857C45.355 12.9661 45.3351 13.0863 45.3351 13.2178C45.3351 13.3492 45.3555 13.4697 45.3975 13.5785C45.4395 13.6878 45.4951 13.7818 45.5652 13.8607C45.6352 13.9393 45.7176 14.0007 45.8126 14.0436C45.9073 14.0871 46.0078 14.1087 46.1138 14.1087C46.2502 14.1087 46.3759 14.0746 46.4916 14.0072C46.6073 13.9393 46.6878 13.8568 46.7329 13.7592L47.4778 13.9848C47.3755 14.2102 47.2068 14.3945 46.9719 14.5374C46.7371 14.6803 46.4548 14.7513 46.125 14.7513C45.8826 14.7513 45.6646 14.7099 45.4718 14.6274C45.2781 14.5447 45.1136 14.433 44.9769 14.2917C44.8402 14.1509 44.7353 13.9874 44.6616 13.8013C44.5879 13.6152 44.5506 13.4208 44.5506 13.2178Z" fill="#252323"></path><path fill-rule="evenodd" clip-rule="evenodd" d="M48.9721 14.1988C49.1007 14.1988 49.2227 14.1761 49.3387 14.1311C49.4541 14.0861 49.5441 14.0259 49.6084 13.9507C49.6921 13.8869 49.7333 13.8154 49.7333 13.7368V13.3982C49.6427 13.3643 49.5441 13.3372 49.4378 13.3164C49.3318 13.2959 49.2295 13.2855 49.1309 13.2855C48.9341 13.2855 48.7727 13.33 48.6479 13.4179C48.5232 13.5064 48.4605 13.6181 48.4605 13.7534C48.4605 13.8815 48.5096 13.9874 48.6082 14.0717C48.7066 14.1566 48.8281 14.1988 48.9721 14.1988ZM48.7559 14.7513C48.6119 14.7513 48.4773 14.7276 48.3524 14.6808C48.2273 14.6342 48.1197 14.5681 48.0284 14.4835C47.9376 14.3992 47.8665 14.3003 47.8154 14.1876C47.7642 14.0746 47.7388 13.9507 47.7388 13.8154C47.7388 13.6764 47.77 13.5475 47.8322 13.4291C47.8951 13.3107 47.9822 13.2102 48.0937 13.1277C48.2055 13.0447 48.3391 12.9799 48.4946 12.933C48.6497 12.8862 48.8202 12.8625 49.006 12.8625C49.1387 12.8625 49.2686 12.8737 49.3956 12.8966C49.5223 12.919 49.6349 12.951 49.7333 12.9924V12.8232C49.7333 12.6275 49.6776 12.4773 49.5661 12.3721C49.4541 12.2667 49.2885 12.2142 49.0687 12.2142C48.9094 12.2142 48.7541 12.2425 48.6025 12.299C48.4511 12.3552 48.2955 12.4377 48.1365 12.5471L47.9035 12.0676C48.2863 11.8157 48.699 11.69 49.1424 11.69C49.5706 11.69 49.9033 11.7943 50.1399 12.0028C50.3768 12.2116 50.4951 12.513 50.4951 12.9078V13.8266C50.4951 13.9057 50.5093 13.9619 50.5379 13.9957C50.5662 14.0298 50.6127 14.0486 50.677 14.0522V14.6951C50.5481 14.7211 50.4364 14.7347 50.3417 14.7347C50.1976 14.7347 50.0867 14.7026 50.0093 14.6386C49.9316 14.5748 49.8833 14.4903 49.8642 14.3851L49.8474 14.2214C49.7144 14.3945 49.5535 14.5259 49.3641 14.616C49.1744 14.7063 48.9721 14.7513 48.7559 14.7513Z" fill="#252323"></path><path fill-rule="evenodd" clip-rule="evenodd" d="M52.9677 14.5427C52.8656 14.5877 52.7408 14.633 52.5925 14.678C52.4448 14.7231 52.2892 14.7457 52.1268 14.7457C52.0208 14.7457 51.9211 14.7324 51.8283 14.7062C51.7354 14.6801 51.654 14.6377 51.584 14.5794C51.5137 14.5211 51.4578 14.4459 51.4163 14.3537C51.3746 14.2619 51.3536 14.1499 51.3536 14.0183V12.321H50.9617V11.7403H51.3536V10.782H52.1153V11.7403H52.7407V12.321H52.1153V13.7647C52.1153 13.8702 52.1426 13.9441 52.1974 13.9873C52.2522 14.0307 52.3197 14.0521 52.3994 14.0521C52.4792 14.0521 52.5568 14.0391 52.6327 14.0128C52.7082 13.9865 52.7688 13.9639 52.8145 13.9451L52.9677 14.5427Z" fill="#252323"></path><path fill-rule="evenodd" clip-rule="evenodd" d="M53.3649 14.6951H54.1265V11.7405H53.3649V14.6951ZM53.3649 11.329H54.1265V10.5791H53.3649V11.329Z" fill="#252323"></path><path fill-rule="evenodd" clip-rule="evenodd" d="M55.411 13.2236C55.411 13.355 55.431 13.4742 55.4711 13.5814C55.5105 13.6887 55.5653 13.7816 55.6354 13.8607C55.7057 13.9393 55.7881 14.0005 55.883 14.0437C55.9775 14.0869 56.0798 14.1088 56.19 14.1088C56.2997 14.1088 56.4017 14.0869 56.4967 14.0437C56.5914 14.0005 56.6735 13.9393 56.7439 13.8607C56.8142 13.7816 56.869 13.6876 56.9089 13.5786C56.9485 13.4698 56.9687 13.3493 56.9687 13.2178C56.9687 13.09 56.9485 12.9716 56.9089 12.8623C56.869 12.7535 56.8142 12.6596 56.7439 12.5807C56.6735 12.5016 56.5914 12.4407 56.4967 12.3972C56.4017 12.3543 56.2997 12.3327 56.19 12.3327C56.0798 12.3327 55.9775 12.3553 55.883 12.4001C55.7881 12.4453 55.7057 12.5076 55.6354 12.5862C55.5653 12.665 55.5105 12.759 55.4711 12.8683C55.431 12.9773 55.411 13.0955 55.411 13.2236ZM56.19 14.7514C55.9473 14.7514 55.7296 14.7097 55.5362 14.6272C55.3428 14.5447 55.1789 14.4328 55.0445 14.2917C54.9099 14.1509 54.8063 13.9883 54.7347 13.8042C54.6628 13.62 54.6266 13.4263 54.6266 13.2236C54.6266 13.0167 54.6628 12.8212 54.7347 12.6369C54.8063 12.4532 54.9099 12.2902 55.0445 12.1492C55.1789 12.0083 55.3428 11.8964 55.5362 11.8139C55.7296 11.7312 55.9473 11.6898 56.19 11.6898C56.4322 11.6898 56.6491 11.7312 56.8404 11.8139C57.0319 11.8964 57.1949 12.0083 57.3294 12.1492C57.4638 12.2902 57.5669 12.4532 57.639 12.6369C57.7109 12.8212 57.7469 13.0167 57.7469 13.2236C57.7469 13.4263 57.7109 13.62 57.639 13.8042C57.5669 13.9883 57.4648 14.1509 57.3321 14.2917C57.1993 14.4328 57.0364 14.5447 56.8435 14.6272C56.6502 14.7097 56.4322 14.7514 56.19 14.7514Z" fill="#252323"></path><path fill-rule="evenodd" clip-rule="evenodd" d="M61.0267 14.6951H60.265V13.0374C60.265 12.8006 60.2231 12.6277 60.1399 12.5189C60.0567 12.4096 59.941 12.3552 59.7933 12.3552C59.7175 12.3552 59.6398 12.3701 59.5601 12.4003C59.4806 12.4305 59.4055 12.4729 59.3357 12.5273C59.2654 12.5817 59.2022 12.6465 59.1453 12.7217C59.0881 12.7969 59.0469 12.8797 59.0204 12.9697V14.6951H58.2585V11.7405H58.9461V12.2876C59.0561 12.0996 59.2153 11.9531 59.4239 11.8477C59.6322 11.7425 59.867 11.69 60.1283 11.69C60.3141 11.69 60.4657 11.7235 60.5833 11.7915C60.7006 11.8591 60.7916 11.9474 60.8559 12.0564C60.9207 12.1655 60.965 12.2896 60.9892 12.4286C61.0141 12.5674 61.0267 12.7087 61.0267 12.8516V14.6951Z" fill="#252323"></path><path fill-rule="evenodd" clip-rule="evenodd" d="M3.83444 2.4017C3.89479 2.36787 9.9425 -0.955573 15.9265 3.09169C16.013 3.14999 16.1114 3.1781 16.2088 3.1781C16.3691 3.1781 16.5267 3.1021 16.6241 2.96077C16.7802 2.73355 16.7212 2.42356 16.4921 2.2687C13.0974 -0.0276963 9.70454 -0.106559 7.45583 0.231016C5.02504 0.596441 3.40601 1.49751 3.33805 1.53577C3.09694 1.67163 3.01272 1.97563 3.14994 2.21482C3.28689 2.45402 3.59333 2.53782 3.83444 2.4017Z" fill="#252323"></path><path fill-rule="evenodd" clip-rule="evenodd" d="M6.5016 15.8571C6.26494 15.6028 6.0805 15.3285 5.93988 15.0437C5.10688 15.3995 4.50764 16.4052 4.441 16.5208C4.30379 16.7592 4.38695 17.0629 4.62728 17.1996C4.70599 17.2443 4.79178 17.2654 4.87652 17.2654C5.05047 17.2654 5.21943 17.1756 5.31257 17.0156C5.44008 16.7956 5.90577 16.1278 6.35441 15.9495C6.41056 15.9274 6.45909 15.8948 6.5016 15.8571Z" fill="#252323"></path><path fill-rule="evenodd" clip-rule="evenodd" d="M17.7226 14.5768C17.6539 14.4971 17.5694 14.4349 17.4689 14.3899C17.3685 14.3451 17.2564 14.3227 17.1329 14.3227H16.7411V16.1655H17.1329C17.2596 16.1655 17.3737 16.1423 17.4742 16.0957C17.5744 16.0494 17.6592 15.9846 17.7276 15.9015C17.7961 15.8185 17.8483 15.7207 17.8832 15.6077C17.9184 15.4947 17.9357 15.3721 17.9357 15.2391C17.9357 15.103 17.9173 14.9786 17.8809 14.8657C17.8439 14.7527 17.7911 14.6564 17.7226 14.5768Z" fill="#252323"></path><path fill-rule="evenodd" clip-rule="evenodd" d="M18.8019 15.9688C18.7166 16.1861 18.5954 16.3722 18.438 16.5265C18.2808 16.6809 18.0917 16.8004 17.8708 16.8852C17.6499 16.9698 17.4038 17.0122 17.133 17.0122H17.0561H15.7622V16.7283V13.4759H17.133C17.4274 13.4759 17.6866 13.5225 17.9109 13.6154C17.928 13.6224 17.9434 13.631 17.96 13.6385C18.0602 13.6833 18.1528 13.7351 18.2383 13.7937C18.2459 13.7991 18.253 13.8051 18.2606 13.8108C18.2947 13.8353 18.3283 13.86 18.3598 13.8868C18.3997 13.9209 18.4375 13.9563 18.4732 13.9941C18.5073 14.03 18.5387 14.068 18.5689 14.1068C18.587 14.1297 18.6033 14.1539 18.6198 14.1778C18.63 14.1924 18.6403 14.207 18.65 14.2221C18.6707 14.2546 18.6901 14.2882 18.7088 14.3225C18.7116 14.3283 18.7151 14.3337 18.7179 14.3395C18.7384 14.3788 18.7576 14.4186 18.7751 14.46C18.7888 14.4912 18.8029 14.5217 18.8147 14.5542C18.8916 14.7684 18.9299 14.9967 18.9299 15.239C18.9299 15.5078 18.8874 15.7514 18.8019 15.9688ZM14.1707 14.436V13.4759H15.1495V13.4806V17.0122H14.1707V14.436ZM10.67 8.82035C11.3873 8.82035 11.8758 9.17563 11.8758 9.82189C11.8758 11.0335 10.2142 11.3083 8.09672 11.2922C8.42258 10.0639 9.38335 8.82035 10.67 8.82035ZM19.1936 12.8184C19.3557 11.7154 19.3723 10.7891 19.2427 9.93042C18.9045 7.68816 17.4221 5.54428 15.2778 4.1958C13.0018 2.76482 10.1683 2.20575 7.50378 2.66123C4.99245 3.09068 2.5572 4.38841 0.646156 6.31521C0.452007 6.5112 0.454106 6.82665 0.651928 7.01952C0.849486 7.21238 1.16747 7.21004 1.36188 7.01379C3.12679 5.2343 5.36868 4.0373 7.67406 3.64272C10.0967 3.2281 12.6721 3.73642 14.7403 5.03727C16.6421 6.23297 17.9539 8.11709 18.2496 10.0777C18.3391 10.6719 18.348 11.3117 18.2777 12.0423C17.7052 11.6964 17.033 11.4973 16.3142 11.4973C16.2124 11.4973 16.1122 11.5025 16.0127 11.5103C16.1014 10.8914 16.0731 10.2066 15.9217 9.46193C15.6651 8.19647 14.878 7.01405 13.7624 6.21787C12.7948 5.52684 11.5825 5.08594 10.257 4.94279C8.83842 4.78975 7.3629 4.99797 5.99022 5.54428C4.84238 6.0008 3.74518 6.639 2.72958 7.44142C1.75542 8.21079 0.870738 9.11758 0.100442 10.1366C-0.0658959 10.3567 -0.021032 10.6688 0.200927 10.8338C0.422623 10.9991 0.737195 10.9541 0.903533 10.7344C1.62293 9.7831 2.4478 8.93721 3.35505 8.22068C4.2943 7.47864 5.3065 6.88938 6.36382 6.46878C7.58459 5.9831 8.89325 5.79805 10.1484 5.93287C11.3017 6.05754 12.3488 6.43572 13.1763 7.02628C14.088 7.67749 14.73 8.63686 14.9376 9.65843C15.1 10.4577 15.1015 11.1602 14.9439 11.7523C13.9201 12.1472 13.1128 12.9715 12.7471 14.0027C12.299 14.2752 11.8052 14.4688 11.3017 14.6159C10.2024 14.9368 8.64349 15.0948 8.09672 13.8129C7.91779 13.3928 7.86847 12.6656 7.93406 12.3262C10.8497 12.3744 13.1787 11.8252 13.1787 9.77295C13.1787 8.6582 12.3643 7.76963 10.8657 7.76963C8.32445 7.76963 6.56558 10.4361 6.56558 12.7947C6.56558 13.6773 6.81377 14.607 7.48752 15.2221C8.34387 16.0037 9.60268 16.1132 10.6959 15.874C11.3214 15.7374 11.9435 15.538 12.533 15.2744C12.5393 16.183 12.8712 17.0146 13.4185 17.6606C13.1574 17.6973 12.9014 17.709 12.6534 17.6936C12.0051 17.6543 11.4972 17.5674 11.0559 17.4203C10.9079 17.3711 10.7566 17.3157 10.6023 17.2592C10.0311 17.0502 9.38387 16.8136 8.72692 16.8105C7.97971 16.8063 7.14618 17.1168 6.43518 17.6608C6.21558 17.8287 6.17492 18.1415 6.3444 18.3594C6.51337 18.577 6.82899 18.6178 7.04832 18.4497C7.58302 18.0406 8.1896 17.8066 8.7138 17.8066H8.72219C9.20232 17.8089 9.73727 18.0044 10.2549 18.1936C10.4186 18.2537 10.5792 18.3123 10.7361 18.3646C11.2634 18.5403 11.8535 18.6431 12.5923 18.6879C12.6815 18.6933 12.7715 18.6962 12.862 18.6962C13.3511 18.6962 13.8595 18.6163 14.3706 18.4669C14.9386 18.805 15.6034 18.9999 16.3142 18.9999C18.4026 18.9999 20.0956 17.3204 20.0956 15.2486C20.0956 14.3212 19.7556 13.4733 19.1936 12.8184Z" fill="#252323"></path><path fill-rule="evenodd" clip-rule="evenodd" d="M5.53452 13.0883C5.53977 12.6237 5.60168 12.1919 5.67619 11.833C3.62662 12.9082 2.60682 14.8941 2.56353 14.9799C2.43969 15.2254 2.54018 15.5239 2.78758 15.6473C2.85973 15.6832 2.93661 15.7001 3.01243 15.7001C3.19582 15.7001 3.37291 15.5999 3.46133 15.4261C3.46946 15.4102 4.17522 14.0463 5.53452 13.0883Z" fill="#252323"></path><path fill-rule="evenodd" clip-rule="evenodd" d="M6.72447 9.29214C7.1453 8.611 7.58948 8.12845 8.02054 7.78905C3.96599 8.75311 1.14586 12.6122 1.02622 12.7788C0.865131 13.0023 0.917079 13.3131 1.14271 13.4729C1.23113 13.5359 1.33292 13.5661 1.43419 13.5661C1.59083 13.5661 1.74509 13.4937 1.84322 13.3579C1.86604 13.3256 3.84478 10.6221 6.72447 9.29214Z" fill="#252323"></path></g><path fill-rule="evenodd" clip-rule="evenodd" d="M62.3059 10.2797H62.4711C62.5778 10.2797 62.6446 10.2753 62.6715 10.266C62.698 10.257 62.719 10.2415 62.7341 10.2195C62.7493 10.1971 62.7568 10.1696 62.7568 10.1365C62.7568 10.0994 62.7465 10.0694 62.7269 10.0464C62.7073 10.0236 62.6794 10.0088 62.6429 10.003C62.625 10.0006 62.571 9.99921 62.4801 9.99921H62.3059V10.2797ZM62.0829 10.9179V9.81231H62.5527C62.6708 9.81231 62.7565 9.82195 62.8098 9.84191C62.8632 9.86187 62.9062 9.89698 62.9386 9.94793C62.9709 9.99887 62.9871 10.057 62.9871 10.1221C62.9871 10.205 62.9623 10.2735 62.9138 10.3276C62.8649 10.3816 62.7919 10.4157 62.6949 10.4298C62.7434 10.458 62.7833 10.489 62.8147 10.5227C62.8456 10.5561 62.888 10.616 62.942 10.7021L63.0766 10.9179H62.8095L62.6481 10.6773C62.5909 10.5909 62.5517 10.5372 62.5307 10.5145C62.5094 10.4921 62.487 10.477 62.4632 10.4687C62.4402 10.4601 62.4023 10.4563 62.351 10.4563H62.3059V10.9179H62.0829Z" fill="#252323"></path><mask id="mask1_338:202" maskUnits="userSpaceOnUse" x="61" y="9" width="3" height="3" style="mask-type: alpha;"><path d="M61.5435 9.43134H63.4957V11.3836H61.5435V9.43134Z" fill="white"></path></mask><g mask="url(#mask1_338:202)"><path fill-rule="evenodd" clip-rule="evenodd" d="M62.5196 11.2322C62.9743 11.2322 63.3443 10.8625 63.3443 10.4075C63.3443 9.95247 62.9743 9.58279 62.5196 9.58279C62.0646 9.58279 61.6949 9.95247 61.6949 10.4075C61.6949 10.8625 62.0646 11.2322 62.5196 11.2322ZM63.4958 10.4075C63.4958 10.9465 63.0586 11.3837 62.5196 11.3837C61.9806 11.3837 61.5435 10.9465 61.5435 10.4075C61.5435 9.86848 61.9806 9.43134 62.5196 9.43134C63.0586 9.43134 63.4958 9.86848 63.4958 10.4075Z" fill="#252323"></path></g></g><defs><clipPath id="clip0_338:202"><rect width="63.6087" height="19" fill="white"></rect></clipPath></defs></svg>