<svg width="15" height="16" viewBox="0 0 15 16" fill="none" xmlns="http://www.w3.org/2000/svg">
  <path
    d="M8.57212 12.4471L5.0565 3.07209C5.01044 2.94922 4.92797 2.84335 4.82013 2.7686C4.71228 2.69386 4.5842 2.65381 4.45298 2.65381C4.32177 2.65381 4.19368 2.69386 4.08583 2.7686C3.97799 2.84335 3.89553 2.94922 3.84947 3.07209L0.333841 12.4471C0.275694 12.6067 0.282937 12.7829 0.353994 12.9372C0.42505 13.0916 0.554172 13.2116 0.713272 13.2712C0.872372 13.3308 1.04858 13.3252 1.20356 13.2556C1.35855 13.186 1.47978 13.058 1.54087 12.8994L2.60025 10.0746C2.60442 10.0635 2.6119 10.0538 2.62169 10.047C2.63148 10.0402 2.64311 10.0366 2.65503 10.0365H6.25093C6.26285 10.0366 6.27449 10.0402 6.28427 10.047C6.29406 10.0538 6.30154 10.0635 6.30572 10.0746L7.36509 12.8994C7.42619 13.058 7.54741 13.186 7.7024 13.2556C7.85738 13.3252 8.03359 13.3308 8.19269 13.2712C8.35179 13.2116 8.48091 13.0916 8.55197 12.9372C8.62303 12.7829 8.63027 12.6067 8.57212 12.4471ZM3.12759 8.66779L4.3982 5.27961C4.40241 5.26849 4.40991 5.25892 4.4197 5.25217C4.42948 5.24541 4.44109 5.2418 4.45298 5.2418C4.46487 5.2418 4.47648 5.24541 4.48627 5.25217C4.49605 5.25892 4.50355 5.26849 4.50777 5.27961L5.77837 8.66838C5.78168 8.67723 5.7828 8.68676 5.78163 8.69614C5.78046 8.70552 5.77704 8.71448 5.77165 8.72225C5.76627 8.73002 5.75909 8.73637 5.75072 8.74077C5.74235 8.74516 5.73304 8.74746 5.72359 8.74748H3.18238C3.17292 8.74746 3.16361 8.74516 3.15524 8.74077C3.14687 8.73637 3.13969 8.73002 3.13431 8.72225C3.12893 8.71448 3.1255 8.70552 3.12434 8.69614C3.12317 8.68676 3.12428 8.67723 3.12759 8.66838V8.66779ZM11.7412 5.46623C10.5189 5.45744 9.42437 6.16555 8.95796 7.26506C8.89114 7.4224 8.88956 7.59984 8.95357 7.75835C9.01757 7.91686 9.14193 8.04345 9.29927 8.11027C9.45661 8.1771 9.63406 8.17868 9.79257 8.11467C9.95107 8.05066 10.0777 7.92631 10.1445 7.76896C10.4046 7.15695 11.0167 6.75998 11.7066 6.75529C12.6535 6.74885 13.4178 7.53166 13.4178 8.47941C13.4178 8.49082 13.4134 8.50178 13.4055 8.50998C13.3975 8.51818 13.3867 8.52298 13.3753 8.52336C12.7332 8.54123 11.9714 8.584 11.2918 8.66398C9.68775 8.85266 8.73033 9.72717 8.73033 11.0033C8.73033 11.6827 8.98697 12.2924 9.45308 12.7225C9.89048 13.1253 10.4881 13.3471 11.1327 13.3471C12.0409 13.3471 12.8228 13.1127 13.4161 12.6668H13.4178C13.4175 12.7515 13.4338 12.8353 13.4658 12.9137C13.4979 12.992 13.545 13.0633 13.6046 13.1234C13.6642 13.1835 13.7351 13.2313 13.8131 13.264C13.8912 13.2967 13.9749 13.3138 14.0596 13.3141C14.1442 13.3145 14.2281 13.2982 14.3064 13.2661C14.3848 13.2341 14.456 13.1869 14.5161 13.1273C14.5762 13.0677 14.624 12.9969 14.6568 12.9188C14.6895 12.8408 14.7065 12.757 14.7069 12.6724V8.48293C14.7069 6.83703 13.3885 5.47824 11.7412 5.46623ZM11.1327 12.058C10.6191 12.058 10.0194 11.7818 10.0194 11.0033C10.0194 10.6907 10.1316 10.4719 10.3835 10.2935C10.6288 10.1197 11.0046 9.99582 11.4423 9.94426C12.0611 9.87131 12.7554 9.83117 13.3507 9.8133C13.3587 9.81329 13.3665 9.8149 13.3739 9.81802C13.3812 9.82115 13.3878 9.82573 13.3932 9.83149C13.3987 9.83724 13.403 9.84405 13.4057 9.8515C13.4085 9.85895 13.4097 9.86689 13.4093 9.87482C13.3299 11.3432 12.5817 12.058 11.1327 12.058Z"
    fill="#357EEB" />
</svg>