<svg width="14" height="14" viewBox="0 0 14 14" fill="none" xmlns="http://www.w3.org/2000/svg">
    <path
        d="M1.1665 7.29183C1.1665 5.5185 2.6015 4.0835 4.37484 4.0835H10.4998C11.789 4.0835 12.8332 5.12766 12.8332 6.41683C12.8332 7.706 11.789 8.75016 10.4998 8.75016H5.5415C5.15473 8.75016 4.7838 8.59652 4.51031 8.32303C4.23682 8.04954 4.08317 7.6786 4.08317 7.29183C4.08317 6.90506 4.23682 6.53412 4.51031 6.26063C4.7838 5.98714 5.15473 5.8335 5.5415 5.8335H9.9165V7.00016H5.489C5.16817 7.00016 5.16817 7.5835 5.489 7.5835H10.4998C11.1415 7.5835 11.6665 7.0585 11.6665 6.41683C11.6665 5.77516 11.1415 5.25016 10.4998 5.25016H4.37484C3.249 5.25016 2.33317 6.166 2.33317 7.29183C2.33317 8.41766 3.249 9.3335 4.37484 9.3335H9.9165V10.5002H4.37484C2.6015 10.5002 1.1665 9.06516 1.1665 7.29183Z"
        fill="#357EEB" />
</svg>