<svg width="14" height="14" viewBox="0 0 14 14" fill="none" xmlns="http://www.w3.org/2000/svg">
<g id="bi:toggles">
<path id="Vector" d="M3.9375 7.87524C3.12527 7.87524 2.34632 8.1979 1.77199 8.77223C1.19766 9.34656 0.875 10.1255 0.875 10.9377C0.875 11.75 1.19766 12.5289 1.77199 13.1033C2.34632 13.6776 3.12527 14.0002 3.9375 14.0002H10.0625C10.8747 14.0002 11.6537 13.6776 12.228 13.1033C12.8023 12.5289 13.125 11.75 13.125 10.9377C13.125 10.1255 12.8023 9.34656 12.228 8.77223C11.6537 8.1979 10.8747 7.87524 10.0625 7.87524H3.9375ZM10.0625 13.1252C9.48234 13.1252 8.92594 12.8948 8.5157 12.4845C8.10547 12.0743 7.875 11.5179 7.875 10.9377C7.875 10.3576 8.10547 9.80118 8.5157 9.39095C8.92594 8.98071 9.48234 8.75024 10.0625 8.75024C10.6427 8.75024 11.1991 8.98071 11.6093 9.39095C12.0195 9.80118 12.25 10.3576 12.25 10.9377C12.25 11.5179 12.0195 12.0743 11.6093 12.4845C11.1991 12.8948 10.6427 13.1252 10.0625 13.1252ZM3.9375 0.875244C3.35734 0.875244 2.80094 1.10571 2.3907 1.51595C1.98047 1.92618 1.75 2.48258 1.75 3.06274C1.75 3.64291 1.98047 4.1993 2.3907 4.60954C2.80094 5.01978 3.35734 5.25024 3.9375 5.25024C4.51766 5.25024 5.07406 5.01978 5.4843 4.60954C5.89453 4.1993 6.125 3.64291 6.125 3.06274C6.125 2.48258 5.89453 1.92618 5.4843 1.51595C5.07406 1.10571 4.51766 0.875244 3.9375 0.875244ZM6.08125 0.875244C6.37259 1.16013 6.60397 1.50043 6.76176 1.87612C6.91954 2.2518 7.00055 2.65527 7 3.06274C7.00055 3.47022 6.91954 3.87368 6.76176 4.24937C6.60397 4.62505 6.37259 4.96536 6.08125 5.25024H10.0625C10.6427 5.25024 11.1991 5.01978 11.6093 4.60954C12.0195 4.1993 12.25 3.64291 12.25 3.06274C12.25 2.48258 12.0195 1.92618 11.6093 1.51595C11.1991 1.10571 10.6427 0.875244 10.0625 0.875244H6.08125ZM3.9375 0.000244141H10.0625C10.8747 0.000244141 11.6537 0.322899 12.228 0.89723C12.8023 1.47156 13.125 2.25052 13.125 3.06274C13.125 3.87497 12.8023 4.65393 12.228 5.22826C11.6537 5.80259 10.8747 6.12524 10.0625 6.12524H3.9375C3.12527 6.12524 2.34632 5.80259 1.77199 5.22826C1.19766 4.65393 0.875 3.87497 0.875 3.06274C0.875 2.25052 1.19766 1.47156 1.77199 0.89723C2.34632 0.322899 3.12527 0.000244141 3.9375 0.000244141Z" fill="#357EEB"/>
</g>
</svg>
