<svg xmlns="http://www.w3.org/2000/svg" width="14" height="12" viewBox="0 0 14 12" fill="none">
    <path
        d="M1.75 2.5C1.28587 2.5 0.840752 2.68437 0.512563 3.01256C0.184374 3.34075 0 3.78587 0 4.25L0 9.5C0 9.96413 0.184374 10.4092 0.512563 10.7374C0.840752 11.0656 1.28587 11.25 1.75 11.25H12.25C12.7141 11.25 13.1592 11.0656 13.4874 10.7374C13.8156 10.4092 14 9.96413 14 9.5V4.25C14 3.78587 13.8156 3.34075 13.4874 3.01256C13.1592 2.68437 12.7141 2.5 12.25 2.5H11.2245C10.7604 2.4999 10.3154 2.31546 9.98725 1.98725L9.26275 1.26275C8.93464 0.934539 8.48959 0.750099 8.0255 0.75H5.9745C5.51041 0.750099 5.06536 0.934539 4.73725 1.26275L4.01275 1.98725C3.68464 2.31546 3.23959 2.4999 2.7755 2.5H1.75ZM2.1875 4.25C2.07147 4.25 1.96019 4.20391 1.87814 4.12186C1.79609 4.03981 1.75 3.92853 1.75 3.8125C1.75 3.69647 1.79609 3.58519 1.87814 3.50314C1.96019 3.42109 2.07147 3.375 2.1875 3.375C2.30353 3.375 2.41481 3.42109 2.49686 3.50314C2.57891 3.58519 2.625 3.69647 2.625 3.8125C2.625 3.92853 2.57891 4.03981 2.49686 4.12186C2.41481 4.20391 2.30353 4.25 2.1875 4.25ZM10.0625 6.4375C10.0625 7.24973 9.73984 8.02868 9.16551 8.60301C8.59118 9.17734 7.81223 9.5 7 9.5C6.18777 9.5 5.40882 9.17734 4.83449 8.60301C4.26016 8.02868 3.9375 7.24973 3.9375 6.4375C3.9375 5.62527 4.26016 4.84632 4.83449 4.27199C5.40882 3.69766 6.18777 3.375 7 3.375C7.81223 3.375 8.59118 3.69766 9.16551 4.27199C9.73984 4.84632 10.0625 5.62527 10.0625 6.4375Z"
        fill="#357EEB" />
</svg>