<svg width="15" height="16" viewBox="0 0 15 16" fill="none" xmlns="http://www.w3.org/2000/svg">
  <path
    d="M11.875 2.37549H3.125C2.79348 2.37549 2.47554 2.50718 2.24112 2.7416C2.0067 2.97603 1.875 3.29397 1.875 3.62549V12.3755C1.875 12.707 2.0067 13.025 2.24112 13.2594C2.47554 13.4938 2.79348 13.6255 3.125 13.6255H11.875C12.2065 13.6255 12.5245 13.4938 12.7589 13.2594C12.9933 13.025 13.125 12.707 13.125 12.3755V3.62549C13.125 3.29397 12.9933 2.97603 12.7589 2.7416C12.5245 2.50718 12.2065 2.37549 11.875 2.37549ZM11.875 3.62549V12.3755H3.125V3.62549H11.875ZM6.25 11.1255L3.75 8.62549L4.63125 7.73799L6.25 9.35674L10.3687 5.23799L11.25 6.12549"
    fill="#357EEB" />
</svg>