<svg width="15" height="16" viewBox="0 0 15 16" fill="none" xmlns="http://www.w3.org/2000/svg">
  <path
    d="M11.25 9.87549H10V11.1255H11.25M11.25 7.37549H10V8.62549H11.25M12.5 12.3755H7.5V11.1255H8.75V9.87549H7.5V8.62549H8.75V7.37549H7.5V6.12549H12.5M6.25 4.87549H5V3.62549H6.25M6.25 7.37549H5V6.12549H6.25M6.25 9.87549H5V8.62549H6.25M6.25 12.3755H5V11.1255H6.25M3.75 4.87549H2.5V3.62549H3.75M3.75 7.37549H2.5V6.12549H3.75M3.75 9.87549H2.5V8.62549H3.75M3.75 12.3755H2.5V11.1255H3.75M7.5 4.87549V2.37549H1.25V13.6255H13.75V4.87549H7.5Z"
    fill="#357EEB" />
</svg>