<svg width="15" height="16" viewBox="0 0 15 16" fill="none" xmlns="http://www.w3.org/2000/svg">
<g id="fontisto:date">
<path id="Vector" d="M13.75 1.90632H11.7188V0.968818C11.7188 0.844498 11.6695 0.725237 11.5817 0.637271C11.4938 0.549304 11.3746 0.499839 11.2503 0.499756C11.126 0.499673 11.0067 0.54898 10.9188 0.636829C10.8308 0.724678 10.7813 0.843873 10.7812 0.968193V1.90632H7.96875V0.968818C7.96879 0.907261 7.95671 0.846299 7.93319 0.789412C7.90967 0.732525 7.87518 0.680827 7.83168 0.637271C7.78818 0.593714 7.73653 0.559152 7.67967 0.535557C7.62282 0.511962 7.56187 0.499797 7.50031 0.499756C7.37599 0.499673 7.25673 0.54898 7.16876 0.636829C7.0808 0.724678 7.03133 0.843873 7.03125 0.968193V1.90632H4.21875V0.968818C4.21879 0.907261 4.20671 0.846299 4.18319 0.789412C4.15967 0.732525 4.12518 0.680827 4.08168 0.637271C4.03818 0.593714 3.98653 0.559152 3.92967 0.535557C3.87282 0.511962 3.81187 0.499797 3.75031 0.499756C3.62599 0.499673 3.50673 0.54898 3.41876 0.636829C3.3308 0.724678 3.28133 0.843873 3.28125 0.968193V1.90632H1.25C0.918588 1.90632 0.60074 2.03793 0.366337 2.27221C0.131935 2.5065 0.000165706 2.82428 0 3.15569V14.2494C0 14.581 0.131696 14.8989 0.366117 15.1333C0.600537 15.3677 0.918479 15.4994 1.25 15.4994H13.75C14.0815 15.4994 14.3995 15.3677 14.6339 15.1333C14.8683 14.8989 15 14.581 15 14.2494V3.15569C14.9998 2.82428 14.8681 2.5065 14.6337 2.27221C14.3993 2.03793 14.0814 1.90632 13.75 1.90632ZM14.0625 14.2501C14.0625 14.3328 14.0297 14.4122 13.9712 14.4708C13.9127 14.5294 13.8334 14.5624 13.7506 14.5626H1.25C1.16712 14.5626 1.08763 14.5296 1.02903 14.471C0.970424 14.4124 0.9375 14.3329 0.9375 14.2501V3.15632C0.937666 3.07355 0.970663 2.99422 1.02925 2.93575C1.08784 2.87728 1.16723 2.84444 1.25 2.84444H3.28125V3.78194C3.28117 3.90626 3.33047 4.02553 3.41832 4.11349C3.50617 4.20146 3.62537 4.25092 3.74969 4.25101C3.87401 4.25109 3.99327 4.20178 4.08124 4.11393C4.1692 4.02608 4.21867 3.90689 4.21875 3.78257V2.84444H7.03125V3.78194C7.03117 3.90626 7.08047 4.02553 7.16832 4.11349C7.25617 4.20146 7.37537 4.25092 7.49969 4.25101C7.62401 4.25109 7.74327 4.20178 7.83124 4.11393C7.9192 4.02608 7.96867 3.90689 7.96875 3.78257V2.84444H10.7812V3.78194C10.7812 3.90626 10.8305 4.02553 10.9183 4.11349C11.0062 4.20146 11.1254 4.25092 11.2497 4.25101C11.374 4.25109 11.4933 4.20178 11.5812 4.11393C11.6692 4.02608 11.7187 3.90689 11.7188 3.78257V2.84444H13.75C13.8327 2.84461 13.9119 2.87752 13.9703 2.93597C14.0288 2.99442 14.0617 3.07365 14.0619 3.15632L14.0625 14.2501Z" fill="#357EEB"/>
<path id="Vector_2" d="M3.28125 6.12524H5.15625V7.53149H3.28125V6.12524ZM3.28125 8.46899H5.15625V9.87524H3.28125V8.46899ZM3.28125 10.8127H5.15625V12.219H3.28125V10.8127ZM6.5625 10.8127H8.4375V12.219H6.5625V10.8127ZM6.5625 8.46899H8.4375V9.87524H6.5625V8.46899ZM6.5625 6.12524H8.4375V7.53149H6.5625V6.12524ZM9.84375 10.8127H11.7188V12.219H9.84375V10.8127ZM9.84375 8.46899H11.7188V9.87524H9.84375V8.46899ZM9.84375 6.12524H11.7188V7.53149H9.84375V6.12524Z" fill="#357EEB"/>
</g>
</svg>
