<svg width="14" height="14" viewBox="0 0 14 14" fill="none" xmlns="http://www.w3.org/2000/svg">
<g id="grommet-icons:document-user">
<path id="Vector" d="M2.9155 5.25016V0.583496H11.375L13.4167 2.62516V13.4168H9.33333M10.5 0.583496V3.50016H13.4167M4.66667 9.91683C4.43685 9.91683 4.20929 9.87156 3.99697 9.78362C3.78465 9.69567 3.59173 9.56677 3.42923 9.40427C3.26673 9.24176 3.13782 9.04884 3.04988 8.83653C2.96193 8.62421 2.91667 8.39664 2.91667 8.16683C2.91667 7.93702 2.96193 7.70945 3.04988 7.49713C3.13782 7.28481 3.26673 7.09189 3.42923 6.92939C3.59173 6.76689 3.78465 6.63799 3.99697 6.55004C4.20929 6.46209 4.43685 6.41683 4.66667 6.41683C5.1308 6.41683 5.57591 6.6012 5.9041 6.92939C6.23229 7.25758 6.41667 7.7027 6.41667 8.16683C6.41667 8.63096 6.23229 9.07608 5.9041 9.40427C5.57591 9.73245 5.1308 9.91683 4.66667 9.91683ZM4.66667 9.91683C3.5 9.91683 1.75 10.5002 1.75 12.8335V13.4168H7.58333V12.8335C7.58333 10.5002 5.83333 9.91683 4.66667 9.91683Z" stroke="#357EEB" stroke-width="1.16667"/>
</g>
</svg>
