<svg width="14" height="14" viewBox="0 0 14 14" fill="none" xmlns="http://www.w3.org/2000/svg">
    <path
        d="M3.99994 6.48994L0.789939 9.66994C0.696211 9.7629 0.621816 9.8735 0.571048 9.99536C0.520279 10.1172 0.494141 10.2479 0.494141 10.3799C0.494141 10.512 0.520279 10.6427 0.571048 10.7645C0.621816 10.8864 0.696211 10.997 0.789939 11.0899L2.90994 13.2099C3.0029 13.3037 3.1135 13.3781 3.23536 13.4288C3.35722 13.4796 3.48793 13.5057 3.61994 13.5057C3.75195 13.5057 3.88266 13.4796 4.00452 13.4288C4.12637 13.3781 4.23698 13.3037 4.32994 13.2099L7.50994 9.99994M9.99994 7.50994L13.1799 4.32994C13.2737 4.23698 13.3481 4.12637 13.3988 4.00452C13.4496 3.88266 13.4757 3.75195 13.4757 3.61994C13.4757 3.48793 13.4496 3.35722 13.3988 3.23536C13.3481 3.1135 13.2737 3.0029 13.1799 2.90994L11.0899 0.789939C10.997 0.696211 10.8864 0.621816 10.7645 0.571048C10.6427 0.520279 10.512 0.494141 10.3799 0.494141C10.2479 0.494141 10.1172 0.520279 9.99536 0.571048C9.8735 0.621816 9.7629 0.696211 9.66994 0.789939L6.48994 3.99994M8.99994 4.99994L4.99994 8.99994"
        stroke="#357EEB" stroke-linecap="round" stroke-linejoin="round" />
</svg>