<svg width="15" height="16" viewBox="0 0 15 16" fill="none" xmlns="http://www.w3.org/2000/svg">
    <g clip-path="url(#clip0_2258_84679)">
        <path
            d="M1.51316 5.6808C1.51316 4.94932 1.65205 4.58358 1.92982 4.58358C2.01023 4.58358 2.09795 4.62756 2.19298 4.71552C2.28801 4.80348 2.37939 4.95395 2.46711 5.16691C2.55482 5.37987 2.59868 5.67617 2.59868 6.0558C2.59868 6.43543 2.53289 6.8058 2.40132 7.16691C2.1674 7.79654 1.93348 8.1808 1.69956 8.31969C1.61184 8.36598 1.5095 8.38913 1.39254 8.38913C1.21711 8.38913 1.03436 8.22247 0.844298 7.88913C0.778509 7.75024 0.796784 7.62987 0.899123 7.52802C1.01608 7.44469 1.10746 7.47247 1.17325 7.61136C1.28289 7.78728 1.37061 7.87524 1.4364 7.87524C1.50219 7.87524 1.58443 7.81737 1.68311 7.70163C1.7818 7.58589 1.89327 7.35673 2.01754 7.01413C2.14181 6.67154 2.20395 6.30811 2.20395 5.92386C2.20395 5.5396 2.10526 5.25024 1.90789 5.0558V5.00024L1.92982 5.0558H1.90789V5.00024L1.92982 5.0558L1.91886 5.01413L1.94079 5.04191L1.92982 5.0558L1.91886 5.01413V5.06969C1.875 5.12524 1.85307 5.31506 1.85307 5.63913C1.85307 6.37987 1.95175 6.96784 2.14912 7.40302C2.23684 7.60673 2.32822 7.70858 2.42325 7.70858H2.45614C2.69737 7.70858 2.87829 7.59052 2.9989 7.35441C3.11952 7.1183 3.17982 6.8521 3.17982 6.5558V6.51413C3.1652 6.39376 3.15058 6.32895 3.13596 6.31969V6.3058L3.16886 6.26413L3.15789 6.3058L3.19079 6.25024V6.3058H3.16886L3.19079 6.25024V6.3058H3.17982C3.10673 6.38913 3.07018 6.49098 3.07018 6.61136C3.13596 7.12987 3.2383 7.45395 3.37719 7.58358C3.39912 7.6021 3.42105 7.61136 3.44298 7.61136H3.45395C3.46126 7.61136 3.47039 7.6021 3.48136 7.58358C3.49232 7.56506 3.50512 7.54654 3.51974 7.52802C3.53436 7.5095 3.56725 7.42154 3.61842 7.26413C3.74269 6.9308 3.88889 6.76413 4.05702 6.76413C4.20322 6.76413 4.33114 6.87524 4.44079 7.09747C4.47003 7.15302 4.50841 7.2271 4.55592 7.31969C4.60344 7.41228 4.6345 7.47247 4.64912 7.50024L4.73684 7.59747H4.79167C4.8136 7.56969 4.83918 7.50024 4.86842 7.38913C4.94883 7.06506 5.02193 6.87293 5.08772 6.81274C5.15351 6.75256 5.21199 6.72247 5.26316 6.72247C5.31433 6.72247 5.35453 6.7271 5.38377 6.73636C5.45687 6.77339 5.54459 6.85673 5.64693 6.98636C5.87354 7.31043 6.01974 7.48636 6.08553 7.51413C6.1367 7.50487 6.18421 7.52108 6.22807 7.56274C6.27193 7.60441 6.29751 7.65997 6.30482 7.72941C6.31213 7.79886 6.29934 7.86136 6.26645 7.91691C6.23355 7.97247 6.19152 8.00487 6.14035 8.01413H6.08553C5.95395 8.01413 5.82237 7.9308 5.69079 7.76413C5.65424 7.7271 5.5848 7.63219 5.48246 7.47941C5.38012 7.32663 5.30702 7.23173 5.26316 7.19469V7.1808L5.28509 7.09747V7.20858H5.26316L5.28509 7.11136V7.08358L5.32895 7.20858C5.32164 7.21784 5.30702 7.22247 5.28509 7.22247V7.08358L5.37281 7.20858L5.32895 7.12524L5.39474 7.19469L5.37281 7.22247L5.32895 7.15302L5.39474 7.20858C5.35819 7.28265 5.31798 7.40302 5.27412 7.56969C5.16447 7.9308 5.00731 8.11136 4.80263 8.11136H4.74781C4.5943 8.11136 4.42617 7.93543 4.24342 7.58358C4.19225 7.49098 4.15387 7.41923 4.12829 7.3683C4.1027 7.31737 4.0826 7.29191 4.06798 7.29191L4.07895 7.25024L4.08991 7.22247V7.3058H4.06798L4.08991 7.23636L4.11184 7.31969H4.08991V7.23636L4.10088 7.27802L4.11184 7.3058H4.10088V7.29191L4.08991 7.3058C4.06798 7.32432 4.03509 7.40302 3.99123 7.54191C3.86696 7.9308 3.70249 8.12524 3.49781 8.12524C3.29313 8.12524 3.12683 7.99561 2.9989 7.73636C2.87098 7.4771 2.78143 7.16228 2.73026 6.79191C2.72295 6.75487 2.7193 6.6808 2.7193 6.56969C2.7193 6.26413 2.82164 6.03265 3.02632 5.87524C3.09211 5.81969 3.15789 5.79191 3.22368 5.79191C3.35526 5.79191 3.4576 5.86136 3.5307 6.00024C3.6038 6.13913 3.64035 6.29654 3.64035 6.47247V6.54191C3.64035 6.82895 3.59284 7.11136 3.49781 7.38913C3.30775 7.92617 2.98611 8.19469 2.53289 8.19469H2.47807C2.27339 8.16691 2.11623 8.072 2.00658 7.90997C1.89693 7.74793 1.78728 7.4771 1.67763 7.09747C1.56798 6.71784 1.51316 6.24561 1.51316 5.6808ZM6.79825 7.59747H6.94079C6.94079 7.69006 6.9152 7.76876 6.86404 7.83358C6.81287 7.89839 6.7489 7.9308 6.67215 7.9308C6.59539 7.9308 6.53143 7.89839 6.48026 7.83358C6.42909 7.76876 6.40351 7.68774 6.40351 7.59052C6.40351 7.4933 6.42909 7.41228 6.48026 7.34747C6.53143 7.28265 6.59539 7.25024 6.67215 7.25024C6.7489 7.25024 6.81287 7.28265 6.86404 7.34747C6.9152 7.41228 6.94079 7.49561 6.94079 7.59747H6.79825C6.79825 7.51413 6.77997 7.46321 6.74342 7.44469C6.70687 7.42617 6.67398 7.41691 6.64474 7.41691C6.6155 7.41691 6.58626 7.43543 6.55702 7.47247C6.52778 7.5095 6.51316 7.54654 6.51316 7.58358C6.51316 7.62061 6.52047 7.65302 6.53509 7.6808C6.56433 7.73636 6.59905 7.76413 6.63925 7.76413C6.67946 7.76413 6.71053 7.7595 6.73246 7.75024C6.77632 7.71321 6.79825 7.66228 6.79825 7.59747ZM6.57895 14.1669V15.0002H0V1.00024H8.28947V1.83358H0.657895V14.1669H6.57895ZM13.0921 5.0558H13.75C13.75 5.64839 13.6349 6.19469 13.4046 6.69469C13.1743 7.19469 12.86 7.59052 12.4616 7.88219C12.0632 8.17386 11.6319 8.31969 11.1678 8.31969C10.7036 8.31969 10.2723 8.17386 9.8739 7.88219C9.47551 7.59052 9.16301 7.19469 8.9364 6.69469C8.70979 6.19469 8.59649 5.64839 8.59649 5.0558C8.59649 4.14839 8.84686 3.37756 9.34759 2.7433C9.84832 2.10904 10.455 1.79191 11.1678 1.79191C11.8805 1.79191 12.489 2.11136 12.9934 2.75024C13.4978 3.38913 13.75 4.15765 13.75 5.0558H13.0921C13.0921 4.37987 12.9039 3.8058 12.5274 3.33358C12.151 2.86136 11.6977 2.62524 11.1678 2.62524C10.6378 2.62524 10.1846 2.86136 9.80811 3.33358C9.43165 3.8058 9.24342 4.37987 9.24342 5.0558C9.24342 5.73173 9.43165 6.3058 9.80811 6.77802C10.1846 7.25024 10.6378 7.48636 11.1678 7.48636C11.6977 7.48636 12.151 7.25024 12.5274 6.77802C12.9039 6.3058 13.0921 5.73173 13.0921 5.0558ZM15 10.403V14.9864H7.02851V10.403C7.02851 9.83821 7.19664 9.38913 7.53289 9.0558C7.67178 8.93543 7.8125 8.85441 7.95504 8.81274C8.09759 8.77108 8.22734 8.73173 8.3443 8.69469C8.46126 8.65765 8.55629 8.62524 8.62939 8.59747H9.90132L11.1513 10.1391L12.2807 8.58358H13.7061C13.9912 8.58358 14.2398 8.6808 14.4518 8.87524C14.8173 9.20858 15 9.71784 15 10.403ZM7.62061 10.403V14.2641H8.79386V11.7364H9.49561V14.2641H12.9057V11.7364H13.6075V14.2641H14.3092V10.4169C14.3092 9.96321 14.2105 9.68543 14.0132 9.58358C13.9254 9.52802 13.8268 9.50024 13.7171 9.50024H12.5877L11.1842 11.4308L9.63816 9.50024H8.64035C8.43567 9.50024 8.24927 9.5558 8.08114 9.66691C7.77412 9.8521 7.62061 10.0975 7.62061 10.403Z"
            fill="#357EEB" />
    </g>
    <defs>
        <clipPath id="clip0_2258_84679">
            <rect width="15" height="15" fill="white" transform="translate(0 0.500244)" />
        </clipPath>
    </defs>
</svg>