<svg width="15" height="16" viewBox="0 0 15 16" fill="none" xmlns="http://www.w3.org/2000/svg">
    <path
        d="M2.8125 1.90674V14.0942H12.1875V5.00049L12.0469 4.85986L9.23438 2.04736L9.09375 1.90674H2.8125ZM3.75 2.84424H8.4375V5.65674H11.25V13.1567H3.75V2.84424ZM9.375 3.50049L10.5938 4.71924H9.375V3.50049ZM4.6875 6.59424V7.53174H10.3125V6.59424H4.6875ZM6.32812 8.00049C5.90625 8.00049 5.57812 8.28174 5.39062 8.60986C5.20312 8.93799 5.15625 9.35986 5.15625 9.82861C5.15625 10.1099 5.25 10.3911 5.29688 10.6724C5.10938 10.7192 4.92188 10.8599 4.6875 10.8599V11.7974C5.01562 11.7974 5.34375 11.7505 5.625 11.6567C5.67188 11.7505 5.67188 11.7974 5.76562 11.8911C5.95312 12.0786 6.23438 12.2192 6.5625 12.2192C7.3125 12.2192 7.78125 11.7036 8.10937 11.3286C8.15625 11.2349 8.20312 11.188 8.25 11.1411C8.25 11.188 8.25 11.2349 8.29688 11.2817C8.34375 11.3755 8.39062 11.4692 8.48438 11.563C8.57812 11.6567 8.76562 11.7505 8.90625 11.7505C9.1875 11.7505 9.375 11.563 9.46875 11.4692C9.5625 11.3755 9.65625 11.2349 9.75 11.1411C9.9375 10.9536 10.0781 10.813 10.2656 10.813V9.87549C9.70312 9.87549 9.28125 10.2036 9.04687 10.4849C9.04687 10.438 9.04688 10.3911 9 10.3442C8.95313 10.2505 8.90625 10.1567 8.8125 10.0161C8.71875 9.87549 8.57812 9.87549 8.4375 9.87549C8.0625 9.87549 7.92188 10.1099 7.78125 10.2505C7.64062 10.3911 7.5 10.5786 7.40625 10.7661C7.125 11.0942 6.9375 11.2817 6.5625 11.2817C6.51562 11.2817 6.51562 11.2349 6.46875 11.2349C6.51562 11.2349 6.51562 11.188 6.5625 11.188C7.07812 10.7661 7.5 10.2036 7.5 9.45361C7.5 9.07861 7.40625 8.75049 7.21875 8.46924C7.03125 8.18799 6.70312 8.00049 6.32812 8.00049ZM6.28125 8.93799C6.42187 8.93799 6.42188 8.93799 6.46875 9.03174C6.51562 9.12549 6.5625 9.26611 6.5625 9.50049C6.5625 9.78174 6.42188 10.063 6.1875 10.2974C6.1875 10.1567 6.09375 9.96924 6.09375 9.87549C6.09375 9.50049 6.14062 9.21924 6.23438 9.07861C6.28125 8.98486 6.28125 8.93799 6.28125 8.93799Z"
        fill="#357EEB" />
</svg>