<svg width="15" height="12" viewBox="0 0 15 12" fill="none" xmlns="http://www.w3.org/2000/svg">
  <mask id="mask0_4512_25434" style="mask-type:luminance" maskUnits="userSpaceOnUse" x="0" y="0" width="15" height="12">
    <path
      d="M2.5 6.31299V10.3755C2.5 10.6241 2.59877 10.8626 2.77459 11.0384C2.9504 11.2142 3.18886 11.313 3.4375 11.313H11.5625C11.8111 11.313 12.0496 11.2142 12.2254 11.0384C12.4012 10.8626 12.5 10.6241 12.5 10.3755V6.31299"
      stroke="white" stroke-width="1.25" stroke-linecap="round" stroke-linejoin="round" />
    <path
      d="M1.5625 3.18799C1.5625 3.02223 1.62835 2.86326 1.74556 2.74605C1.86277 2.62884 2.02174 2.56299 2.1875 2.56299H12.8125C12.9783 2.56299 13.1372 2.62884 13.2544 2.74605C13.3717 2.86326 13.4375 3.02223 13.4375 3.18799V5.68799C13.4375 5.85375 13.3717 6.01272 13.2544 6.12993C13.1372 6.24714 12.9783 6.31299 12.8125 6.31299H2.1875C2.02174 6.31299 1.86277 6.24714 1.74556 6.12993C1.62835 6.01272 1.5625 5.85375 1.5625 5.68799V3.18799Z"
      fill="white" stroke="white" stroke-width="1.25" stroke-linejoin="round" />
    <path
      d="M9.6875 2.56299V1.31299C9.6875 1.14723 9.62165 0.988257 9.50444 0.871047C9.38723 0.753836 9.22826 0.687988 9.0625 0.687988H5.9375C5.77174 0.687988 5.61277 0.753836 5.49556 0.871047C5.37835 0.988257 5.3125 1.14723 5.3125 1.31299V2.56299M4.6875 5.68799V7.56299M10.3125 5.68799V7.56299"
      stroke="white" stroke-width="1.25" stroke-linecap="round" stroke-linejoin="round" />
  </mask>
  <g mask="url(#mask0_4512_25434)">
    <path d="M0 -1.49951H15V13.5005H0V-1.49951Z" fill="#357EEB" />
  </g>
</svg>