<svg width="14" height="14" viewBox="0 0 14 14" fill="none" xmlns="http://www.w3.org/2000/svg">
    <path
        d="M6.99984 6.70866C6.61306 6.70866 6.24213 6.55501 5.96864 6.28152C5.69515 6.00803 5.5415 5.6371 5.5415 5.25033C5.5415 4.86355 5.69515 4.49262 5.96864 4.21913C6.24213 3.94564 6.61306 3.79199 6.99984 3.79199C7.38661 3.79199 7.75754 3.94564 8.03103 4.21913C8.30452 4.49262 8.45817 4.86355 8.45817 5.25033C8.45817 5.44184 8.42045 5.63147 8.34716 5.80841C8.27387 5.98534 8.16645 6.1461 8.03103 6.28152C7.89562 6.41694 7.73485 6.52436 7.55792 6.59765C7.38098 6.67094 7.19135 6.70866 6.99984 6.70866ZM6.99984 1.16699C5.91687 1.16699 4.87826 1.5972 4.11248 2.36297C3.34671 3.12875 2.9165 4.16736 2.9165 5.25033C2.9165 8.31283 6.99984 12.8337 6.99984 12.8337C6.99984 12.8337 11.0832 8.31283 11.0832 5.25033C11.0832 4.16736 10.653 3.12875 9.88719 2.36297C9.12142 1.5972 8.0828 1.16699 6.99984 1.16699Z"
        fill="#357EEB" />
</svg>