<svg width="14" height="14" viewBox="0 0 14 14" fill="none" xmlns="http://www.w3.org/2000/svg">
    <path
        d="M7 8.75024H4.375V8.23755C4.375 8.06437 4.4069 7.89803 4.4707 7.73853C4.52083 7.61092 4.59603 7.48787 4.69629 7.36938C4.79655 7.2509 4.91048 7.13013 5.03809 7.00708C5.16569 6.88403 5.29102 6.7701 5.41406 6.66528C5.53711 6.56047 5.65332 6.44881 5.7627 6.33032C5.87207 6.21183 5.95866 6.10474 6.02246 6.00903C6.08626 5.91333 6.12044 5.80623 6.125 5.68774C6.125 5.56925 6.08171 5.46672 5.99512 5.38013C5.90853 5.29354 5.80599 5.25024 5.6875 5.25024C5.58268 5.25024 5.49154 5.28215 5.41406 5.34595C5.33659 5.40975 5.28418 5.49406 5.25684 5.59888L4.40234 5.42114C4.42969 5.27075 4.4821 5.13175 4.55957 5.00415C4.63704 4.87655 4.7373 4.76717 4.86035 4.67603C4.9834 4.58488 5.11328 4.51196 5.25 4.45728C5.38672 4.40259 5.53255 4.37524 5.6875 4.37524C5.86979 4.37524 6.04069 4.40942 6.2002 4.47778C6.3597 4.54614 6.4987 4.63957 6.61719 4.75806C6.73568 4.87655 6.8291 5.01554 6.89746 5.17505C6.96582 5.33455 7 5.50545 7 5.68774C7 5.86548 6.97494 6.02498 6.9248 6.16626C6.87467 6.30754 6.80404 6.4397 6.71289 6.56274C6.62174 6.68579 6.52148 6.802 6.41211 6.91138C6.30273 7.02075 6.18652 7.12557 6.06348 7.22583C5.94043 7.32609 5.82422 7.43091 5.71484 7.54028C5.60547 7.64966 5.49837 7.76131 5.39355 7.87524H7V8.75024ZM14 1.75024V11.3752H0V1.75024H14ZM13.125 2.62524H0.875V10.5002H13.125V2.62524ZM2.71387 5.38013C2.58171 5.4576 2.42676 5.52824 2.24902 5.59204C2.07129 5.65584 1.90495 5.68774 1.75 5.68774V4.81274C1.80013 4.81274 1.87077 4.79907 1.96191 4.77173C2.05306 4.74438 2.14421 4.71021 2.23535 4.66919C2.3265 4.62817 2.40853 4.58032 2.48145 4.52563C2.55436 4.47095 2.60449 4.42082 2.63184 4.37524H3.5V8.75024H2.71387V5.38013ZM9.02344 8.75024C8.83203 8.75024 8.64746 8.71834 8.46973 8.65454C8.29199 8.59074 8.12109 8.50643 7.95703 8.40161V7.53345C8.04818 7.60181 8.12793 7.66105 8.19629 7.71118C8.26465 7.76131 8.33757 7.80233 8.41504 7.83423C8.49251 7.86613 8.56999 7.88892 8.64746 7.90259C8.72493 7.91626 8.82747 7.9231 8.95508 7.9231C9.05534 7.9231 9.15104 7.91398 9.24219 7.89575C9.33333 7.87752 9.41309 7.84334 9.48145 7.79321C9.5498 7.74308 9.60677 7.67928 9.65234 7.60181C9.69792 7.52433 9.71842 7.42863 9.71387 7.3147C9.71387 7.17342 9.65918 7.07316 9.5498 7.01392C9.44043 6.95467 9.31283 6.91366 9.16699 6.89087C9.02116 6.86808 8.87305 6.86125 8.72266 6.87036C8.57227 6.87948 8.4515 6.88403 8.36035 6.88403V6.22095H8.75684C8.89811 6.22095 9.03027 6.205 9.15332 6.1731C9.27637 6.14119 9.37891 6.08195 9.46094 5.99536C9.54297 5.90877 9.58398 5.77889 9.58398 5.60571C9.58398 5.41431 9.52702 5.2867 9.41309 5.2229C9.29915 5.1591 9.15332 5.1272 8.97559 5.1272C8.79329 5.1272 8.63607 5.16821 8.50391 5.25024C8.37175 5.33228 8.23958 5.43026 8.10742 5.54419V4.65552C8.26237 4.5507 8.43555 4.47778 8.62695 4.43677C8.81836 4.39575 9.00521 4.37524 9.1875 4.37524C9.35156 4.37524 9.51107 4.39803 9.66602 4.4436C9.82096 4.48918 9.95768 4.55526 10.0762 4.64185C10.1947 4.72843 10.2926 4.84009 10.3701 4.97681C10.4476 5.11353 10.484 5.27075 10.4795 5.44849C10.4795 5.66724 10.4362 5.86092 10.3496 6.02954C10.263 6.19816 10.1217 6.33716 9.92578 6.44653C10.1263 6.51489 10.2904 6.63566 10.418 6.80884C10.5456 6.98202 10.6094 7.1757 10.6094 7.38989C10.6094 7.60409 10.5638 7.79549 10.4727 7.96411C10.3815 8.13273 10.263 8.27401 10.1172 8.38794C9.97135 8.50187 9.80046 8.59074 9.60449 8.65454C9.40853 8.71834 9.21484 8.75024 9.02344 8.75024Z"
        fill="#357EEB" />
</svg>