<svg width="15" height="16" viewBox="0 0 15 16" fill="none" xmlns="http://www.w3.org/2000/svg">
  <path
    d="M2.33366 2.1665C2.15685 2.1665 1.98728 2.23674 1.86225 2.36177C1.73723 2.48679 1.66699 2.65636 1.66699 2.83317V5.49984H5.00033V2.1665H2.33366ZM4.16699 4.6665H2.50033V2.99984H4.16699V4.6665Z"
    fill="#357EEB" />
  <path
    d="M1.66699 13.1667C1.66699 13.3435 1.73723 13.513 1.86225 13.6381C1.98728 13.7631 2.15685 13.8333 2.33366 13.8333H5.00033V10.5H1.66699V13.1667ZM2.50033 11.3333H4.16699V13H2.50033V11.3333Z"
    fill="#357EEB" />
  <path
    d="M10 13.8333H12.6667C12.8435 13.8333 13.013 13.7631 13.1381 13.6381C13.2631 13.513 13.3333 13.3435 13.3333 13.1667V10.5H10V13.8333ZM10.8333 11.3333H12.5V13H10.8333V11.3333Z"
    fill="#357EEB" />
  <path
    d="M12.6667 2.1665H10V5.49984H13.3333V2.83317C13.3333 2.65636 13.2631 2.48679 13.1381 2.36177C13.013 2.23674 12.8435 2.1665 12.6667 2.1665ZM12.5 4.6665H10.8333V2.99984H12.5V4.6665Z"
    fill="#357EEB" />
  <path d="M8.33366 4.66683V3.8335H6.66699V5.50016H7.50033V4.66683H8.33366Z" fill="#357EEB" />
  <path d="M5 5.5H5.83333V6.33333H5V5.5Z" fill="#357EEB" />
  <path d="M5.83301 6.3335H7.49967V7.16683H5.83301V6.3335Z" fill="#357EEB" />
  <path d="M8.33301 2.99984V3.83317H9.16634V2.1665H5.83301V3.83317H6.66634V2.99984H8.33301Z" fill="#357EEB" />
  <path d="M1.66699 6.3335H2.50033V8.00016H1.66699V6.3335Z" fill="#357EEB" />
  <path
    d="M5.00033 7.16683V8.00016H4.16699V6.3335H3.33366V8.00016H2.50033V8.8335H1.66699V9.66683H3.33366V8.8335H4.16699V9.66683H5.00033V8.8335H5.83366V7.16683H5.00033Z"
    fill="#357EEB" />
  <path
    d="M8.33333 7.1665H9.16667V7.99984H10V7.1665H10.8333V6.33317H9.16667V4.6665H8.33333V5.49984H7.5V6.33317H8.33333V7.1665Z"
    fill="#357EEB" />
  <path d="M7.49967 12.9998H5.83301V13.8332H9.16634V12.9998H8.33301V12.1665H7.49967V12.9998Z" fill="#357EEB" />
  <path
    d="M9.16699 8.83317V7.99984H8.33366V7.1665H7.50033V7.99984H6.66699V8.83317H7.50033V9.6665H8.33366V8.83317H9.16699Z"
    fill="#357EEB" />
  <path d="M12.5 8.8335H13.3333V9.66683H12.5V8.8335Z" fill="#357EEB" />
  <path d="M9.16699 8.8335H11.667V9.66683H9.16699V8.8335Z" fill="#357EEB" />
  <path d="M12.4997 6.3335H11.6663V7.16683H10.833V8.00016H11.6663V8.8335H12.4997V8.00016H13.333V7.16683H12.4997V6.3335Z"
    fill="#357EEB" />
  <path d="M8.33301 9.6665H9.16634V12.1665H8.33301V9.6665Z" fill="#357EEB" />
  <path d="M5.83301 12.1668H6.66634V11.3335H7.49967V10.5002H6.66634V8.8335H5.83301V12.1668Z" fill="#357EEB" />
</svg>