<svg width="15" height="16" viewBox="0 0 15 16" fill="none" xmlns="http://www.w3.org/2000/svg">
  <path
    d="M7.5 14.5627C3.88125 14.5627 0.9375 11.619 0.9375 8.00024C0.9375 4.38149 3.88125 1.43774 7.5 1.43774C11.1187 1.43774 14.0625 4.38149 14.0625 8.00024C14.0625 11.619 11.1187 14.5627 7.5 14.5627ZM7.5 2.37524C4.39688 2.37524 1.875 4.89712 1.875 8.00024C1.875 11.1034 4.39688 13.6252 7.5 13.6252C10.6031 13.6252 13.125 11.1034 13.125 8.00024C13.125 4.89712 10.6031 2.37524 7.5 2.37524Z"
    fill="#357EEB" />
  <path
    d="M7.5 11.7502C9.57107 11.7502 11.25 10.0713 11.25 8.00024C11.25 5.92918 9.57107 4.25024 7.5 4.25024C5.42893 4.25024 3.75 5.92918 3.75 8.00024C3.75 10.0713 5.42893 11.7502 7.5 11.7502Z"
    fill="#357EEB" />
</svg>