<svg width="14" height="14" viewBox="0 0 14 14" fill="none" xmlns="http://www.w3.org/2000/svg">
    <path
        d="M12.4688 12.2502C12.4688 12.4243 12.3996 12.5912 12.2765 12.7143C12.1535 12.8374 11.9865 12.9065 11.8125 12.9065H2.1875C2.01345 12.9065 1.84653 12.8374 1.72346 12.7143C1.60039 12.5912 1.53125 12.4243 1.53125 12.2502C1.53125 12.0762 1.60039 11.9093 1.72346 11.7862C1.84653 11.6631 2.01345 11.594 2.1875 11.594H11.8125C11.9865 11.594 12.1535 11.6631 12.2765 11.7862C12.3996 11.9093 12.4688 12.0762 12.4688 12.2502ZM12.4688 7.87524V9.62524C12.4688 9.91532 12.3535 10.1935 12.1484 10.3986C11.9433 10.6038 11.6651 10.719 11.375 10.719H2.625C2.33492 10.719 2.05672 10.6038 1.8516 10.3986C1.64648 10.1935 1.53125 9.91532 1.53125 9.62524V7.87524C1.53125 7.58516 1.64648 7.30696 1.8516 7.10185C2.05672 6.89673 2.33492 6.78149 2.625 6.78149H5.44031L4.63805 3.03759C4.57658 2.75061 4.58005 2.45352 4.6482 2.16805C4.71636 1.88259 4.84747 1.61597 5.03196 1.38771C5.21644 1.15946 5.44962 0.975333 5.71444 0.848815C5.97926 0.722298 6.26901 0.656588 6.5625 0.656494H7.4375C7.73103 0.656507 8.02085 0.722157 8.28574 0.848639C8.55062 0.975121 8.78387 1.15923 8.96842 1.3875C9.15296 1.61577 9.28413 1.88241 9.35231 2.16792C9.4205 2.45342 9.42398 2.75056 9.3625 3.03759L8.55969 6.78149H11.375C11.6651 6.78149 11.9433 6.89673 12.1484 7.10185C12.3535 7.30696 12.4688 7.58516 12.4688 7.87524ZM6.78125 6.78149H7.21875L8.07953 2.76251C8.1 2.66682 8.09881 2.56776 8.07605 2.47259C8.05328 2.37742 8.00952 2.28854 7.94797 2.21246C7.88642 2.13639 7.80863 2.07504 7.72031 2.03292C7.63198 1.99079 7.53536 1.96895 7.4375 1.96899H6.5625C6.46469 1.96903 6.36812 1.99093 6.27987 2.03309C6.19161 2.07526 6.11389 2.13661 6.0524 2.21268C5.99091 2.28874 5.9472 2.37759 5.92447 2.47272C5.90174 2.56785 5.90056 2.66686 5.92102 2.76251L6.78125 6.78149ZM11.1562 8.09399H2.84375V9.40649H11.1562V8.09399Z"
        fill="#357EEB" />
</svg>