<svg width="15" height="16" viewBox="0 0 15 16" fill="none" xmlns="http://www.w3.org/2000/svg">
    <path
        d="M8.79688 7.82837C9.55729 7.26587 10.151 6.64879 10.5781 5.97712C11.0052 5.30545 11.2188 4.63608 11.2188 3.96899C11.2188 3.63566 11.164 3.39087 11.0544 3.23462C10.9448 3.07837 10.7967 3.00024 10.61 3.00024C10.12 3.00024 9.6875 3.41441 9.3125 4.24274C8.9375 5.07108 8.75 6.00587 8.75 7.04712C8.75 7.19295 8.75271 7.33108 8.75812 7.46149C8.76354 7.59191 8.77646 7.7142 8.79688 7.82837ZM1.875 13.6252V12.3752H3.125V13.6252H1.875ZM4.375 13.6252V12.3752H5.625V13.6252H4.375ZM6.875 13.6252V12.3752H8.125V13.6252H6.875ZM9.375 13.6252V12.3752H10.625V13.6252H9.375ZM11.875 13.6252V12.3752H13.125V13.6252H11.875ZM2.125 11.1252L1.25 10.2502L2.25 9.25024L1.25 8.25024L2.125 7.37524L3.125 8.37524L4.125 7.37524L5 8.25024L4 9.25024L5 10.2502L4.125 11.1252L3.125 10.1252L2.125 11.1252ZM9.65625 10.5002C9.34375 10.5002 9.05729 10.4402 8.79688 10.3202C8.53646 10.2002 8.3125 10.0052 8.125 9.73524C7.86458 9.88108 7.59625 10.0113 7.32 10.1259C7.04375 10.2405 6.76 10.355 6.46875 10.4696L6.03125 9.29774C6.32292 9.19358 6.60167 9.0817 6.8675 8.96212C7.13333 8.84254 7.39104 8.71483 7.64062 8.57899C7.58854 8.34983 7.54958 8.09983 7.52375 7.82899C7.49792 7.55816 7.48479 7.26649 7.48438 6.95399C7.48438 5.45399 7.78125 4.21191 8.375 3.22774C8.96875 2.24358 9.71354 1.75108 10.6094 1.75024C11.151 1.75024 11.5938 1.95087 11.9375 2.35212C12.2812 2.75337 12.4531 3.31316 12.4531 4.03149C12.4531 4.92733 12.1692 5.81274 11.6012 6.68774C11.0333 7.56274 10.2444 8.3492 9.23438 9.04712C9.30729 9.12004 9.38292 9.17483 9.46125 9.21149C9.53958 9.24816 9.62021 9.26629 9.70312 9.26587C9.97396 9.26587 10.2892 9.09399 10.6488 8.75024C11.0083 8.40649 11.3337 7.95337 11.625 7.39087L12.7656 7.92212C12.6927 8.0992 12.6354 8.31274 12.5938 8.56274C12.5521 8.81274 12.5573 9.03149 12.6094 9.21899C12.7135 9.16691 12.836 9.07837 12.9769 8.95337C13.1177 8.82837 13.2608 8.67212 13.4062 8.48462L14.3906 9.25024C14.1198 9.62524 13.8073 9.92733 13.4531 10.1565C13.099 10.3857 12.7708 10.5002 12.4688 10.5002C12.25 10.5002 12.0546 10.435 11.8825 10.3046C11.7104 10.1742 11.5673 9.97379 11.4531 9.70337C11.1615 9.96379 10.8646 10.1617 10.5625 10.2971C10.2604 10.4325 9.95833 10.5002 9.65625 10.5002Z"
        fill="#357EEB" />
</svg>