<svg xmlns="http://www.w3.org/2000/svg" width="15" height="16" viewBox="0 0 15 16" fill="none">
  <path
    d="M11.7227 2.37524H2.34766V6.59399H1.41016V2.37524C1.41016 1.85962 1.83203 1.43774 2.34766 1.43774H11.7227C12.2383 1.43774 12.6602 1.85962 12.6602 2.37524V6.59399H11.7227V2.37524ZM2.34766 13.6252H11.7227V9.40649H12.6602V13.6252C12.6602 14.1409 12.2383 14.5627 11.7227 14.5627H2.34766C1.83203 14.5627 1.41016 14.1409 1.41016 13.6252V9.40649H2.34766V13.6252Z"
    fill="#357EEB" />
  <path
    d="M9.84766 5.18774H4.22266C3.96016 5.18774 3.75391 4.98149 3.75391 4.71899C3.75391 4.45649 3.96016 4.25024 4.22266 4.25024H9.84766C10.1102 4.25024 10.3164 4.45649 10.3164 4.71899C10.3164 4.98149 10.1102 5.18774 9.84766 5.18774Z"
    fill="#357EEB" />
  <path
    d="M7.03516 11.7502C6.77266 11.7502 6.56641 11.544 6.56641 11.2815V4.71899C6.56641 4.45649 6.77266 4.25024 7.03516 4.25024C7.29766 4.25024 7.50391 4.45649 7.50391 4.71899V11.2815C7.50391 11.544 7.29766 11.7502 7.03516 11.7502ZM1.87891 9.87524C0.847656 9.87524 0.00390625 9.03149 0.00390625 8.00024C0.00390625 6.96899 0.847656 6.12524 1.87891 6.12524C2.91016 6.12524 3.75391 6.96899 3.75391 8.00024C3.75391 9.03149 2.91016 9.87524 1.87891 9.87524ZM1.87891 7.06274C1.36328 7.06274 0.941406 7.48462 0.941406 8.00024C0.941406 8.51587 1.36328 8.93774 1.87891 8.93774C2.39453 8.93774 2.81641 8.51587 2.81641 8.00024C2.81641 7.48462 2.39453 7.06274 1.87891 7.06274ZM12.1914 9.87524C11.1602 9.87524 10.3164 9.03149 10.3164 8.00024C10.3164 6.96899 11.1602 6.12524 12.1914 6.12524C13.2227 6.12524 14.0664 6.96899 14.0664 8.00024C14.0664 9.03149 13.2227 9.87524 12.1914 9.87524ZM12.1914 7.06274C11.6758 7.06274 11.2539 7.48462 11.2539 8.00024C11.2539 8.51587 11.6758 8.93774 12.1914 8.93774C12.707 8.93774 13.1289 8.51587 13.1289 8.00024C13.1289 7.48462 12.707 7.06274 12.1914 7.06274Z"
    fill="#357EEB" />
</svg>