<svg width="15" height="14" viewBox="0 0 15 14" fill="none" xmlns="http://www.w3.org/2000/svg">
  <path
    d="M5.15625 9.18775C5.15625 9.31207 5.20564 9.43129 5.29355 9.5192C5.38145 9.60711 5.50068 9.6565 5.625 9.6565C5.74932 9.6565 5.86855 9.60711 5.95646 9.5192C6.04437 9.43129 6.09375 9.31207 6.09375 9.18775H5.15625ZM7.03125 6.01587C7.03125 6.14019 7.08064 6.25942 7.16855 6.34733C7.25645 6.43523 7.37568 6.48462 7.5 6.48462C7.62432 6.48462 7.74355 6.43523 7.83146 6.34733C7.91937 6.25942 7.96875 6.14019 7.96875 6.01587H7.03125ZM7.3425 5.02212L7.6925 4.7115L7.3425 5.02275V5.02212ZM3.28125 6.01587C3.28125 6.14019 3.33064 6.25942 3.41855 6.34733C3.50645 6.43523 3.62568 6.48462 3.75 6.48462C3.87432 6.48462 3.99355 6.43523 4.08146 6.34733C4.16937 6.25942 4.21875 6.14019 4.21875 6.01587H3.28125ZM3.9075 5.02212L3.5575 4.7115L3.9075 5.02275V5.02212ZM4.375 8.719C4.25068 8.719 4.13145 8.76838 4.04355 8.85629C3.95564 8.9442 3.90625 9.06343 3.90625 9.18775C3.90625 9.31207 3.95564 9.43129 4.04355 9.5192C4.13145 9.60711 4.25068 9.6565 4.375 9.6565V8.719ZM6.875 9.6565C6.99932 9.6565 7.11855 9.60711 7.20646 9.5192C7.29437 9.43129 7.34375 9.31207 7.34375 9.18775C7.34375 9.06343 7.29437 8.9442 7.20646 8.85629C7.11855 8.76838 6.99932 8.719 6.875 8.719V9.6565ZM4.95313 5.2815H5.625V4.344H4.95313V5.2815ZM5.625 5.2815H6.29688V4.344H5.625V5.2815ZM6.09375 9.18775V4.81275H5.15625V9.18775H6.09375ZM6.29688 5.2815C6.58125 5.2815 6.75063 5.28212 6.8725 5.29775C6.98375 5.3115 6.98938 5.33025 6.97875 5.32087L7.60125 4.62025C7.41375 4.45275 7.19438 4.39275 6.98875 4.36712C6.795 4.34337 6.55688 4.344 6.29688 4.344V5.2815ZM7.96875 6.01587C7.96875 5.75587 7.96938 5.51775 7.94563 5.324C7.92 5.11837 7.86 4.899 7.6925 4.7115L6.99188 5.334C6.9825 5.32337 7.00125 5.329 7.015 5.44025C7.03063 5.56212 7.03125 5.7315 7.03125 6.01587H7.96875ZM6.97875 5.32087C6.98315 5.3248 6.98732 5.32897 6.99125 5.33337L7.6925 4.7115C7.66392 4.6793 7.63345 4.64883 7.60125 4.62025L6.97875 5.32087ZM4.95313 4.344C4.69313 4.344 4.455 4.34337 4.26125 4.36712C4.05563 4.39275 3.83625 4.45275 3.64875 4.62025L4.27125 5.32087C4.26063 5.33025 4.26625 5.3115 4.3775 5.29775C4.49938 5.28212 4.66875 5.2815 4.95313 5.2815V4.344ZM4.21875 6.01587C4.21875 5.7315 4.21938 5.56212 4.235 5.43962C4.24875 5.329 4.2675 5.32337 4.25813 5.33337L3.5575 4.7115C3.39 4.899 3.33 5.11837 3.30438 5.324C3.28063 5.51775 3.28125 5.75587 3.28125 6.01587H4.21875ZM3.64875 4.62025C3.61625 4.649 3.58625 4.679 3.5575 4.7115L4.25813 5.33337C4.26206 5.32897 4.26623 5.32543 4.27063 5.3215L3.64875 4.62025ZM4.375 9.6565H6.875V8.719H4.375V9.6565Z"
    fill="#357EEB" />
  <path
    d="M13.75 7.00024C13.75 9.35712 13.75 10.5359 13.0175 11.2677C12.3531 11.9327 11.3213 11.994 9.375 12.0002M7.5 2.00024H6.25C3.89313 2.00024 2.71437 2.00024 1.9825 2.73274C1.25 3.46462 1.25 4.64337 1.25 7.00024C1.25 9.35712 1.25 10.5359 1.9825 11.2677C2.71437 12.0002 3.89313 12.0002 6.25 12.0002H7.5M9.375 2.00024C11.3213 2.00649 12.3531 2.06774 13.0175 2.73274C13.4262 3.14087 13.6069 3.68774 13.6863 4.50024M9.375 0.750244V13.2502"
    stroke="#357EEB" stroke-width="0.9375" stroke-linecap="round" />
</svg>