<svg width="21" height="24" viewBox="0 0 21 24" fill="none" xmlns="http://www.w3.org/2000/svg">
    <path fill-rule="evenodd" clip-rule="evenodd"
        d="M7.61369 1C7.36823 0.999489 7.13039 1.08669 6.94158 1.2464L1.26898 6.43897C1.18583 6.51578 1.11877 6.6089 1.07183 6.71275C1.02249 6.81485 0.997906 6.9275 1.00014 7.04127V17.4173C1.00562 17.7631 1.08175 18.104 1.2237 18.4183C1.36564 18.7325 1.57028 19.0132 1.82459 19.2425C2.3813 19.7346 3.09475 20.0038 3.83196 19.9999H4.7281C4.85338 20.0017 4.97793 19.9801 5.09552 19.936C5.20857 19.8918 5.31433 19.8302 5.40917 19.7535C5.49526 19.6737 5.56527 19.5776 5.61528 19.4706C5.66813 19.3662 5.69578 19.2504 5.69594 19.1329C5.69248 19.0163 5.66519 18.9017 5.61581 18.7965C5.56644 18.6912 5.49606 18.5975 5.40917 18.5215C5.31691 18.4388 5.21063 18.3738 5.09552 18.3299C4.97793 18.2858 4.85338 18.2642 4.7281 18.266H3.83196C3.58651 18.2665 3.34866 18.1793 3.15985 18.0196C3.07542 17.9421 3.00728 17.8479 2.95954 17.7428C2.91179 17.6377 2.88543 17.5239 2.88204 17.4082V7.90822H7.61369C7.85702 7.91227 8.09323 7.82451 8.27683 7.66183C8.36433 7.58689 8.43457 7.49327 8.48258 7.38761C8.53059 7.28195 8.55519 7.16682 8.55464 7.0504V2.72478H15.1682C15.4155 2.72272 15.6548 2.81371 15.8403 2.9803C15.9247 3.05785 15.9929 3.152 16.0406 3.25708C16.0883 3.36216 16.1147 3.47599 16.1181 3.59173V9.64212C16.1195 9.75557 16.1451 9.86734 16.1931 9.96975C16.2411 10.0722 16.3102 10.1628 16.3959 10.2353C16.5792 10.3996 16.8149 10.4902 17.059 10.4902C17.3032 10.4902 17.5389 10.3996 17.7222 10.2353C17.8078 10.1628 17.877 10.0722 17.925 9.96975C17.973 9.86734 17.9985 9.75557 18 9.64212V3.59173C17.9967 3.2455 17.9216 2.90389 17.7795 2.58933C17.6374 2.27477 17.4316 1.99438 17.1755 1.76657C16.6188 1.27442 15.9054 1.00521 15.1682 1.00913L7.61369 1ZM6.66377 6.18345H4.22626L6.66377 3.94763V6.18345Z"
        fill="currentColor" />
    <path
        d="M13 10C16.3112 10 19 12.6925 19 16.0048C19 19.3172 16.3112 22 13 22C9.68876 22 7 19.3075 7 16.0048C7 12.7022 9.69741 10 13 10ZM13 21.0024C15.7579 21.0024 18.0058 18.7554 18.0058 16.0048C18.0058 13.2542 15.7579 10.9976 13 10.9976C10.2421 10.9976 8.00288 13.2446 8.00288 16.0048C8.00288 18.7651 10.2421 21.0024 13 21.0024ZM12.4986 12.9927V15.9952C12.5008 16.0853 12.5254 16.1729 12.5697 16.2482C12.614 16.3235 12.6762 16.3835 12.7493 16.4213L14.4784 17.3898C14.5933 17.4544 14.7249 17.4713 14.8499 17.4377C14.9749 17.404 15.0852 17.3219 15.1614 17.2058C15.1927 17.1481 15.2129 17.0837 15.2206 17.0167C15.2284 16.9498 15.2236 16.8817 15.2065 16.817C15.1894 16.7522 15.1604 16.6922 15.1214 16.6407C15.0823 16.5892 15.0341 16.5475 14.9798 16.5182L13.4928 15.6659V12.9927C13.4928 12.8438 13.44 12.7009 13.3459 12.5955C13.2519 12.4902 13.1243 12.431 12.9914 12.431C12.8584 12.431 12.7308 12.4902 12.6368 12.5955C12.5427 12.7009 12.4899 12.8438 12.4899 12.9927H12.4986Z"
        fill="currentColor" stroke="currentColor" stroke-miterlimit="10" />
</svg>