<svg width="21" height="24" viewBox="0 0 21 24" fill="none" xmlns="http://www.w3.org/2000/svg">
    <g clip-path="url(#clip0_4289_65696)">
        <path
            d="M13.3037 11.3573C14.5193 11.3573 15.7076 11.6889 16.7184 12.3101C17.7291 12.9314 18.5169 13.8144 18.9821 14.8475C19.4473 15.8806 19.5691 17.0174 19.3319 18.1142C19.0947 19.2109 18.5094 20.2183 17.6498 21.009C16.7902 21.7997 15.695 22.3382 14.5027 22.5564C13.3105 22.7745 12.0746 22.6625 10.9516 22.2346C9.82846 21.8067 8.86853 21.082 8.19316 20.1523C7.51779 19.2225 7.15731 18.1294 7.15731 17.0111C7.15731 15.5117 7.80487 14.0736 8.95754 13.0133C10.1102 11.953 11.6735 11.3573 13.3037 11.3573ZM15.4988 14.9677L12.4607 17.7623L11.1085 16.5669C11.0514 16.5138 10.9825 16.4725 10.9066 16.4458C10.8322 16.4144 10.7514 16.3979 10.6695 16.3973C10.5891 16.3979 10.5097 16.4132 10.4359 16.4423C10.362 16.4715 10.2952 16.5138 10.2393 16.5669C10.1807 16.6178 10.1342 16.6791 10.1024 16.7472C10.0707 16.8153 10.0545 16.8886 10.0549 16.9627C10.0537 17.0373 10.0686 17.1114 10.0988 17.1808C10.1289 17.2501 10.1737 17.3132 10.2305 17.3665L11.9866 18.9254C12.0468 18.9847 12.1223 19.0291 12.2061 19.0546C12.2865 19.0866 12.3731 19.1031 12.4607 19.1031C12.5483 19.1031 12.635 19.0866 12.7154 19.0546C12.7991 19.0291 12.8746 18.9847 12.9349 18.9254L16.3768 15.7673C16.4363 15.7152 16.4837 15.6526 16.5161 15.5832C16.5485 15.5138 16.5652 15.439 16.5652 15.3635C16.5652 15.2879 16.5485 15.2132 16.5161 15.1437C16.4837 15.0743 16.4363 15.0117 16.3768 14.9596C16.3209 14.9065 16.2541 14.8642 16.1802 14.835C16.1064 14.8059 16.0269 14.7906 15.9466 14.79C15.7777 14.7926 15.6168 14.8565 15.4988 14.9677Z"
            fill="currentColor" />
        <path fill-rule="evenodd" clip-rule="evenodd"
            d="M8.08805 1.66499C7.96323 1.66195 7.83915 1.68343 7.72408 1.728C7.609 1.77257 7.50559 1.8392 7.42073 1.92345L1.73097 7.1896C1.64317 7.27168 1.57183 7.36738 1.52024 7.4723C1.47505 7.57781 1.45124 7.69005 1.45 7.80345V18.3034C1.44998 18.999 1.74915 19.6663 2.28217 20.1596C2.81519 20.653 3.53876 20.9323 4.29487 20.9365H5.24317C5.36931 20.9355 5.49422 20.9136 5.61195 20.8719C5.73051 20.8315 5.83817 20.768 5.92759 20.6857C6.017 20.6035 6.08604 20.5044 6.13 20.3954C6.18274 20.2889 6.2097 20.1731 6.20902 20.0561C6.20324 19.8238 6.10299 19.6019 5.92805 19.4342C5.83415 19.355 5.72753 19.2896 5.61195 19.2404C5.49049 19.2178 5.36565 19.215 5.24317 19.2323H4.29487C4.04337 19.2323 3.80217 19.1404 3.62433 18.9768C3.44649 18.8132 3.34658 18.5913 3.34658 18.36V8.66768H8.08805C8.21286 8.67072 8.33694 8.64924 8.45201 8.60467C8.56709 8.5601 8.6705 8.49347 8.75536 8.40922C8.84547 8.32841 8.91683 8.23164 8.96512 8.12474C9.01342 8.01784 9.03764 7.90305 9.03634 7.7873V3.41768H15.6744C15.9267 3.41981 16.1679 3.5135 16.3455 3.67838C16.5231 3.84325 16.6227 4.06597 16.6227 4.29806V10.4365C16.625 10.6665 16.7259 10.8863 16.9035 11.0481C17.0811 11.21 17.321 11.3008 17.571 11.3008C17.8202 11.2996 18.0593 11.2099 18.2383 11.0504C18.4134 10.8861 18.5139 10.6666 18.5193 10.4365V4.29806C18.5137 3.94921 18.4332 3.6048 18.2826 3.28462C18.1319 2.96443 17.9139 2.67478 17.6412 2.4323C17.3812 2.18157 17.0694 1.98102 16.7242 1.84234C16.379 1.70366 16.0072 1.62964 15.6305 1.6246L8.08805 1.66499ZM7.13975 6.93114H4.69L7.13975 4.69383V6.93114Z"
            fill="currentColor" />
    </g>
    <defs>
        <clipPath id="clip0_4289_65696">
            <rect width="18" height="21" fill="white" transform="translate(1.45 1.66499)" />
        </clipPath>
    </defs>
</svg>