<svg width="24" height="25" viewBox="0 0 24 25" fill="none" xmlns="http://www.w3.org/2000/svg">
    <path
        d="M12 12.72C14.211 12.72 15.999 10.929 15.999 8.72099C15.999 6.51299 14.211 4.71899 12 4.71899C9.789 4.71899 8.001 6.50999 8.001 8.72099C8.001 10.932 9.789 12.72 12 12.72ZM12 14.721C9.33 14.721 3.999 16.062 3.999 18.72V20.721H19.998V18.72C20.001 16.059 14.67 14.721 12 14.721Z"
        fill="currentColor" />
    <path
        d="M19.29 10.116L18.456 9.30298C18.306 9.14998 18.288 8.91297 18.414 8.73897C18.537 8.55597 18.783 8.50798 18.966 8.63098C18.993 8.64898 19.02 8.67297 19.041 8.69697L19.584 9.23998L20.961 7.86298C21.147 7.72498 21.408 7.76097 21.546 7.94697C21.657 8.09397 21.657 8.30098 21.546 8.44798L19.875 10.119C19.728 10.281 19.476 10.29 19.314 10.143C19.305 10.134 19.299 10.125 19.29 10.116Z"
        fill="currentColor" />
    <path
        d="M23.34 8.98799C23.343 7.14299 21.849 5.64599 20.004 5.63999C18.159 5.63699 16.662 7.13099 16.656 8.97599C16.653 10.083 17.202 11.121 18.117 11.745V14.397C18.117 14.631 18.3 14.823 18.534 14.835C18.618 14.838 18.702 14.808 18.765 14.751L19.998 13.791L21.231 14.751C21.294 14.808 21.375 14.838 21.462 14.835C21.696 14.823 21.879 14.631 21.879 14.397V11.745C22.791 11.124 23.34 10.092 23.34 8.98799ZM17.493 8.98799C17.493 7.60499 18.615 6.48299 19.998 6.48299C21.381 6.48299 22.503 7.60499 22.503 8.98799C22.503 10.371 21.381 11.493 19.998 11.493C18.615 11.493 17.493 10.374 17.493 8.98799ZM21.045 13.542L20.127 12.831C20.055 12.768 19.947 12.768 19.875 12.831L18.957 13.542V12.165C19.296 12.273 19.647 12.33 20.001 12.333C20.355 12.33 20.706 12.273 21.045 12.165V13.542Z"
        fill="currentColor" />
</svg>