<svg width="24" height="25" viewBox="0 0 24 25" fill="none" xmlns="http://www.w3.org/2000/svg">
    <path
        d="M15 22.72L14.445 23.552C14.5956 23.6525 14.7707 23.7102 14.9515 23.719C15.1323 23.7277 15.3121 23.6873 15.4718 23.6019C15.6314 23.5165 15.7648 23.3893 15.8579 23.234C15.9509 23.0787 16 22.901 16 22.72H15ZM12 20.72L12.555 19.888C12.3907 19.7784 12.1975 19.7198 12 19.7198C11.8025 19.7198 11.6093 19.7784 11.445 19.888L12 20.72ZM9 22.72H8C7.99997 22.901 8.04909 23.0787 8.14213 23.234C8.23516 23.3893 8.3686 23.5165 8.52823 23.6019C8.68786 23.6873 8.86769 23.7277 9.04852 23.719C9.22935 23.7102 9.4044 23.6525 9.555 23.552L9 22.72ZM15.555 21.888L12.555 19.888L11.445 21.552L14.445 23.552L15.555 21.888ZM11.445 19.888L8.445 21.888L9.555 23.552L12.555 21.552L11.445 19.888ZM12.762 4.15799L12.804 4.20799L14.327 2.91199L14.285 2.86199L12.762 4.15799ZM15.329 5.25399L15.394 5.24899L15.234 3.25499L15.169 3.25999L15.329 5.25399ZM16.471 6.32599L16.466 6.39099L18.46 6.55099L18.465 6.48599L16.471 6.32599ZM17.512 8.91599L17.562 8.95799L18.858 7.43499L18.808 7.39299L17.512 8.91599ZM17.562 10.482L17.512 10.524L18.808 12.047L18.858 12.005L17.562 10.482ZM16.466 13.049L16.471 13.114L18.465 12.954L18.46 12.889L16.466 13.049ZM15.394 14.191L15.329 14.186L15.169 16.18L15.234 16.185L15.394 14.191ZM12.804 15.232L12.762 15.282L14.285 16.578L14.327 16.528L12.804 15.232ZM11.238 15.282L11.196 15.232L9.673 16.528L9.715 16.578L11.238 15.282ZM8.671 14.186L8.606 14.191L8.766 16.185L8.831 16.18L8.671 14.186ZM7.529 13.114L7.534 13.049L5.54 12.889L5.535 12.954L7.529 13.114ZM6.488 10.524L6.438 10.482L5.142 12.005L5.192 12.047L6.488 10.524ZM6.438 8.95799L6.488 8.91599L5.192 7.39299L5.142 7.43499L6.438 8.95799ZM7.534 6.39099L7.529 6.32599L5.535 6.48599L5.54 6.55099L7.534 6.39099ZM8.606 5.24899L8.67 5.25399L8.831 3.25999L8.766 3.25499L8.606 5.24899ZM11.196 4.20799L11.238 4.15799L9.715 2.86199L9.673 2.91199L11.196 4.20799ZM8.67 5.25399C9.14364 5.29207 9.62054 5.21709 10.0595 5.03523C10.4985 4.85338 10.888 4.56985 11.196 4.20799L9.673 2.91199C9.57024 3.03254 9.44032 3.12695 9.29393 3.18745C9.14755 3.24796 8.98888 3.27282 8.831 3.25999L8.67 5.25399ZM7.529 6.32599C7.51738 6.18161 7.53726 6.03642 7.58728 5.90048C7.63729 5.76454 7.71625 5.64109 7.81867 5.53866C7.92109 5.43624 8.04455 5.35729 8.18049 5.30727C8.31643 5.25726 8.46162 5.23737 8.606 5.24899L8.766 3.25499C8.33293 3.22029 7.89749 3.28005 7.48979 3.43017C7.08208 3.58028 6.71185 3.81716 6.40469 4.12441C6.09753 4.43167 5.86077 4.80198 5.71078 5.20972C5.56079 5.61747 5.50016 6.05293 5.535 6.48599L7.529 6.32599ZM6.488 8.91599C6.84986 8.60803 7.13339 8.21852 7.31524 7.77953C7.4971 7.34054 7.57207 6.86463 7.534 6.39099L5.54 6.55099C5.55283 6.70887 5.52796 6.86754 5.46746 7.01393C5.40696 7.16032 5.31255 7.29024 5.192 7.39299L6.488 8.91599ZM6.438 10.482C6.32754 10.3881 6.2388 10.2713 6.17795 10.1398C6.1171 10.0082 6.08558 9.86496 6.08558 9.71999C6.08558 9.57503 6.1171 9.43179 6.17795 9.30022C6.2388 9.16864 6.32754 9.05187 6.438 8.95799L5.142 7.43499C4.81095 7.71663 4.54505 8.06683 4.3627 8.46137C4.18035 8.85591 4.08591 9.28535 4.08591 9.71999C4.08591 10.1546 4.18035 10.5841 4.3627 10.9786C4.54505 11.3732 4.81095 11.7234 5.142 12.005L6.438 10.482ZM7.534 13.049C7.57207 12.5754 7.4971 12.0994 7.31524 11.6605C7.13339 11.2215 6.84986 10.832 6.488 10.524L5.192 12.047C5.31255 12.1497 5.40696 12.2797 5.46746 12.4261C5.52796 12.5724 5.55283 12.7311 5.54 12.889L7.534 13.049ZM8.606 14.191C8.46162 14.2026 8.31643 14.1827 8.18049 14.1327C8.04455 14.0827 7.92109 14.0037 7.81867 13.9013C7.71625 13.7989 7.63729 13.6754 7.58728 13.5395C7.53726 13.4036 7.51738 13.2584 7.529 13.114L5.535 12.954C5.50029 13.3871 5.56006 13.8225 5.71017 14.2302C5.86029 14.6379 6.09716 15.0081 6.40442 15.3153C6.71168 15.6225 7.08198 15.8592 7.48973 16.0092C7.89748 16.1592 8.33294 16.2188 8.766 16.184L8.606 14.191ZM12.762 15.281C12.6681 15.3915 12.5514 15.4802 12.4198 15.541C12.2882 15.6019 12.145 15.6334 12 15.6334C11.855 15.6334 11.7118 15.6019 11.5802 15.541C11.4486 15.4802 11.3319 15.3915 11.238 15.281L9.715 16.578C9.99663 16.909 10.3468 17.1749 10.7414 17.3573C11.1359 17.5396 11.5654 17.6341 12 17.6341C12.4346 17.6341 12.8641 17.5396 13.2586 17.3573C13.6532 17.1749 14.0034 16.909 14.285 16.578L12.762 15.282V15.281ZM16.471 13.114C16.4826 13.2585 16.4637 13.4037 16.4137 13.5398C16.3636 13.6758 16.2845 13.7993 16.182 13.9017C16.0795 14.0042 15.9559 14.0831 15.8198 14.133C15.6838 14.183 15.5385 14.2028 15.394 14.191L15.234 16.185C15.6671 16.2197 16.1025 16.1599 16.5102 16.0098C16.9179 15.8597 17.2882 15.6228 17.5953 15.3156C17.9025 15.0083 18.1392 14.638 18.2892 14.2303C18.4392 13.8225 18.4998 13.3871 18.465 12.954L16.471 13.114ZM17.512 10.524C17.1501 10.832 16.8666 11.2215 16.6848 11.6605C16.5029 12.0994 16.4279 12.5754 16.466 13.049L18.46 12.889C18.4472 12.7311 18.472 12.5724 18.5325 12.4261C18.593 12.2797 18.6875 12.1497 18.808 12.047L17.512 10.524ZM17.562 8.95799C17.6725 9.05187 17.7612 9.16864 17.8221 9.30022C17.8829 9.43179 17.9144 9.57503 17.9144 9.71999C17.9144 9.86496 17.8829 10.0082 17.8221 10.1398C17.7612 10.2713 17.6725 10.3881 17.562 10.482L18.858 12.005C19.189 11.7234 19.455 11.3732 19.6373 10.9786C19.8196 10.5841 19.9141 10.1546 19.9141 9.71999C19.9141 9.28535 19.8196 8.85591 19.6373 8.46137C19.455 8.06683 19.189 7.71663 18.858 7.43499L17.562 8.95799ZM16.466 6.39099C16.4279 6.86463 16.5029 7.34054 16.6848 7.77953C16.8666 8.21852 17.1501 8.60803 17.512 8.91599L18.808 7.39299C18.6875 7.29024 18.593 7.16032 18.5325 7.01393C18.472 6.86754 18.4472 6.70887 18.46 6.55099L16.466 6.39099ZM15.394 5.24899C15.5384 5.23737 15.6836 5.25726 15.8195 5.30727C15.9555 5.35729 16.0789 5.43624 16.1813 5.53866C16.2838 5.64109 16.3627 5.76454 16.4127 5.90048C16.4627 6.03642 16.4826 6.18161 16.471 6.32599L18.465 6.48599C18.4997 6.05292 18.4399 5.61748 18.2898 5.20978C18.1397 4.80208 17.9028 4.43184 17.5956 4.12468C17.2883 3.81752 16.918 3.58076 16.5103 3.43077C16.1025 3.28079 15.6671 3.22015 15.234 3.25499L15.394 5.24899ZM12.804 4.20799C13.112 4.56985 13.5015 4.85338 13.9405 5.03523C14.3795 5.21709 14.8554 5.29207 15.329 5.25399L15.169 3.25999C15.0111 3.27282 14.8525 3.24796 14.7061 3.18745C14.5597 3.12695 14.4298 3.03254 14.327 2.91199L12.804 4.20799ZM14.285 2.86199C14.0034 2.53111 13.6522 2.26536 13.2578 2.08312C12.8633 1.90087 12.434 1.80649 11.9995 1.80649C11.565 1.80649 11.1357 1.90087 10.7412 2.08312C10.3468 2.26536 9.99663 2.53111 9.715 2.86199L11.238 4.15799C11.3319 4.04753 11.4486 3.9588 11.5802 3.89794C11.7118 3.83709 11.855 3.80557 12 3.80557C12.145 3.80557 12.2882 3.83709 12.4198 3.89794C12.5514 3.9588 12.6681 4.04753 12.762 4.15799L14.285 2.86199ZM11.196 15.232C10.9289 14.918 10.5999 14.6625 10.2297 14.4813C9.85942 14.3002 9.4558 14.1973 9.044 14.179L8.956 16.177C9.09321 16.1831 9.22769 16.2175 9.35104 16.2778C9.4744 16.3382 9.584 16.4234 9.673 16.528L11.196 15.232ZM9.044 14.18C8.91964 14.1746 8.79507 14.177 8.671 14.187L8.831 16.181C8.87256 16.1774 8.91431 16.1764 8.956 16.178L9.044 14.18ZM10 22.72V15.178H8V22.72H10ZM15.329 14.186C15.2046 14.1759 15.0807 14.1736 14.956 14.179L15.044 16.177C15.0857 16.1754 15.1274 16.1764 15.169 16.18L15.329 14.186ZM14.956 14.179C14.5442 14.1973 14.1406 14.3002 13.7703 14.4813C13.4001 14.6625 13.0711 14.918 12.804 15.232L14.327 16.528C14.4161 16.4236 14.5257 16.3386 14.6491 16.2784C14.7724 16.2182 14.9069 16.184 15.044 16.178L14.956 14.179ZM14 15.179V22.72H16V15.178L14 15.179Z"
        fill="currentColor" />
    <path d="M14 8.72L11 11.72L10 10.72" stroke="currentColor" stroke-width="1.33333" stroke-linecap="round"
        stroke-linejoin="round" />
</svg>