<svg width="24" height="24" viewBox="0 0 24 24" fill="none" xmlns="http://www.w3.org/2000/svg">
    <g clip-path="url(#clip0_4289_65591)">
        <path
            d="M10.63 14.1C11.0107 13.2634 11.5525 12.51 12.2245 11.8828C12.8964 11.2556 13.6854 10.7669 14.5462 10.4447C15.407 10.1225 16.3229 9.97298 17.2415 10.0048C18.1601 10.0366 19.0635 10.249 19.9 10.63C20.7366 11.0107 21.49 11.5525 22.1172 12.2245C22.7444 12.8964 23.2331 13.6853 23.5553 14.5462C23.8775 15.407 24.027 16.3229 23.9952 17.2415C23.9634 18.1601 23.751 19.0635 23.37 19.9C22.8156 21.1241 21.9196 22.1621 20.7896 22.8893C19.6596 23.6166 18.3438 24.0023 17 24C14.3 24 11.83 22.44 10.67 20H1V18C1.06 16.86 1.84 15.93 3.34 15.18C4.84 14.43 6.72 14.04 9 14C9.57 14 10.11 14.05 10.63 14.1ZM9 4C10.12 4.03 11.06 4.42 11.81 5.17C12.56 5.92 12.93 6.86 12.93 8C12.93 9.14 12.56 10.08 11.81 10.83C11.06 11.58 10.12 11.95 9 11.95C7.88 11.95 6.94 11.58 6.19 10.83C5.44 10.08 5.07 9.14 5.07 8C5.07 6.86 5.44 5.92 6.19 5.17C6.94 4.42 7.88 4.03 9 4ZM17 22C18.3261 22 19.5979 21.4732 20.5355 20.5355C21.4732 19.5979 22 18.3261 22 17C22 15.6739 21.4732 14.4021 20.5355 13.4645C19.5979 12.5268 18.3261 12 17 12C15.6739 12 14.4021 12.5268 13.4645 13.4645C12.5268 14.4021 12 15.6739 12 17C12 18.3261 12.5268 19.5979 13.4645 20.5355C14.4021 21.4732 15.6739 22 17 22ZM16 14H17.5V16.82L19.94 18.23L19.19 19.53L16 17.69V14Z"
            fill="currentColor" />
    </g>
    <defs>
        <clipPath id="clip0_4289_65591">
            <rect width="24" height="24" fill="white" />
        </clipPath>
    </defs>
</svg>