<svg aria-hidden="true" class="rpv-core__icon" focusable="false" height="16px" viewBox="0 0 24 24" width="16px"><path d="M10.5,9.5c0,0.552-0.448,1-1,1h-8c-0.552,0-1-0.448-1-1v-8c0-0.552,0.448-1,1-1h8c0.552,0,1,0.448,1,1V9.5z
            M23.5,9.5c0,0.552-0.448,1-1,1h-8c-0.552,0-1-0.448-1-1v-8c0-0.552,0.448-1,1-1h8c0.552,0,1,0.448,1,1V9.5z
            M10.5,22.5 c0,0.552-0.448,1-1,1h-8c-0.552,0-1-0.448-1-1v-8c0-0.552,0.448-1,1-1h8c0.552,0,1,0.448,1,1V22.5z
            M23.5,22.5c0,0.552-0.448,1-1,1 h-8c-0.552,0-1-0.448-1-1v-8c0-0.552,0.448-1,1-1h8c0.552,0,1,0.448,1,1V22.5z"></path></svg>